<?xml version="1.0" encoding="UTF-8"?>
<!DOCTYPE svg PUBLIC "-//W3C//DTD SVG 1.1//EN" "http://www.w3.org/Graphics/SVG/1.1/DTD/svg11.dtd">
<svg version="1.2" width="153.67mm" height="102.87mm" viewBox="0 0 15367 10287" preserveAspectRatio="xMidYMid" fill-rule="evenodd" stroke-width="28.222" stroke-linejoin="round" xmlns="http://www.w3.org/2000/svg" xmlns:ooo="http://xml.openoffice.org/svg/export" xmlns:xlink="http://www.w3.org/1999/xlink" xmlns:presentation="http://sun.com/xmlns/staroffice/presentation" xmlns:smil="http://www.w3.org/2001/SMIL20/" xmlns:anim="urn:oasis:names:tc:opendocument:xmlns:animation:1.0" xml:space="preserve">
 <defs class="ClipPathGroup">
  <clipPath id="presentation_clip_path" clipPathUnits="userSpaceOnUse">
   <rect x="0" y="0" width="15367" height="10287"/>
  </clipPath>
  <clipPath id="presentation_clip_path_shrink" clipPathUnits="userSpaceOnUse">
   <rect x="15" y="10" width="15337" height="10267"/>
  </clipPath>
 </defs>
 <defs class="TextShapeIndex">
  <g ooo:slide="id1" ooo:id-list="id3 id4 id5 id6 id7 id8 id9 id10 id11 id12 id13 id14 id15 id16 id17 id18 id19 id20 id21 id22 id23 id24 id25 id26 id27 id28 id29 id30 id31 id32 id33 id34 id35 id36 id37 id38 id39 id40 id41 id42 id43 id44 id45 id46 id47 id48 id49 id50 id51 id52 id53 id54 id55 id56 id57 id58 id59 id60 id61 id62 id63 id64 id65 id66 id67 id68 id69 id70"/>
 </defs>
 <defs class="EmbeddedBulletChars">
  <g id="bullet-char-template-57356" transform="scale(0.00048828125,-0.00048828125)">
   <path d="M 580,1141 L 1163,571 580,0 -4,571 580,1141 Z"/>
  </g>
  <g id="bullet-char-template-57354" transform="scale(0.00048828125,-0.00048828125)">
   <path d="M 8,1128 L 1137,1128 1137,0 8,0 8,1128 Z"/>
  </g>
  <g id="bullet-char-template-10146" transform="scale(0.00048828125,-0.00048828125)">
   <path d="M 174,0 L 602,739 174,1481 1456,739 174,0 Z M 1358,739 L 309,1346 659,739 1358,739 Z"/>
  </g>
  <g id="bullet-char-template-10132" transform="scale(0.00048828125,-0.00048828125)">
   <path d="M 2015,739 L 1276,0 717,0 1260,543 174,543 174,936 1260,936 717,1481 1274,1481 2015,739 Z"/>
  </g>
  <g id="bullet-char-template-10007" transform="scale(0.00048828125,-0.00048828125)">
   <path d="M 0,-2 C -7,14 -16,27 -25,37 L 356,567 C 262,823 215,952 215,954 215,979 228,992 255,992 264,992 276,990 289,987 310,991 331,999 354,1012 L 381,999 492,748 772,1049 836,1024 860,1049 C 881,1039 901,1025 922,1006 886,937 835,863 770,784 769,783 710,716 594,584 L 774,223 C 774,196 753,168 711,139 L 727,119 C 717,90 699,76 672,76 641,76 570,178 457,381 L 164,-76 C 142,-110 111,-127 72,-127 30,-127 9,-110 8,-76 1,-67 -2,-52 -2,-32 -2,-23 -1,-13 0,-2 Z"/>
  </g>
  <g id="bullet-char-template-10004" transform="scale(0.00048828125,-0.00048828125)">
   <path d="M 285,-33 C 182,-33 111,30 74,156 52,228 41,333 41,471 41,549 55,616 82,672 116,743 169,778 240,778 293,778 328,747 346,684 L 369,508 C 377,444 397,411 428,410 L 1163,1116 C 1174,1127 1196,1133 1229,1133 1271,1133 1292,1118 1292,1087 L 1292,965 C 1292,929 1282,901 1262,881 L 442,47 C 390,-6 338,-33 285,-33 Z"/>
  </g>
  <g id="bullet-char-template-9679" transform="scale(0.00048828125,-0.00048828125)">
   <path d="M 813,0 C 632,0 489,54 383,161 276,268 223,411 223,592 223,773 276,916 383,1023 489,1130 632,1184 813,1184 992,1184 1136,1130 1245,1023 1353,916 1407,772 1407,592 1407,412 1353,268 1245,161 1136,54 992,0 813,0 Z"/>
  </g>
  <g id="bullet-char-template-8226" transform="scale(0.00048828125,-0.00048828125)">
   <path d="M 346,457 C 273,457 209,483 155,535 101,586 74,649 74,723 74,796 101,859 155,911 209,963 273,989 346,989 419,989 480,963 531,910 582,859 608,796 608,723 608,648 583,586 532,535 482,483 420,457 346,457 Z"/>
  </g>
  <g id="bullet-char-template-8211" transform="scale(0.00048828125,-0.00048828125)">
   <path d="M -4,459 L 1135,459 1135,606 -4,606 -4,459 Z"/>
  </g>
  <g id="bullet-char-template-61548" transform="scale(0.00048828125,-0.00048828125)">
   <path d="M 173,740 C 173,903 231,1043 346,1159 462,1274 601,1332 765,1332 928,1332 1067,1274 1183,1159 1299,1043 1357,903 1357,740 1357,577 1299,437 1183,322 1067,206 928,148 765,148 601,148 462,206 346,322 231,437 173,577 173,740 Z"/>
  </g>
 </defs>
 <defs class="TextEmbeddedBitmaps"/>
 <g>
  <g id="id2" class="Master_Slide">
   <g id="bg-id2" class="Background"/>
   <g id="bo-id2" class="BackgroundObjects"/>
  </g>
 </g>
 <g class="SlideGroup">
  <g>
   <g id="container-id1">
    <g id="id1" class="Slide" clip-path="url(#presentation_clip_path)">
     <g class="Page">
      <g class="com.sun.star.drawing.LineShape">
       <g id="id3">
        <rect class="BoundingBox" stroke="none" fill="none" x="1785" y="574" width="301" height="9273"/>
        <path fill="none" stroke="rgb(0,0,0)" d="M 1935,9845 L 1935,1004"/>
        <path fill="rgb(0,0,0)" stroke="none" d="M 1935,574 L 1785,1024 2085,1024 1935,574 Z"/>
       </g>
      </g>
      <g class="com.sun.star.drawing.LineShape">
       <g id="id4">
        <rect class="BoundingBox" stroke="none" fill="none" x="156" y="8806" width="14988" height="301"/>
        <path fill="none" stroke="rgb(0,0,0)" d="M 157,8956 L 14713,8956"/>
        <path fill="rgb(0,0,0)" stroke="none" d="M 15143,8956 L 14693,8806 14693,9106 15143,8956 Z"/>
       </g>
      </g>
      <g class="Group">
       <g class="com.sun.star.drawing.PolyPolygonShape">
        <g id="id5">
         <rect class="BoundingBox" stroke="none" fill="none" x="14549" y="9505" width="283" height="214"/>
        </g>
       </g>
       <g class="com.sun.star.drawing.ClosedBezierShape">
        <g id="id6">
         <rect class="BoundingBox" stroke="none" fill="none" x="14564" y="9499" width="248" height="225"/>
         <path fill="rgb(0,0,0)" stroke="none" d="M 14716,9568 C 14718,9555 14729,9510 14764,9510 14767,9510 14778,9510 14788,9516 14775,9519 14765,9531 14765,9543 14765,9551 14771,9561 14784,9561 14795,9561 14811,9552 14811,9531 14811,9506 14782,9499 14765,9499 14736,9499 14719,9525 14712,9537 14700,9503 14674,9499 14660,9499 14608,9499 14580,9563 14580,9575 14580,9580 14585,9580 14586,9580 14590,9580 14591,9580 14593,9575 14609,9523 14642,9510 14659,9510 14668,9510 14685,9515 14685,9543 14685,9558 14677,9592 14659,9660 14651,9692 14633,9712 14612,9712 14608,9712 14597,9712 14587,9706 14599,9703 14610,9693 14610,9679 14610,9666 14599,9661 14591,9661 14577,9661 14565,9675 14565,9691 14565,9713 14589,9723 14610,9723 14644,9723 14662,9688 14663,9685 14669,9704 14687,9723 14716,9723 14767,9723 14795,9659 14795,9647 14795,9642 14791,9642 14790,9642 14785,9642 14784,9643 14783,9647 14767,9701 14732,9712 14717,9712 14698,9712 14690,9696 14690,9679 14690,9668 14693,9658 14699,9636 L 14716,9568 Z"/>
        </g>
       </g>
      </g>
      <g class="Group">
       <g class="com.sun.star.drawing.PolyPolygonShape">
        <g id="id7">
         <rect class="BoundingBox" stroke="none" fill="none" x="422" y="568" width="957" height="493"/>
        </g>
       </g>
       <g class="com.sun.star.drawing.ClosedBezierShape">
        <g id="id8">
         <rect class="BoundingBox" stroke="none" fill="none" x="447" y="589" width="249" height="451"/>
         <path fill="rgb(0,0,0)" stroke="none" d="M 603,740 L 646,740 C 655,740 660,740 660,731 660,725 655,725 647,725 L 606,725 616,668 C 618,658 625,623 628,617 632,607 641,601 652,601 654,601 666,601 675,610 654,611 649,629 649,635 649,648 658,653 667,653 680,653 694,642 694,623 694,601 672,589 652,589 635,589 603,598 589,648 585,658 584,662 572,725 L 538,725 C 528,725 524,725 524,734 524,740 527,740 537,740 L 570,740 533,935 C 524,983 515,1028 490,1028 488,1028 476,1028 466,1019 489,1017 494,999 494,992 494,980 485,975 475,975 462,975 448,986 448,1004 448,1026 469,1039 490,1039 517,1039 536,1010 545,991 562,959 573,900 573,896 L 603,740 Z"/>
        </g>
       </g>
       <g class="com.sun.star.drawing.ClosedBezierShape">
        <g id="id9">
         <rect class="BoundingBox" stroke="none" fill="none" x="763" y="567" width="117" height="494"/>
         <path fill="rgb(0,0,0)" stroke="none" d="M 879,1056 C 879,1054 879,1053 870,1044 808,983 793,890 793,814 793,728 812,642 872,580 879,575 879,574 879,571 879,568 877,567 873,567 869,567 824,601 795,663 769,717 763,772 763,814 763,853 769,912 796,968 826,1029 869,1060 873,1060 877,1060 879,1059 879,1056 Z"/>
        </g>
       </g>
       <g class="com.sun.star.drawing.ClosedBezierShape">
        <g id="id10">
         <rect class="BoundingBox" stroke="none" fill="none" x="920" y="718" width="248" height="226"/>
         <path fill="rgb(0,0,0)" stroke="none" d="M 1071,788 C 1074,774 1085,729 1119,729 1123,729 1134,729 1144,735 1131,738 1121,751 1121,762 1121,770 1126,780 1140,780 1151,780 1167,771 1167,751 1167,725 1137,718 1121,718 1092,718 1075,744 1068,756 1056,723 1030,718 1015,718 964,718 936,782 936,794 936,799 940,799 941,799 946,799 947,799 948,794 965,742 997,729 1014,729 1023,729 1041,734 1041,762 1041,778 1032,811 1014,880 1006,911 989,931 967,931 964,931 953,931 943,926 955,922 966,912 966,899 966,885 955,881 947,881 933,881 920,894 920,910 920,932 945,942 966,942 1000,942 1016,908 1019,904 1024,923 1042,942 1071,942 1123,942 1151,878 1151,866 1151,862 1146,862 1145,862 1141,862 1140,863 1139,866 1123,920 1088,931 1072,931 1053,931 1046,915 1046,899 1046,887 1049,877 1055,855 L 1071,788 Z"/>
        </g>
       </g>
       <g class="com.sun.star.drawing.ClosedBezierShape">
        <g id="id11">
         <rect class="BoundingBox" stroke="none" fill="none" x="1213" y="567" width="117" height="494"/>
         <path fill="rgb(0,0,0)" stroke="none" d="M 1329,814 C 1329,775 1323,716 1296,660 1266,599 1224,567 1218,567 1216,567 1214,569 1214,571 1214,574 1214,575 1222,584 1272,632 1300,710 1300,814 1300,898 1282,985 1220,1047 1214,1053 1214,1054 1214,1056 1214,1059 1216,1060 1218,1060 1224,1060 1268,1026 1298,964 1323,910 1329,855 1329,814 Z"/>
        </g>
       </g>
      </g>
      <g class="com.sun.star.drawing.OpenFreeHandShape">
       <g id="id12">
        <rect class="BoundingBox" stroke="none" fill="none" x="2489" y="1462" width="8896" height="5780"/>
        <path fill="none" stroke="rgb(0,0,0)" d="M 2490,2424 C 2536,2208 2670,2038 2755,1836 2815,1692 2874,1313 3152,1527 3333,1666 3455,1857 3578,2042 3676,2190 3813,2343 3813,2527 3814,2748 3902,2949 3931,3159 3962,3386 4062,3598 4151,3806 4239,4010 4373,4191 4475,4394 4577,4597 4985,4771 5004,4408 5015,4192 5218,4042 5298,3850 5447,3492 5868,3858 5959,4026 6071,4233 6206,4424 6297,4643 6381,4846 6454,5055 6532,5261 6612,5471 6688,5676 6812,5878 6930,6070 7093,6195 7209,6378 7321,6554 7518,6662 7635,6834 7795,7068 8036,7168 8282,7231 8513,7290 8628,7030 8796,6907 8981,6771 9153,6617 9296,6437 9444,6250 9546,6031 9678,5834 9818,5626 9858,5369 9957,5143 10049,4932 10103,4708 10192,4496 10267,4316 10335,4132 10413,3953 10488,3780 10561,3587 10751,3497 10947,3404 11151,3320 11368,3291 L 11383,3291"/>
       </g>
      </g>
      <g class="com.sun.star.drawing.CustomShape">
       <g id="id13">
        <rect class="BoundingBox" stroke="none" fill="none" x="2569" y="1080" width="766" height="766"/>
        <path fill="rgb(237,28,36)" stroke="none" d="M 2570,1462 L 2724,1517 2724,1407 2570,1462 Z M 2570,1081 L 2570,1081 Z M 3333,1844 L 3333,1844 Z"/>
        <path fill="none" stroke="rgb(237,28,36)" d="M 2570,1462 L 2724,1517 2724,1407 2570,1462 Z"/>
        <path fill="none" stroke="rgb(237,28,36)" d="M 2570,1081 L 2570,1081 Z"/>
        <path fill="none" stroke="rgb(237,28,36)" d="M 3333,1844 L 3333,1844 Z"/>
        <path fill="rgb(237,28,36)" stroke="none" d="M 2681,1732 L 2830,1661 2752,1583 2681,1732 Z M 2570,1081 L 2570,1081 Z M 3333,1844 L 3333,1844 Z"/>
        <path fill="none" stroke="rgb(237,28,36)" d="M 2681,1732 L 2830,1661 2752,1583 2681,1732 Z"/>
        <path fill="none" stroke="rgb(237,28,36)" d="M 2570,1081 L 2570,1081 Z"/>
        <path fill="none" stroke="rgb(237,28,36)" d="M 3333,1844 L 3333,1844 Z"/>
        <path fill="rgb(237,28,36)" stroke="none" d="M 2951,1844 L 3006,1689 2896,1689 2951,1844 Z M 2570,1081 L 2570,1081 Z M 3333,1844 L 3333,1844 Z"/>
        <path fill="none" stroke="rgb(237,28,36)" d="M 2951,1844 L 3006,1689 2896,1689 2951,1844 Z"/>
        <path fill="none" stroke="rgb(237,28,36)" d="M 2570,1081 L 2570,1081 Z"/>
        <path fill="none" stroke="rgb(237,28,36)" d="M 3333,1844 L 3333,1844 Z"/>
        <path fill="rgb(237,28,36)" stroke="none" d="M 3221,1732 L 3150,1583 3072,1661 3221,1732 Z M 2570,1081 L 2570,1081 Z M 3333,1844 L 3333,1844 Z"/>
        <path fill="none" stroke="rgb(237,28,36)" d="M 3221,1732 L 3150,1583 3072,1661 3221,1732 Z"/>
        <path fill="none" stroke="rgb(237,28,36)" d="M 2570,1081 L 2570,1081 Z"/>
        <path fill="none" stroke="rgb(237,28,36)" d="M 3333,1844 L 3333,1844 Z"/>
        <path fill="rgb(237,28,36)" stroke="none" d="M 3333,1462 L 3178,1407 3178,1517 3333,1462 Z M 2570,1081 L 2570,1081 Z M 3333,1844 L 3333,1844 Z"/>
        <path fill="none" stroke="rgb(237,28,36)" d="M 3333,1462 L 3178,1407 3178,1517 3333,1462 Z"/>
        <path fill="none" stroke="rgb(237,28,36)" d="M 2570,1081 L 2570,1081 Z"/>
        <path fill="none" stroke="rgb(237,28,36)" d="M 3333,1844 L 3333,1844 Z"/>
        <path fill="rgb(237,28,36)" stroke="none" d="M 3221,1192 L 3072,1263 3150,1341 3221,1192 Z M 2570,1081 L 2570,1081 Z M 3333,1844 L 3333,1844 Z"/>
        <path fill="none" stroke="rgb(237,28,36)" d="M 3221,1192 L 3072,1263 3150,1341 3221,1192 Z"/>
        <path fill="none" stroke="rgb(237,28,36)" d="M 2570,1081 L 2570,1081 Z"/>
        <path fill="none" stroke="rgb(237,28,36)" d="M 3333,1844 L 3333,1844 Z"/>
        <path fill="rgb(237,28,36)" stroke="none" d="M 2951,1081 L 2896,1235 3006,1235 2951,1081 Z M 2570,1081 L 2570,1081 Z M 3333,1844 L 3333,1844 Z"/>
        <path fill="none" stroke="rgb(237,28,36)" d="M 2951,1081 L 2896,1235 3006,1235 2951,1081 Z"/>
        <path fill="none" stroke="rgb(237,28,36)" d="M 2570,1081 L 2570,1081 Z"/>
        <path fill="none" stroke="rgb(237,28,36)" d="M 3333,1844 L 3333,1844 Z"/>
        <path fill="rgb(237,28,36)" stroke="none" d="M 2681,1192 L 2752,1341 2830,1263 2681,1192 Z M 2570,1081 L 2570,1081 Z M 3333,1844 L 3333,1844 Z"/>
        <path fill="none" stroke="rgb(237,28,36)" d="M 2681,1192 L 2752,1341 2830,1263 2681,1192 Z"/>
        <path fill="none" stroke="rgb(237,28,36)" d="M 2570,1081 L 2570,1081 Z"/>
        <path fill="none" stroke="rgb(237,28,36)" d="M 3333,1844 L 3333,1844 Z"/>
        <path fill="rgb(237,28,36)" stroke="none" d="M 2950,1271 C 3058,1271 3140,1353 3140,1461 3140,1569 3058,1651 2950,1651 2842,1651 2760,1569 2760,1461 2760,1353 2842,1271 2950,1271 Z M 2570,1081 L 2570,1081 Z M 3333,1844 L 3333,1844 Z"/>
        <path fill="none" stroke="rgb(237,28,36)" d="M 2950,1271 C 3058,1271 3140,1353 3140,1461 3140,1569 3058,1651 2950,1651 2842,1651 2760,1569 2760,1461 2760,1353 2842,1271 2950,1271 Z"/>
        <path fill="none" stroke="rgb(237,28,36)" d="M 2570,1081 L 2570,1081 Z"/>
        <path fill="none" stroke="rgb(237,28,36)" d="M 3333,1844 L 3333,1844 Z"/>
       </g>
      </g>
      <g class="com.sun.star.drawing.CustomShape">
       <g id="id14">
        <rect class="BoundingBox" stroke="none" fill="none" x="7903" y="6795" width="766" height="766"/>
        <path fill="rgb(204,190,0)" stroke="none" d="M 7904,7177 L 8058,7232 8058,7122 7904,7177 Z M 7904,6796 L 7904,6796 Z M 8667,7559 L 8667,7559 Z"/>
        <path fill="none" stroke="rgb(204,190,0)" d="M 7904,7177 L 8058,7232 8058,7122 7904,7177 Z"/>
        <path fill="none" stroke="rgb(204,190,0)" d="M 7904,6796 L 7904,6796 Z"/>
        <path fill="none" stroke="rgb(204,190,0)" d="M 8667,7559 L 8667,7559 Z"/>
        <path fill="rgb(204,190,0)" stroke="none" d="M 8015,7447 L 8164,7376 8086,7298 8015,7447 Z M 7904,6796 L 7904,6796 Z M 8667,7559 L 8667,7559 Z"/>
        <path fill="none" stroke="rgb(204,190,0)" d="M 8015,7447 L 8164,7376 8086,7298 8015,7447 Z"/>
        <path fill="none" stroke="rgb(204,190,0)" d="M 7904,6796 L 7904,6796 Z"/>
        <path fill="none" stroke="rgb(204,190,0)" d="M 8667,7559 L 8667,7559 Z"/>
        <path fill="rgb(204,190,0)" stroke="none" d="M 8285,7559 L 8340,7404 8230,7404 8285,7559 Z M 7904,6796 L 7904,6796 Z M 8667,7559 L 8667,7559 Z"/>
        <path fill="none" stroke="rgb(204,190,0)" d="M 8285,7559 L 8340,7404 8230,7404 8285,7559 Z"/>
        <path fill="none" stroke="rgb(204,190,0)" d="M 7904,6796 L 7904,6796 Z"/>
        <path fill="none" stroke="rgb(204,190,0)" d="M 8667,7559 L 8667,7559 Z"/>
        <path fill="rgb(204,190,0)" stroke="none" d="M 8555,7447 L 8484,7298 8406,7376 8555,7447 Z M 7904,6796 L 7904,6796 Z M 8667,7559 L 8667,7559 Z"/>
        <path fill="none" stroke="rgb(204,190,0)" d="M 8555,7447 L 8484,7298 8406,7376 8555,7447 Z"/>
        <path fill="none" stroke="rgb(204,190,0)" d="M 7904,6796 L 7904,6796 Z"/>
        <path fill="none" stroke="rgb(204,190,0)" d="M 8667,7559 L 8667,7559 Z"/>
        <path fill="rgb(204,190,0)" stroke="none" d="M 8667,7177 L 8512,7122 8512,7232 8667,7177 Z M 7904,6796 L 7904,6796 Z M 8667,7559 L 8667,7559 Z"/>
        <path fill="none" stroke="rgb(204,190,0)" d="M 8667,7177 L 8512,7122 8512,7232 8667,7177 Z"/>
        <path fill="none" stroke="rgb(204,190,0)" d="M 7904,6796 L 7904,6796 Z"/>
        <path fill="none" stroke="rgb(204,190,0)" d="M 8667,7559 L 8667,7559 Z"/>
        <path fill="rgb(204,190,0)" stroke="none" d="M 8555,6907 L 8406,6978 8484,7056 8555,6907 Z M 7904,6796 L 7904,6796 Z M 8667,7559 L 8667,7559 Z"/>
        <path fill="none" stroke="rgb(204,190,0)" d="M 8555,6907 L 8406,6978 8484,7056 8555,6907 Z"/>
        <path fill="none" stroke="rgb(204,190,0)" d="M 7904,6796 L 7904,6796 Z"/>
        <path fill="none" stroke="rgb(204,190,0)" d="M 8667,7559 L 8667,7559 Z"/>
        <path fill="rgb(204,190,0)" stroke="none" d="M 8285,6796 L 8230,6950 8340,6950 8285,6796 Z M 7904,6796 L 7904,6796 Z M 8667,7559 L 8667,7559 Z"/>
        <path fill="none" stroke="rgb(204,190,0)" d="M 8285,6796 L 8230,6950 8340,6950 8285,6796 Z"/>
        <path fill="none" stroke="rgb(204,190,0)" d="M 7904,6796 L 7904,6796 Z"/>
        <path fill="none" stroke="rgb(204,190,0)" d="M 8667,7559 L 8667,7559 Z"/>
        <path fill="rgb(204,190,0)" stroke="none" d="M 8015,6907 L 8086,7056 8164,6978 8015,6907 Z M 7904,6796 L 7904,6796 Z M 8667,7559 L 8667,7559 Z"/>
        <path fill="none" stroke="rgb(204,190,0)" d="M 8015,6907 L 8086,7056 8164,6978 8015,6907 Z"/>
        <path fill="none" stroke="rgb(204,190,0)" d="M 7904,6796 L 7904,6796 Z"/>
        <path fill="none" stroke="rgb(204,190,0)" d="M 8667,7559 L 8667,7559 Z"/>
        <path fill="rgb(204,190,0)" stroke="none" d="M 8284,6986 C 8392,6986 8474,7068 8474,7176 8474,7284 8392,7366 8284,7366 8176,7366 8094,7284 8094,7176 8094,7068 8176,6986 8284,6986 Z M 7904,6796 L 7904,6796 Z M 8667,7559 L 8667,7559 Z"/>
        <path fill="none" stroke="rgb(204,190,0)" d="M 8284,6986 C 8392,6986 8474,7068 8474,7176 8474,7284 8392,7366 8284,7366 8176,7366 8094,7284 8094,7176 8094,7068 8176,6986 8284,6986 Z"/>
        <path fill="none" stroke="rgb(204,190,0)" d="M 7904,6796 L 7904,6796 Z"/>
        <path fill="none" stroke="rgb(204,190,0)" d="M 8667,7559 L 8667,7559 Z"/>
       </g>
      </g>
      <g class="Group">
       <g class="com.sun.star.drawing.PolyPolygonShape">
        <g id="id15">
         <rect class="BoundingBox" stroke="none" fill="none" x="6920" y="7651" width="3476" height="439"/>
        </g>
       </g>
       <g class="com.sun.star.drawing.ClosedBezierShape">
        <g id="id16">
         <rect class="BoundingBox" stroke="none" fill="none" x="6933" y="7768" width="228" height="328"/>
         <path fill="rgb(0,0,0)" stroke="none" d="M 7030,7908 C 6986,7908 6986,7858 6986,7847 6986,7834 6987,7818 6994,7806 6998,7799 7010,7786 7030,7786 7072,7786 7072,7835 7072,7846 7072,7860 7072,7875 7065,7888 7060,7894 7049,7908 7030,7908 Z M 6972,7927 C 6972,7925 6972,7913 6980,7903 7000,7918 7020,7919 7030,7919 7076,7919 7109,7885 7109,7847 7109,7828 7101,7810 7089,7799 7107,7782 7125,7780 7134,7780 7135,7780 7137,7780 7138,7780 7133,7782 7131,7788 7131,7793 7131,7802 7137,7808 7145,7808 7150,7808 7160,7805 7160,7793 7160,7785 7153,7769 7134,7769 7124,7769 7103,7772 7081,7792 7061,7776 7040,7774 7030,7774 6984,7774 6949,7808 6949,7846 6949,7869 6960,7887 6973,7898 6966,7904 6957,7921 6957,7938 6957,7954 6964,7973 6979,7982 6949,7991 6933,8012 6933,8032 6933,8067 6983,8095 7043,8095 7101,8095 7153,8069 7153,8031 7153,8013 7145,7989 7121,7974 7094,7960 7066,7960 7035,7960 7023,7960 7002,7960 6998,7960 6983,7958 6972,7943 6972,7927 Z M 7043,8083 C 6993,8083 6959,8058 6959,8032 6959,8009 6978,7991 7000,7990 L 7029,7990 C 7071,7990 7127,7990 7127,8032 7127,8058 7091,8083 7043,8083 Z"/>
        </g>
       </g>
       <g class="com.sun.star.drawing.ClosedBezierShape">
        <g id="id17">
         <rect class="BoundingBox" stroke="none" fill="none" x="7181" y="7650" width="112" height="344"/>
         <path fill="rgb(0,0,0)" stroke="none" d="M 7253,7650 L 7181,7656 7181,7671 C 7216,7671 7220,7675 7220,7698 L 7220,7955 C 7220,7977 7215,7977 7181,7977 L 7181,7993 C 7198,7992 7224,7992 7236,7992 7248,7992 7273,7992 7292,7993 L 7292,7977 C 7258,7977 7253,7977 7253,7955 L 7253,7650 Z"/>
        </g>
       </g>
       <g class="com.sun.star.drawing.ClosedBezierShape">
        <g id="id18">
         <rect class="BoundingBox" stroke="none" fill="none" x="7315" y="7771" width="222" height="229"/>
         <path fill="rgb(0,0,0)" stroke="none" d="M 7535,7887 C 7535,7824 7485,7771 7425,7771 7364,7771 7315,7825 7315,7887 7315,7950 7367,7999 7425,7999 7485,7999 7535,7949 7535,7887 Z M 7425,7986 C 7404,7986 7383,7975 7369,7953 7357,7931 7357,7901 7357,7883 7357,7864 7357,7837 7368,7815 7382,7792 7405,7782 7425,7782 7447,7782 7468,7792 7480,7814 7494,7835 7494,7864 7494,7883 7494,7901 7494,7928 7482,7949 7472,7972 7450,7986 7425,7986 Z"/>
        </g>
       </g>
       <g class="com.sun.star.drawing.ClosedBezierShape">
        <g id="id19">
         <rect class="BoundingBox" stroke="none" fill="none" x="7560" y="7650" width="246" height="350"/>
         <path fill="rgb(0,0,0)" stroke="none" d="M 7632,7807 L 7632,7650 7561,7656 7561,7671 C 7596,7671 7599,7675 7599,7698 L 7599,7993 7611,7993 C 7612,7992 7616,7985 7629,7963 7637,7974 7658,7999 7694,7999 7753,7999 7805,7950 7805,7887 7805,7824 7756,7774 7700,7774 7662,7774 7640,7798 7632,7807 Z M 7634,7937 L 7634,7835 C 7634,7825 7634,7825 7639,7817 7658,7789 7685,7786 7697,7786 7720,7786 7738,7798 7749,7817 7762,7837 7764,7865 7764,7885 7764,7904 7762,7934 7748,7956 7738,7971 7719,7987 7692,7987 7671,7987 7653,7975 7640,7957 7634,7947 7634,7946 7634,7937 Z"/>
        </g>
       </g>
       <g class="com.sun.star.drawing.ClosedBezierShape">
        <g id="id20">
         <rect class="BoundingBox" stroke="none" fill="none" x="7839" y="7771" width="225" height="229"/>
         <path fill="rgb(0,0,0)" stroke="none" d="M 7983,7955 C 7985,7975 7999,7995 8022,7995 8032,7995 8063,7989 8063,7948 L 8063,7921 8050,7921 8050,7948 C 8050,7977 8038,7981 8032,7981 8017,7981 8014,7958 8014,7956 L 8014,7856 C 8014,7836 8014,7817 7997,7798 7978,7779 7953,7771 7928,7771 7888,7771 7854,7795 7854,7827 7854,7842 7864,7851 7877,7851 7890,7851 7899,7841 7899,7827 7899,7821 7897,7805 7874,7805 7888,7788 7911,7782 7928,7782 7952,7782 7980,7801 7980,7845 L 7980,7864 C 7955,7865 7920,7866 7889,7881 7852,7898 7840,7924 7840,7946 7840,7986 7888,7999 7919,7999 7952,7999 7974,7978 7983,7955 Z M 7980,7874 L 7980,7924 C 7980,7971 7945,7987 7923,7987 7898,7987 7878,7969 7878,7945 7878,7918 7899,7876 7980,7874 Z"/>
        </g>
       </g>
       <g class="com.sun.star.drawing.ClosedBezierShape">
        <g id="id21">
         <rect class="BoundingBox" stroke="none" fill="none" x="8080" y="7650" width="113" height="344"/>
         <path fill="rgb(0,0,0)" stroke="none" d="M 8152,7650 L 8081,7656 8081,7671 C 8115,7671 8120,7675 8120,7698 L 8120,7955 C 8120,7977 8114,7977 8081,7977 L 8081,7993 C 8097,7992 8123,7992 8135,7992 8148,7992 8172,7992 8191,7993 L 8191,7977 C 8158,7977 8152,7977 8152,7955 L 8152,7650 Z"/>
        </g>
       </g>
       <g class="com.sun.star.drawing.ClosedBezierShape">
        <g id="id22">
         <rect class="BoundingBox" stroke="none" fill="none" x="8379" y="7774" width="388" height="220"/>
         <path fill="rgb(0,0,0)" stroke="none" d="M 8418,7823 L 8418,7956 C 8418,7977 8413,7977 8380,7977 L 8380,7993 C 8396,7993 8422,7992 8436,7992 8448,7992 8474,7993 8491,7993 L 8491,7977 C 8458,7977 8452,7977 8452,7956 L 8452,7864 C 8452,7813 8487,7786 8519,7786 8550,7786 8556,7813 8556,7841 L 8556,7956 C 8556,7977 8550,7977 8517,7977 L 8517,7993 C 8534,7993 8559,7992 8572,7992 8586,7992 8612,7993 8628,7993 L 8628,7977 C 8595,7977 8589,7977 8589,7956 L 8589,7864 C 8589,7813 8625,7786 8656,7786 8688,7786 8692,7813 8692,7841 L 8692,7956 C 8692,7977 8688,7977 8654,7977 L 8654,7993 C 8671,7993 8697,7992 8710,7992 8722,7992 8748,7993 8765,7993 L 8765,7977 C 8739,7977 8727,7977 8727,7963 L 8727,7869 C 8727,7826 8727,7810 8711,7792 8705,7785 8688,7774 8660,7774 8618,7774 8596,7804 8588,7823 8581,7780 8544,7774 8522,7774 8486,7774 8463,7796 8449,7826 L 8449,7774 8380,7780 8380,7796 C 8414,7796 8418,7799 8418,7823 Z"/>
        </g>
       </g>
       <g class="com.sun.star.drawing.ClosedBezierShape">
        <g id="id23">
         <rect class="BoundingBox" stroke="none" fill="none" x="8789" y="7662" width="109" height="332"/>
         <path fill="rgb(0,0,0)" stroke="none" d="M 8861,7774 L 8792,7780 8792,7796 C 8824,7796 8829,7798 8829,7823 L 8829,7955 C 8829,7977 8823,7977 8790,7977 L 8790,7993 C 8805,7992 8832,7992 8845,7992 8861,7992 8879,7992 8896,7993 L 8896,7977 C 8864,7977 8861,7975 8861,7956 L 8861,7774 Z M 8864,7688 C 8864,7672 8851,7662 8837,7662 8821,7662 8811,7676 8811,7688 8811,7702 8821,7715 8837,7715 8851,7715 8864,7704 8864,7688 Z"/>
        </g>
       </g>
       <g class="com.sun.star.drawing.ClosedBezierShape">
        <g id="id24">
         <rect class="BoundingBox" stroke="none" fill="none" x="8925" y="7774" width="250" height="220"/>
         <path fill="rgb(0,0,0)" stroke="none" d="M 8963,7823 L 8963,7956 C 8963,7977 8959,7977 8925,7977 L 8925,7993 C 8942,7993 8968,7992 8981,7992 8994,7992 9019,7993 9036,7993 L 9036,7977 C 9004,7977 8998,7977 8998,7956 L 8998,7864 C 8998,7813 9033,7786 9064,7786 9096,7786 9101,7813 9101,7841 L 9101,7956 C 9101,7977 9096,7977 9063,7977 L 9063,7993 C 9080,7993 9106,7992 9119,7992 9131,7992 9157,7993 9174,7993 L 9174,7977 C 9148,7977 9136,7977 9136,7963 L 9136,7869 C 9136,7826 9136,7810 9120,7792 9113,7785 9097,7774 9069,7774 9032,7774 9009,7796 8995,7826 L 8995,7774 8925,7780 8925,7796 C 8960,7796 8963,7799 8963,7823 Z"/>
        </g>
       </g>
       <g class="com.sun.star.drawing.ClosedBezierShape">
        <g id="id25">
         <rect class="BoundingBox" stroke="none" fill="none" x="9197" y="7662" width="108" height="332"/>
         <path fill="rgb(0,0,0)" stroke="none" d="M 9269,7774 L 9200,7780 9200,7796 C 9232,7796 9237,7798 9237,7823 L 9237,7955 C 9237,7977 9231,7977 9197,7977 L 9197,7993 C 9213,7992 9240,7992 9252,7992 9269,7992 9287,7992 9304,7993 L 9304,7977 C 9271,7977 9269,7975 9269,7956 L 9269,7774 Z M 9271,7688 C 9271,7672 9259,7662 9245,7662 9229,7662 9219,7676 9219,7688 9219,7702 9229,7715 9245,7715 9259,7715 9271,7704 9271,7688 Z"/>
        </g>
       </g>
       <g class="com.sun.star.drawing.ClosedBezierShape">
        <g id="id26">
         <rect class="BoundingBox" stroke="none" fill="none" x="9333" y="7774" width="387" height="220"/>
         <path fill="rgb(0,0,0)" stroke="none" d="M 9371,7823 L 9371,7956 C 9371,7977 9365,7977 9333,7977 L 9333,7993 C 9350,7993 9376,7992 9389,7992 9401,7992 9427,7993 9444,7993 L 9444,7977 C 9411,7977 9406,7977 9406,7956 L 9406,7864 C 9406,7813 9441,7786 9472,7786 9503,7786 9509,7813 9509,7841 L 9509,7956 C 9509,7977 9503,7977 9471,7977 L 9471,7993 C 9488,7993 9512,7992 9526,7992 9539,7992 9565,7993 9582,7993 L 9582,7977 C 9548,7977 9542,7977 9542,7956 L 9542,7864 C 9542,7813 9578,7786 9610,7786 9641,7786 9646,7813 9646,7841 L 9646,7956 C 9646,7977 9641,7977 9607,7977 L 9607,7993 C 9624,7993 9650,7992 9663,7992 9676,7992 9702,7993 9718,7993 L 9718,7977 C 9693,7977 9680,7977 9680,7963 L 9680,7869 C 9680,7826 9680,7810 9665,7792 9658,7785 9641,7774 9613,7774 9572,7774 9549,7804 9541,7823 9535,7780 9498,7774 9475,7774 9439,7774 9416,7796 9402,7826 L 9402,7774 9333,7780 9333,7796 C 9368,7796 9371,7799 9371,7823 Z"/>
        </g>
       </g>
       <g class="com.sun.star.drawing.ClosedBezierShape">
        <g id="id27">
         <rect class="BoundingBox" stroke="none" fill="none" x="9728" y="7774" width="251" height="226"/>
         <path fill="rgb(0,0,0)" stroke="none" d="M 9905,7954 L 9905,7999 9977,7993 9977,7977 C 9942,7977 9939,7974 9939,7950 L 9939,7774 9866,7780 9866,7796 C 9901,7796 9904,7799 9904,7823 L 9904,7911 C 9904,7954 9881,7987 9845,7987 9804,7987 9801,7965 9801,7939 L 9801,7774 9728,7780 9728,7796 C 9767,7796 9767,7797 9767,7841 L 9767,7915 C 9767,7954 9767,7999 9843,7999 9870,7999 9892,7985 9905,7954 Z"/>
        </g>
       </g>
       <g class="com.sun.star.drawing.ClosedBezierShape">
        <g id="id28">
         <rect class="BoundingBox" stroke="none" fill="none" x="10000" y="7774" width="388" height="220"/>
         <path fill="rgb(0,0,0)" stroke="none" d="M 10039,7823 L 10039,7956 C 10039,7977 10033,7977 10001,7977 L 10001,7993 C 10017,7993 10043,7992 10057,7992 10069,7992 10095,7993 10112,7993 L 10112,7977 C 10079,7977 10073,7977 10073,7956 L 10073,7864 C 10073,7813 10108,7786 10140,7786 10171,7786 10177,7813 10177,7841 L 10177,7956 C 10177,7977 10171,7977 10137,7977 L 10137,7993 C 10155,7993 10180,7992 10193,7992 10207,7992 10233,7993 10249,7993 L 10249,7977 C 10216,7977 10210,7977 10210,7956 L 10210,7864 C 10210,7813 10246,7786 10277,7786 10308,7786 10313,7813 10313,7841 L 10313,7956 C 10313,7977 10308,7977 10275,7977 L 10275,7993 C 10292,7993 10318,7992 10331,7992 10343,7992 10369,7993 10386,7993 L 10386,7977 C 10360,7977 10348,7977 10348,7963 L 10348,7869 C 10348,7826 10348,7810 10332,7792 10326,7785 10309,7774 10281,7774 10239,7774 10217,7804 10209,7823 10202,7780 10165,7774 10143,7774 10107,7774 10084,7796 10070,7826 L 10070,7774 10001,7780 10001,7796 C 10035,7796 10039,7799 10039,7823 Z"/>
        </g>
       </g>
      </g>
      <g class="Group">
       <g class="com.sun.star.drawing.PolyPolygonShape">
        <g id="id29">
         <rect class="BoundingBox" stroke="none" fill="none" x="2396" y="556" width="3572" height="439"/>
        </g>
       </g>
       <g class="com.sun.star.drawing.ClosedBezierShape">
        <g id="id30">
         <rect class="BoundingBox" stroke="none" fill="none" x="2410" y="673" width="228" height="328"/>
         <path fill="rgb(0,0,0)" stroke="none" d="M 2507,813 C 2463,813 2463,763 2463,752 2463,739 2464,723 2471,711 2475,704 2487,691 2507,691 2549,691 2549,740 2549,751 2549,765 2549,780 2542,793 2537,799 2526,813 2507,813 Z M 2449,832 C 2449,830 2449,818 2457,808 2477,823 2497,824 2507,824 2553,824 2586,790 2586,752 2586,733 2578,715 2566,704 2584,687 2602,685 2611,685 2612,685 2614,685 2615,685 2610,687 2608,693 2608,698 2608,707 2614,713 2622,713 2627,713 2637,710 2637,698 2637,690 2630,674 2611,674 2601,674 2580,677 2558,697 2538,681 2517,679 2507,679 2461,679 2426,713 2426,751 2426,774 2437,792 2450,803 2443,809 2434,826 2434,843 2434,859 2441,878 2456,887 2426,896 2410,917 2410,937 2410,972 2460,1000 2520,1000 2578,1000 2630,974 2630,936 2630,918 2622,894 2598,879 2571,865 2543,865 2512,865 2500,865 2479,865 2475,865 2460,863 2449,848 2449,832 Z M 2520,988 C 2470,988 2436,963 2436,937 2436,914 2455,896 2477,895 L 2506,895 C 2548,895 2604,895 2604,937 2604,963 2568,988 2520,988 Z"/>
        </g>
       </g>
       <g class="com.sun.star.drawing.ClosedBezierShape">
        <g id="id31">
         <rect class="BoundingBox" stroke="none" fill="none" x="2658" y="554" width="112" height="345"/>
         <path fill="rgb(0,0,0)" stroke="none" d="M 2730,555 L 2658,561 2658,576 C 2693,576 2697,580 2697,603 L 2697,860 C 2697,882 2692,882 2658,882 L 2658,898 C 2675,897 2701,897 2713,897 2725,897 2750,897 2769,898 L 2769,882 C 2735,882 2730,882 2730,860 L 2730,555 Z"/>
        </g>
       </g>
       <g class="com.sun.star.drawing.ClosedBezierShape">
        <g id="id32">
         <rect class="BoundingBox" stroke="none" fill="none" x="2792" y="676" width="221" height="229"/>
         <path fill="rgb(0,0,0)" stroke="none" d="M 3012,792 C 3012,729 2962,676 2902,676 2841,676 2792,730 2792,792 2792,855 2844,904 2902,904 2962,904 3012,854 3012,792 Z M 2902,891 C 2881,891 2860,880 2846,858 2834,836 2834,806 2834,788 2834,769 2834,742 2845,720 2859,697 2882,687 2902,687 2923,687 2945,697 2957,719 2971,740 2971,769 2971,788 2971,806 2971,833 2959,854 2949,877 2927,891 2902,891 Z"/>
        </g>
       </g>
       <g class="com.sun.star.drawing.ClosedBezierShape">
        <g id="id33">
         <rect class="BoundingBox" stroke="none" fill="none" x="3037" y="555" width="246" height="350"/>
         <path fill="rgb(0,0,0)" stroke="none" d="M 3109,712 L 3109,555 3038,561 3038,576 C 3072,576 3076,580 3076,603 L 3076,898 3088,898 C 3089,897 3093,890 3106,868 3114,879 3135,904 3171,904 3230,904 3282,855 3282,792 3282,729 3233,679 3177,679 3139,679 3117,703 3109,712 Z M 3111,842 L 3111,740 C 3111,730 3111,730 3116,722 3135,694 3162,691 3174,691 3197,691 3215,703 3226,722 3239,742 3240,770 3240,790 3240,809 3239,839 3225,861 3215,876 3196,892 3169,892 3148,892 3130,880 3117,862 3111,852 3111,851 3111,842 Z"/>
        </g>
       </g>
       <g class="com.sun.star.drawing.ClosedBezierShape">
        <g id="id34">
         <rect class="BoundingBox" stroke="none" fill="none" x="3316" y="676" width="225" height="229"/>
         <path fill="rgb(0,0,0)" stroke="none" d="M 3460,860 C 3462,880 3476,900 3499,900 3509,900 3540,894 3540,853 L 3540,826 3527,826 3527,853 C 3527,882 3515,886 3509,886 3494,886 3491,863 3491,861 L 3491,761 C 3491,741 3491,722 3473,703 3454,684 3430,676 3405,676 3365,676 3331,700 3331,732 3331,747 3341,756 3354,756 3367,756 3376,746 3376,732 3376,726 3374,710 3351,710 3365,693 3388,687 3405,687 3429,687 3457,706 3457,750 L 3457,769 C 3432,770 3397,771 3366,786 3329,803 3317,829 3317,851 3317,891 3365,904 3396,904 3429,904 3451,883 3460,860 Z M 3457,779 L 3457,829 C 3457,876 3422,892 3400,892 3375,892 3355,874 3355,850 3355,823 3376,781 3457,779 Z"/>
        </g>
       </g>
       <g class="com.sun.star.drawing.ClosedBezierShape">
        <g id="id35">
         <rect class="BoundingBox" stroke="none" fill="none" x="3557" y="554" width="113" height="345"/>
         <path fill="rgb(0,0,0)" stroke="none" d="M 3629,555 L 3558,561 3558,576 C 3592,576 3597,580 3597,603 L 3597,860 C 3597,882 3591,882 3558,882 L 3558,898 C 3574,897 3600,897 3612,897 3625,897 3649,897 3668,898 L 3668,882 C 3635,882 3629,882 3629,860 L 3629,555 Z"/>
        </g>
       </g>
       <g class="com.sun.star.drawing.ClosedBezierShape">
        <g id="id36">
         <rect class="BoundingBox" stroke="none" fill="none" x="3856" y="679" width="387" height="220"/>
         <path fill="rgb(0,0,0)" stroke="none" d="M 3895,728 L 3895,861 C 3895,882 3890,882 3857,882 L 3857,898 C 3873,898 3899,897 3913,897 3925,897 3951,898 3967,898 L 3967,882 C 3935,882 3929,882 3929,861 L 3929,769 C 3929,718 3964,691 3995,691 4027,691 4032,718 4032,746 L 4032,861 C 4032,882 4027,882 3994,882 L 3994,898 C 4011,898 4036,897 4049,897 4063,897 4088,898 4105,898 L 4105,882 C 4072,882 4066,882 4066,861 L 4066,769 C 4066,718 4102,691 4133,691 4165,691 4169,718 4169,746 L 4169,861 C 4169,882 4165,882 4131,882 L 4131,898 C 4148,898 4174,897 4187,897 4199,897 4225,898 4242,898 L 4242,882 C 4216,882 4204,882 4204,868 L 4204,774 C 4204,731 4204,715 4188,697 4181,690 4165,679 4137,679 4095,679 4073,709 4065,728 4058,685 4021,679 3999,679 3963,679 3939,701 3926,731 L 3926,679 3857,685 3857,701 C 3891,701 3895,704 3895,728 Z"/>
        </g>
       </g>
       <g class="com.sun.star.drawing.ClosedBezierShape">
        <g id="id37">
         <rect class="BoundingBox" stroke="none" fill="none" x="4269" y="676" width="225" height="229"/>
         <path fill="rgb(0,0,0)" stroke="none" d="M 4413,860 C 4416,880 4429,900 4453,900 4463,900 4493,894 4493,853 L 4493,826 4481,826 4481,853 C 4481,882 4468,886 4463,886 4447,886 4445,863 4445,861 L 4445,761 C 4445,741 4445,722 4427,703 4408,684 4383,676 4360,676 4318,676 4284,700 4284,732 4284,747 4295,756 4307,756 4320,756 4329,746 4329,732 4329,726 4327,710 4305,710 4318,693 4342,687 4358,687 4382,687 4410,706 4410,750 L 4410,769 C 4385,770 4351,771 4319,786 4282,803 4270,829 4270,851 4270,891 4318,904 4349,904 4382,904 4404,883 4413,860 Z M 4410,779 L 4410,829 C 4410,876 4375,892 4353,892 4328,892 4308,874 4308,850 4308,823 4329,781 4410,779 Z"/>
        </g>
       </g>
       <g class="com.sun.star.drawing.ClosedBezierShape">
        <g id="id38">
         <rect class="BoundingBox" stroke="none" fill="none" x="4500" y="685" width="251" height="214"/>
         <path fill="rgb(0,0,0)" stroke="none" d="M 4636,783 C 4652,763 4670,739 4682,726 4698,709 4718,701 4740,701 L 4740,685 C 4728,686 4714,686 4700,686 4686,686 4660,685 4653,685 L 4653,701 C 4663,702 4668,707 4668,715 4668,723 4662,730 4660,733 L 4630,771 4590,722 C 4586,716 4586,715 4586,713 4586,705 4594,701 4604,701 L 4604,685 C 4590,685 4558,686 4550,686 4540,686 4516,686 4503,685 L 4503,701 C 4538,701 4539,701 4561,731 L 4610,795 4563,853 C 4540,882 4511,883 4501,883 L 4501,898 C 4513,897 4529,897 4542,897 4556,897 4577,898 4589,898 L 4589,883 C 4578,881 4575,876 4575,868 4575,857 4589,841 4618,805 L 4656,854 C 4661,860 4666,868 4666,871 4666,876 4662,882 4649,883 L 4649,898 C 4664,898 4691,897 4702,897 4716,897 4735,897 4749,898 L 4749,883 C 4724,883 4715,882 4703,868 L 4636,783 Z"/>
        </g>
       </g>
       <g class="com.sun.star.drawing.ClosedBezierShape">
        <g id="id39">
         <rect class="BoundingBox" stroke="none" fill="none" x="4769" y="567" width="108" height="332"/>
         <path fill="rgb(0,0,0)" stroke="none" d="M 4841,679 L 4772,685 4772,701 C 4804,701 4809,703 4809,728 L 4809,860 C 4809,882 4803,882 4770,882 L 4770,898 C 4785,897 4812,897 4824,897 4841,897 4859,897 4876,898 L 4876,882 C 4843,882 4841,880 4841,861 L 4841,679 Z M 4843,593 C 4843,577 4831,567 4817,567 4801,567 4791,581 4791,593 4791,607 4801,620 4817,620 4831,620 4843,609 4843,593 Z"/>
        </g>
       </g>
       <g class="com.sun.star.drawing.ClosedBezierShape">
        <g id="id40">
         <rect class="BoundingBox" stroke="none" fill="none" x="4906" y="679" width="387" height="220"/>
         <path fill="rgb(0,0,0)" stroke="none" d="M 4944,728 L 4944,861 C 4944,882 4939,882 4906,882 L 4906,898 C 4923,898 4949,897 4962,897 4975,897 5000,898 5017,898 L 5017,882 C 4985,882 4979,882 4979,861 L 4979,769 C 4979,718 5014,691 5045,691 5076,691 5082,718 5082,746 L 5082,861 C 5082,882 5076,882 5044,882 L 5044,898 C 5061,898 5085,897 5099,897 5112,897 5138,898 5155,898 L 5155,882 C 5121,882 5116,882 5116,861 L 5116,769 C 5116,718 5152,691 5183,691 5214,691 5219,718 5219,746 L 5219,861 C 5219,882 5214,882 5181,882 L 5181,898 C 5197,898 5223,897 5237,897 5249,897 5275,898 5292,898 L 5292,882 C 5266,882 5253,882 5253,868 L 5253,774 C 5253,731 5253,715 5238,697 5231,690 5214,679 5186,679 5145,679 5122,709 5115,728 5108,685 5071,679 5048,679 5013,679 4989,701 4976,731 L 4976,679 4906,685 4906,701 C 4941,701 4944,704 4944,728 Z"/>
        </g>
       </g>
       <g class="com.sun.star.drawing.ClosedBezierShape">
        <g id="id41">
         <rect class="BoundingBox" stroke="none" fill="none" x="5300" y="679" width="251" height="226"/>
         <path fill="rgb(0,0,0)" stroke="none" d="M 5477,859 L 5477,904 5549,898 5549,882 C 5514,882 5511,879 5511,855 L 5511,679 5438,685 5438,701 C 5473,701 5476,704 5476,728 L 5476,816 C 5476,859 5453,892 5417,892 5376,892 5373,870 5373,844 L 5373,679 5300,685 5300,701 C 5339,701 5339,702 5339,746 L 5339,820 C 5339,859 5339,904 5415,904 5442,904 5464,890 5477,859 Z"/>
        </g>
       </g>
       <g class="com.sun.star.drawing.ClosedBezierShape">
        <g id="id42">
         <rect class="BoundingBox" stroke="none" fill="none" x="5572" y="679" width="388" height="220"/>
         <path fill="rgb(0,0,0)" stroke="none" d="M 5611,728 L 5611,861 C 5611,882 5605,882 5573,882 L 5573,898 C 5590,898 5615,897 5629,897 5641,897 5667,898 5684,898 L 5684,882 C 5651,882 5646,882 5646,861 L 5646,769 C 5646,718 5680,691 5712,691 5743,691 5749,718 5749,746 L 5749,861 C 5749,882 5743,882 5709,882 L 5709,898 C 5727,898 5752,897 5765,897 5779,897 5805,898 5821,898 L 5821,882 C 5788,882 5782,882 5782,861 L 5782,769 C 5782,718 5818,691 5849,691 5880,691 5885,718 5885,746 L 5885,861 C 5885,882 5880,882 5847,882 L 5847,898 C 5864,898 5890,897 5903,897 5915,897 5941,898 5958,898 L 5958,882 C 5932,882 5920,882 5920,868 L 5920,774 C 5920,731 5920,715 5904,697 5898,690 5881,679 5853,679 5811,679 5789,709 5781,728 5774,685 5737,679 5715,679 5679,679 5656,701 5642,731 L 5642,679 5573,685 5573,701 C 5607,701 5611,704 5611,728 Z"/>
        </g>
       </g>
      </g>
      <g class="Group">
       <g class="com.sun.star.drawing.PolyPolygonShape">
        <g id="id43">
         <rect class="BoundingBox" stroke="none" fill="none" x="4810" y="3093" width="3285" height="344"/>
        </g>
       </g>
       <g class="com.sun.star.drawing.ClosedBezierShape">
        <g id="id44">
         <rect class="BoundingBox" stroke="none" fill="none" x="4825" y="3092" width="113" height="345"/>
         <path fill="rgb(0,0,0)" stroke="none" d="M 4897,3092 L 4826,3098 4826,3113 C 4860,3113 4865,3117 4865,3140 L 4865,3397 C 4865,3420 4859,3420 4826,3420 L 4826,3435 C 4842,3434 4868,3434 4881,3434 4893,3434 4918,3434 4937,3435 L 4937,3420 C 4903,3420 4897,3420 4897,3397 L 4897,3092 Z"/>
        </g>
       </g>
       <g class="com.sun.star.drawing.ClosedBezierShape">
        <g id="id45">
         <rect class="BoundingBox" stroke="none" fill="none" x="4960" y="3213" width="221" height="230"/>
         <path fill="rgb(0,0,0)" stroke="none" d="M 5180,3329 C 5180,3266 5129,3213 5070,3213 5008,3213 4960,3267 4960,3329 4960,3393 5012,3441 5070,3441 5129,3441 5180,3392 5180,3329 Z M 5070,3429 C 5049,3429 5027,3417 5014,3395 5002,3374 5002,3343 5002,3325 5002,3306 5002,3279 5013,3257 5026,3235 5050,3224 5070,3224 5091,3224 5112,3235 5125,3256 5138,3277 5138,3306 5138,3325 5138,3343 5138,3370 5127,3392 5117,3414 5094,3429 5070,3429 Z"/>
        </g>
       </g>
       <g class="com.sun.star.drawing.ClosedBezierShape">
        <g id="id46">
         <rect class="BoundingBox" stroke="none" fill="none" x="5222" y="3213" width="190" height="230"/>
         <path fill="rgb(0,0,0)" stroke="none" d="M 5264,3328 C 5264,3247 5304,3226 5330,3226 5334,3226 5366,3226 5383,3243 5363,3246 5360,3260 5360,3267 5360,3279 5369,3290 5382,3290 5396,3290 5406,3281 5406,3266 5406,3232 5368,3213 5330,3213 5268,3213 5222,3267 5222,3328 5222,3392 5271,3441 5329,3441 5395,3441 5410,3382 5410,3376 5410,3371 5406,3371 5405,3371 5400,3371 5399,3374 5398,3376 5383,3422 5351,3429 5333,3429 5307,3429 5264,3407 5264,3328 Z"/>
        </g>
       </g>
       <g class="com.sun.star.drawing.ClosedBezierShape">
        <g id="id47">
         <rect class="BoundingBox" stroke="none" fill="none" x="5443" y="3213" width="225" height="230"/>
         <path fill="rgb(0,0,0)" stroke="none" d="M 5587,3397 C 5590,3417 5603,3438 5627,3438 5637,3438 5667,3431 5667,3391 L 5667,3364 5655,3364 5655,3391 C 5655,3420 5642,3423 5637,3423 5621,3423 5619,3401 5619,3398 L 5619,3298 C 5619,3278 5619,3259 5601,3240 5582,3221 5557,3213 5532,3213 5492,3213 5459,3237 5459,3269 5459,3284 5469,3293 5481,3293 5494,3293 5503,3283 5503,3269 5503,3264 5501,3247 5479,3247 5492,3230 5516,3224 5532,3224 5556,3224 5584,3243 5584,3287 L 5584,3306 C 5559,3307 5525,3309 5493,3323 5456,3340 5444,3366 5444,3388 5444,3429 5492,3441 5523,3441 5556,3441 5578,3421 5587,3397 Z M 5584,3316 L 5584,3366 C 5584,3413 5549,3430 5527,3430 5502,3430 5482,3412 5482,3387 5482,3360 5503,3319 5584,3316 Z"/>
        </g>
       </g>
       <g class="com.sun.star.drawing.ClosedBezierShape">
        <g id="id48">
         <rect class="BoundingBox" stroke="none" fill="none" x="5683" y="3092" width="113" height="345"/>
         <path fill="rgb(0,0,0)" stroke="none" d="M 5755,3092 L 5684,3098 5684,3113 C 5718,3113 5723,3117 5723,3140 L 5723,3397 C 5723,3420 5717,3420 5684,3420 L 5684,3435 C 5700,3434 5726,3434 5739,3434 5751,3434 5775,3434 5795,3435 L 5795,3420 C 5761,3420 5755,3420 5755,3397 L 5755,3092 Z"/>
        </g>
       </g>
       <g class="com.sun.star.drawing.ClosedBezierShape">
        <g id="id49">
         <rect class="BoundingBox" stroke="none" fill="none" x="5983" y="3216" width="388" height="221"/>
         <path fill="rgb(0,0,0)" stroke="none" d="M 6022,3265 L 6022,3398 C 6022,3420 6016,3420 5984,3420 L 5984,3435 C 6001,3435 6026,3434 6040,3434 6052,3434 6078,3435 6095,3435 L 6095,3420 C 6062,3420 6057,3420 6057,3398 L 6057,3306 C 6057,3255 6091,3228 6123,3228 6154,3228 6160,3255 6160,3283 L 6160,3398 C 6160,3420 6154,3420 6120,3420 L 6120,3435 C 6138,3435 6163,3434 6176,3434 6190,3434 6216,3435 6232,3435 L 6232,3420 C 6199,3420 6193,3420 6193,3398 L 6193,3306 C 6193,3255 6229,3228 6260,3228 6291,3228 6296,3255 6296,3283 L 6296,3398 C 6296,3420 6291,3420 6258,3420 L 6258,3435 C 6275,3435 6301,3434 6314,3434 6327,3434 6352,3435 6369,3435 L 6369,3420 C 6343,3420 6331,3420 6331,3405 L 6331,3311 C 6331,3268 6331,3252 6315,3235 6309,3227 6292,3217 6264,3217 6222,3217 6200,3246 6192,3265 6185,3222 6148,3217 6126,3217 6090,3217 6067,3238 6053,3268 L 6053,3217 5984,3222 5984,3238 C 6019,3238 6022,3241 6022,3265 Z"/>
        </g>
       </g>
       <g class="com.sun.star.drawing.ClosedBezierShape">
        <g id="id50">
         <rect class="BoundingBox" stroke="none" fill="none" x="6397" y="3213" width="225" height="230"/>
         <path fill="rgb(0,0,0)" stroke="none" d="M 6542,3397 C 6543,3417 6556,3438 6580,3438 6590,3438 6620,3431 6620,3391 L 6620,3364 6608,3364 6608,3391 C 6608,3420 6595,3423 6590,3423 6574,3423 6572,3401 6572,3398 L 6572,3298 C 6572,3278 6572,3259 6554,3240 6535,3221 6510,3213 6487,3213 6445,3213 6412,3237 6412,3269 6412,3284 6422,3293 6434,3293 6449,3293 6456,3283 6456,3269 6456,3264 6454,3247 6432,3247 6445,3230 6469,3224 6486,3224 6509,3224 6537,3243 6537,3287 L 6537,3306 C 6512,3307 6478,3309 6446,3323 6409,3340 6397,3366 6397,3388 6397,3429 6445,3441 6477,3441 6509,3441 6532,3421 6542,3397 Z M 6537,3316 L 6537,3366 C 6537,3413 6502,3430 6480,3430 6455,3430 6435,3412 6435,3387 6435,3360 6456,3319 6537,3316 Z"/>
        </g>
       </g>
       <g class="com.sun.star.drawing.ClosedBezierShape">
        <g id="id51">
         <rect class="BoundingBox" stroke="none" fill="none" x="6627" y="3222" width="251" height="215"/>
         <path fill="rgb(0,0,0)" stroke="none" d="M 6763,3320 C 6779,3301 6797,3276 6809,3264 6825,3246 6845,3238 6868,3238 L 6868,3222 C 6855,3223 6841,3223 6827,3223 6813,3223 6787,3222 6780,3222 L 6780,3238 C 6790,3239 6795,3245 6795,3252 6795,3260 6789,3267 6787,3270 L 6757,3309 6717,3259 C 6713,3254 6713,3252 6713,3250 6713,3242 6721,3238 6731,3238 L 6731,3222 C 6717,3222 6685,3223 6677,3223 6667,3223 6644,3223 6630,3222 L 6630,3238 C 6665,3238 6666,3238 6688,3268 L 6738,3332 6692,3391 C 6667,3420 6638,3421 6628,3421 L 6628,3435 C 6640,3434 6656,3434 6669,3434 6683,3434 6704,3435 6716,3435 L 6716,3421 C 6705,3419 6702,3413 6702,3405 6702,3394 6716,3378 6745,3342 L 6784,3392 C 6788,3397 6794,3405 6794,3408 6794,3413 6789,3420 6776,3421 L 6776,3435 C 6791,3435 6818,3434 6829,3434 6843,3434 6862,3434 6877,3435 L 6877,3421 C 6851,3421 6842,3420 6831,3405 L 6763,3320 Z"/>
        </g>
       </g>
       <g class="com.sun.star.drawing.ClosedBezierShape">
        <g id="id52">
         <rect class="BoundingBox" stroke="none" fill="none" x="6896" y="3104" width="109" height="333"/>
         <path fill="rgb(0,0,0)" stroke="none" d="M 6968,3217 L 6899,3222 6899,3238 C 6931,3238 6936,3240 6936,3265 L 6936,3397 C 6936,3420 6930,3420 6897,3420 L 6897,3435 C 6912,3434 6939,3434 6952,3434 6968,3434 6986,3434 7003,3435 L 7003,3420 C 6971,3420 6968,3417 6968,3398 L 6968,3217 Z M 6971,3130 C 6971,3114 6958,3104 6944,3104 6928,3104 6918,3118 6918,3130 6918,3144 6928,3157 6944,3157 6958,3157 6971,3146 6971,3130 Z"/>
        </g>
       </g>
       <g class="com.sun.star.drawing.ClosedBezierShape">
        <g id="id53">
         <rect class="BoundingBox" stroke="none" fill="none" x="7032" y="3216" width="387" height="221"/>
         <path fill="rgb(0,0,0)" stroke="none" d="M 7070,3265 L 7070,3398 C 7070,3420 7066,3420 7032,3420 L 7032,3435 C 7049,3435 7075,3434 7088,3434 7101,3434 7126,3435 7143,3435 L 7143,3420 C 7111,3420 7105,3420 7105,3398 L 7105,3306 C 7105,3255 7140,3228 7171,3228 7202,3228 7208,3255 7208,3283 L 7208,3398 C 7208,3420 7202,3420 7170,3420 L 7170,3435 C 7187,3435 7211,3434 7225,3434 7238,3434 7264,3435 7281,3435 L 7281,3420 C 7247,3420 7242,3420 7242,3398 L 7242,3306 C 7242,3255 7277,3228 7309,3228 7340,3228 7345,3255 7345,3283 L 7345,3398 C 7345,3420 7340,3420 7307,3420 L 7307,3435 C 7323,3435 7349,3434 7363,3434 7375,3434 7401,3435 7417,3435 L 7417,3420 C 7392,3420 7379,3420 7379,3405 L 7379,3311 C 7379,3268 7379,3252 7364,3235 7357,3227 7340,3217 7312,3217 7271,3217 7248,3246 7241,3265 7234,3222 7197,3217 7174,3217 7139,3217 7115,3238 7102,3268 L 7102,3217 7032,3222 7032,3238 C 7067,3238 7070,3241 7070,3265 Z"/>
        </g>
       </g>
       <g class="com.sun.star.drawing.ClosedBezierShape">
        <g id="id54">
         <rect class="BoundingBox" stroke="none" fill="none" x="7427" y="3216" width="251" height="226"/>
         <path fill="rgb(0,0,0)" stroke="none" d="M 7605,3396 L 7605,3441 7676,3435 7676,3420 C 7641,3420 7638,3416 7638,3393 L 7638,3217 7565,3222 7565,3238 C 7600,3238 7603,3241 7603,3265 L 7603,3353 C 7603,3396 7580,3430 7544,3430 7503,3430 7500,3407 7500,3382 L 7500,3217 7428,3222 7428,3238 C 7466,3238 7466,3239 7466,3283 L 7466,3357 C 7466,3396 7466,3441 7541,3441 7569,3441 7591,3428 7605,3396 Z"/>
        </g>
       </g>
       <g class="com.sun.star.drawing.ClosedBezierShape">
        <g id="id55">
         <rect class="BoundingBox" stroke="none" fill="none" x="7699" y="3216" width="388" height="221"/>
         <path fill="rgb(0,0,0)" stroke="none" d="M 7738,3265 L 7738,3398 C 7738,3420 7732,3420 7700,3420 L 7700,3435 C 7717,3435 7742,3434 7756,3434 7768,3434 7794,3435 7811,3435 L 7811,3420 C 7778,3420 7773,3420 7773,3398 L 7773,3306 C 7773,3255 7807,3228 7839,3228 7870,3228 7876,3255 7876,3283 L 7876,3398 C 7876,3420 7870,3420 7836,3420 L 7836,3435 C 7854,3435 7879,3434 7892,3434 7906,3434 7932,3435 7948,3435 L 7948,3420 C 7915,3420 7909,3420 7909,3398 L 7909,3306 C 7909,3255 7945,3228 7976,3228 8007,3228 8012,3255 8012,3283 L 8012,3398 C 8012,3420 8007,3420 7974,3420 L 7974,3435 C 7991,3435 8017,3434 8030,3434 8042,3434 8068,3435 8085,3435 L 8085,3420 C 8059,3420 8047,3420 8047,3405 L 8047,3311 C 8047,3268 8047,3252 8031,3235 8025,3227 8008,3217 7980,3217 7938,3217 7916,3246 7908,3265 7901,3222 7864,3217 7842,3217 7806,3217 7783,3238 7769,3268 L 7769,3217 7700,3222 7700,3238 C 7734,3238 7738,3241 7738,3265 Z"/>
        </g>
       </g>
      </g>
      <g class="Group">
       <g class="com.sun.star.drawing.PolyPolygonShape">
        <g id="id56">
         <rect class="BoundingBox" stroke="none" fill="none" x="2396" y="4812" width="3190" height="344"/>
        </g>
       </g>
       <g class="com.sun.star.drawing.ClosedBezierShape">
        <g id="id57">
         <rect class="BoundingBox" stroke="none" fill="none" x="2412" y="4811" width="113" height="345"/>
         <path fill="rgb(0,0,0)" stroke="none" d="M 2484,4811 L 2413,4817 2413,4832 C 2447,4832 2452,4836 2452,4859 L 2452,5116 C 2452,5139 2446,5139 2413,5139 L 2413,5154 C 2429,5153 2455,5153 2468,5153 2480,5153 2505,5153 2524,5154 L 2524,5139 C 2490,5139 2484,5139 2484,5116 L 2484,4811 Z"/>
        </g>
       </g>
       <g class="com.sun.star.drawing.ClosedBezierShape">
        <g id="id58">
         <rect class="BoundingBox" stroke="none" fill="none" x="2547" y="4932" width="221" height="229"/>
         <path fill="rgb(0,0,0)" stroke="none" d="M 2767,5048 C 2767,4985 2716,4932 2657,4932 2595,4932 2547,4986 2547,5048 2547,5112 2599,5160 2657,5160 2716,5160 2767,5111 2767,5048 Z M 2657,5148 C 2636,5148 2614,5136 2601,5114 2589,5093 2589,5062 2589,5044 2589,5025 2589,4998 2600,4976 2613,4954 2637,4943 2657,4943 2678,4943 2699,4954 2712,4975 2725,4996 2725,5025 2725,5044 2725,5062 2725,5089 2714,5111 2704,5133 2682,5148 2657,5148 Z"/>
        </g>
       </g>
       <g class="com.sun.star.drawing.ClosedBezierShape">
        <g id="id59">
         <rect class="BoundingBox" stroke="none" fill="none" x="2809" y="4932" width="190" height="229"/>
         <path fill="rgb(0,0,0)" stroke="none" d="M 2851,5047 C 2851,4966 2891,4945 2917,4945 2921,4945 2953,4945 2971,4962 2950,4965 2947,4979 2947,4986 2947,4998 2956,5009 2969,5009 2983,5009 2993,5000 2993,4985 2993,4951 2955,4932 2917,4932 2855,4932 2809,4986 2809,5047 2809,5111 2859,5160 2916,5160 2982,5160 2997,5101 2997,5095 2997,5090 2993,5090 2992,5090 2987,5090 2986,5093 2985,5095 2971,5141 2938,5148 2920,5148 2894,5148 2851,5126 2851,5047 Z"/>
        </g>
       </g>
       <g class="com.sun.star.drawing.ClosedBezierShape">
        <g id="id60">
         <rect class="BoundingBox" stroke="none" fill="none" x="3031" y="4932" width="224" height="229"/>
         <path fill="rgb(0,0,0)" stroke="none" d="M 3174,5116 C 3177,5136 3190,5157 3214,5157 3224,5157 3254,5150 3254,5110 L 3254,5083 3242,5083 3242,5110 C 3242,5139 3229,5142 3224,5142 3208,5142 3206,5120 3206,5117 L 3206,5017 C 3206,4997 3206,4978 3188,4959 3169,4940 3144,4932 3120,4932 3079,4932 3046,4956 3046,4988 3046,5003 3056,5012 3068,5012 3081,5012 3090,5002 3090,4988 3090,4983 3088,4966 3066,4966 3079,4949 3103,4943 3120,4943 3143,4943 3171,4962 3171,5006 L 3171,5025 C 3146,5026 3112,5028 3080,5042 3043,5059 3031,5085 3031,5107 3031,5148 3079,5160 3111,5160 3143,5160 3165,5140 3174,5116 Z M 3171,5035 L 3171,5085 C 3171,5132 3136,5149 3114,5149 3089,5149 3069,5131 3069,5106 3069,5079 3090,5038 3171,5035 Z"/>
        </g>
       </g>
       <g class="com.sun.star.drawing.ClosedBezierShape">
        <g id="id61">
         <rect class="BoundingBox" stroke="none" fill="none" x="3270" y="4811" width="113" height="345"/>
         <path fill="rgb(0,0,0)" stroke="none" d="M 3342,4811 L 3271,4817 3271,4832 C 3305,4832 3310,4836 3310,4859 L 3310,5116 C 3310,5139 3304,5139 3271,5139 L 3271,5154 C 3288,5153 3313,5153 3326,5153 3338,5153 3363,5153 3382,5154 L 3382,5139 C 3348,5139 3342,5139 3342,5116 L 3342,4811 Z"/>
        </g>
       </g>
       <g class="com.sun.star.drawing.ClosedBezierShape">
        <g id="id62">
         <rect class="BoundingBox" stroke="none" fill="none" x="3570" y="4935" width="388" height="221"/>
         <path fill="rgb(0,0,0)" stroke="none" d="M 3609,4984 L 3609,5117 C 3609,5139 3603,5139 3571,5139 L 3571,5154 C 3588,5154 3614,5153 3627,5153 3639,5153 3665,5154 3682,5154 L 3682,5139 C 3649,5139 3644,5139 3644,5117 L 3644,5025 C 3644,4974 3678,4947 3710,4947 3741,4947 3747,4974 3747,5002 L 3747,5117 C 3747,5139 3741,5139 3708,5139 L 3708,5154 C 3726,5154 3750,5153 3764,5153 3777,5153 3803,5154 3820,5154 L 3820,5139 C 3786,5139 3780,5139 3780,5117 L 3780,5025 C 3780,4974 3816,4947 3848,4947 3878,4947 3883,4974 3883,5002 L 3883,5117 C 3883,5139 3878,5139 3845,5139 L 3845,5154 C 3862,5154 3888,5153 3901,5153 3914,5153 3939,5154 3956,5154 L 3956,5139 C 3931,5139 3918,5139 3918,5124 L 3918,5030 C 3918,4987 3918,4971 3903,4954 3896,4946 3879,4936 3851,4936 3810,4936 3787,4965 3779,4984 3773,4941 3736,4936 3713,4936 3677,4936 3654,4957 3640,4987 L 3640,4936 3571,4941 3571,4957 C 3606,4957 3609,4960 3609,4984 Z"/>
        </g>
       </g>
       <g class="com.sun.star.drawing.ClosedBezierShape">
        <g id="id63">
         <rect class="BoundingBox" stroke="none" fill="none" x="3979" y="4823" width="109" height="333"/>
         <path fill="rgb(0,0,0)" stroke="none" d="M 4051,4936 L 3982,4941 3982,4957 C 4015,4957 4019,4959 4019,4984 L 4019,5116 C 4019,5139 4013,5139 3980,5139 L 3980,5154 C 3995,5153 4022,5153 4035,5153 4051,5153 4069,5153 4086,5154 L 4086,5139 C 4054,5139 4051,5136 4051,5117 L 4051,4936 Z M 4054,4849 C 4054,4833 4041,4823 4027,4823 4011,4823 4001,4837 4001,4849 4001,4863 4011,4876 4027,4876 4041,4876 4054,4865 4054,4849 Z"/>
        </g>
       </g>
       <g class="com.sun.star.drawing.ClosedBezierShape">
        <g id="id64">
         <rect class="BoundingBox" stroke="none" fill="none" x="4115" y="4935" width="251" height="221"/>
         <path fill="rgb(0,0,0)" stroke="none" d="M 4153,4984 L 4153,5117 C 4153,5139 4149,5139 4115,5139 L 4115,5154 C 4132,5154 4158,5153 4171,5153 4184,5153 4209,5154 4226,5154 L 4226,5139 C 4194,5139 4188,5139 4188,5117 L 4188,5025 C 4188,4974 4223,4947 4254,4947 4286,4947 4291,4974 4291,5002 L 4291,5117 C 4291,5139 4286,5139 4253,5139 L 4253,5154 C 4270,5154 4296,5153 4309,5153 4321,5153 4347,5154 4364,5154 L 4364,5139 C 4338,5139 4326,5139 4326,5124 L 4326,5030 C 4326,4987 4326,4971 4310,4954 4304,4946 4287,4936 4259,4936 4222,4936 4199,4957 4185,4987 L 4185,4936 4115,4941 4115,4957 C 4150,4957 4153,4960 4153,4984 Z"/>
        </g>
       </g>
       <g class="com.sun.star.drawing.ClosedBezierShape">
        <g id="id65">
         <rect class="BoundingBox" stroke="none" fill="none" x="4388" y="4823" width="109" height="333"/>
         <path fill="rgb(0,0,0)" stroke="none" d="M 4460,4936 L 4391,4941 4391,4957 C 4423,4957 4428,4959 4428,4984 L 4428,5116 C 4428,5139 4422,5139 4389,5139 L 4389,5154 C 4404,5153 4431,5153 4444,5153 4460,5153 4478,5153 4495,5154 L 4495,5139 C 4463,5139 4460,5136 4460,5117 L 4460,4936 Z M 4463,4849 C 4463,4833 4450,4823 4436,4823 4420,4823 4410,4837 4410,4849 4410,4863 4420,4876 4436,4876 4450,4876 4463,4865 4463,4849 Z"/>
        </g>
       </g>
       <g class="com.sun.star.drawing.ClosedBezierShape">
        <g id="id66">
         <rect class="BoundingBox" stroke="none" fill="none" x="4524" y="4935" width="387" height="221"/>
         <path fill="rgb(0,0,0)" stroke="none" d="M 4562,4984 L 4562,5117 C 4562,5139 4558,5139 4524,5139 L 4524,5154 C 4541,5154 4567,5153 4580,5153 4593,5153 4618,5154 4635,5154 L 4635,5139 C 4603,5139 4597,5139 4597,5117 L 4597,5025 C 4597,4974 4632,4947 4663,4947 4694,4947 4700,4974 4700,5002 L 4700,5117 C 4700,5139 4694,5139 4662,5139 L 4662,5154 C 4679,5154 4703,5153 4717,5153 4730,5153 4756,5154 4773,5154 L 4773,5139 C 4739,5139 4734,5139 4734,5117 L 4734,5025 C 4734,4974 4770,4947 4801,4947 4832,4947 4837,4974 4837,5002 L 4837,5117 C 4837,5139 4832,5139 4799,5139 L 4799,5154 C 4815,5154 4841,5153 4855,5153 4867,5153 4893,5154 4910,5154 L 4910,5139 C 4884,5139 4871,5139 4871,5124 L 4871,5030 C 4871,4987 4871,4971 4856,4954 4849,4946 4832,4936 4804,4936 4763,4936 4740,4965 4733,4984 4726,4941 4689,4936 4666,4936 4631,4936 4607,4957 4594,4987 L 4594,4936 4524,4941 4524,4957 C 4559,4957 4562,4960 4562,4984 Z"/>
        </g>
       </g>
       <g class="com.sun.star.drawing.ClosedBezierShape">
        <g id="id67">
         <rect class="BoundingBox" stroke="none" fill="none" x="4919" y="4935" width="251" height="226"/>
         <path fill="rgb(0,0,0)" stroke="none" d="M 5097,5115 L 5097,5160 5168,5154 5168,5139 C 5134,5139 5130,5135 5130,5112 L 5130,4936 5057,4941 5057,4957 C 5092,4957 5095,4960 5095,4984 L 5095,5072 C 5095,5115 5072,5149 5036,5149 4995,5149 4992,5126 4992,5101 L 4992,4936 4920,4941 4920,4957 C 4958,4957 4958,4958 4958,5002 L 4958,5076 C 4958,5115 4958,5160 5033,5160 5061,5160 5083,5147 5097,5115 Z"/>
        </g>
       </g>
       <g class="com.sun.star.drawing.ClosedBezierShape">
        <g id="id68">
         <rect class="BoundingBox" stroke="none" fill="none" x="5191" y="4935" width="388" height="221"/>
         <path fill="rgb(0,0,0)" stroke="none" d="M 5230,4984 L 5230,5117 C 5230,5139 5224,5139 5192,5139 L 5192,5154 C 5209,5154 5234,5153 5248,5153 5260,5153 5286,5154 5303,5154 L 5303,5139 C 5270,5139 5265,5139 5265,5117 L 5265,5025 C 5265,4974 5299,4947 5331,4947 5362,4947 5368,4974 5368,5002 L 5368,5117 C 5368,5139 5362,5139 5328,5139 L 5328,5154 C 5346,5154 5371,5153 5384,5153 5398,5153 5424,5154 5440,5154 L 5440,5139 C 5407,5139 5401,5139 5401,5117 L 5401,5025 C 5401,4974 5437,4947 5469,4947 5499,4947 5504,4974 5504,5002 L 5504,5117 C 5504,5139 5499,5139 5466,5139 L 5466,5154 C 5483,5154 5509,5153 5522,5153 5535,5153 5560,5154 5577,5154 L 5577,5139 C 5551,5139 5539,5139 5539,5124 L 5539,5030 C 5539,4987 5539,4971 5523,4954 5517,4946 5500,4936 5472,4936 5430,4936 5408,4965 5400,4984 5393,4941 5356,4936 5334,4936 5298,4936 5275,4957 5261,4987 L 5261,4936 5192,4941 5192,4957 C 5227,4957 5230,4960 5230,4984 Z"/>
        </g>
       </g>
      </g>
      <g class="com.sun.star.drawing.CustomShape">
       <g id="id69">
        <rect class="BoundingBox" stroke="none" fill="none" x="4681" y="4427" width="337" height="337"/>
        <path fill="rgb(217,145,22)" stroke="none" d="M 4848,4428 C 4942,4428 5015,4500 5015,4594 5015,4688 4942,4761 4848,4761 4754,4761 4682,4688 4682,4594 4682,4500 4754,4428 4848,4428 Z M 4682,4428 L 4682,4428 Z M 5016,4762 L 5016,4762 Z"/>
        <path fill="none" stroke="rgb(217,145,22)" d="M 4848,4428 C 4942,4428 5015,4500 5015,4594 5015,4688 4942,4761 4848,4761 4754,4761 4682,4688 4682,4594 4682,4500 4754,4428 4848,4428 Z"/>
        <path fill="none" stroke="rgb(217,145,22)" d="M 4682,4428 L 4682,4428 Z"/>
        <path fill="none" stroke="rgb(217,145,22)" d="M 5016,4762 L 5016,4762 Z"/>
       </g>
      </g>
      <g class="com.sun.star.drawing.CustomShape">
       <g id="id70">
        <rect class="BoundingBox" stroke="none" fill="none" x="5381" y="3527" width="337" height="337"/>
        <path fill="rgb(217,145,22)" stroke="none" d="M 5548,3528 C 5642,3528 5715,3600 5715,3694 5715,3788 5642,3861 5548,3861 5454,3861 5382,3788 5382,3694 5382,3600 5454,3528 5548,3528 Z M 5382,3528 L 5382,3528 Z M 5716,3862 L 5716,3862 Z"/>
        <path fill="none" stroke="rgb(217,145,22)" d="M 5548,3528 C 5642,3528 5715,3600 5715,3694 5715,3788 5642,3861 5548,3861 5454,3861 5382,3788 5382,3694 5382,3600 5454,3528 5548,3528 Z"/>
        <path fill="none" stroke="rgb(217,145,22)" d="M 5382,3528 L 5382,3528 Z"/>
        <path fill="none" stroke="rgb(217,145,22)" d="M 5716,3862 L 5716,3862 Z"/>
       </g>
      </g>
     </g>
    </g>
   </g>
  </g>
 </g>
</svg>