<?xml version="1.0" encoding="UTF-8"?>
<!DOCTYPE svg PUBLIC "-//W3C//DTD SVG 1.1//EN" "http://www.w3.org/Graphics/SVG/1.1/DTD/svg11.dtd">
<svg version="1.2" width="153.67mm" height="102.87mm" viewBox="0 0 15367 10287" preserveAspectRatio="xMidYMid" fill-rule="evenodd" stroke-width="28.222" stroke-linejoin="round" xmlns="http://www.w3.org/2000/svg" xmlns:ooo="http://xml.openoffice.org/svg/export" xmlns:xlink="http://www.w3.org/1999/xlink" xmlns:presentation="http://sun.com/xmlns/staroffice/presentation" xmlns:smil="http://www.w3.org/2001/SMIL20/" xmlns:anim="urn:oasis:names:tc:opendocument:xmlns:animation:1.0" xml:space="preserve">
 <defs class="ClipPathGroup">
  <clipPath id="presentation_clip_path" clipPathUnits="userSpaceOnUse">
   <rect x="0" y="0" width="15367" height="10287"/>
  </clipPath>
  <clipPath id="presentation_clip_path_shrink" clipPathUnits="userSpaceOnUse">
   <rect x="15" y="10" width="15337" height="10267"/>
  </clipPath>
 </defs>
 <defs class="TextShapeIndex">
  <g ooo:slide="id1" ooo:id-list="id3 id4 id5 id6 id7 id8 id9 id10 id11 id12 id13 id14 id15 id16 id17 id18 id19 id20 id21 id22 id23 id24 id25 id26 id27 id28 id29 id30"/>
 </defs>
 <defs class="EmbeddedBulletChars">
  <g id="bullet-char-template-57356" transform="scale(0.00048828125,-0.00048828125)">
   <path d="M 580,1141 L 1163,571 580,0 -4,571 580,1141 Z"/>
  </g>
  <g id="bullet-char-template-57354" transform="scale(0.00048828125,-0.00048828125)">
   <path d="M 8,1128 L 1137,1128 1137,0 8,0 8,1128 Z"/>
  </g>
  <g id="bullet-char-template-10146" transform="scale(0.00048828125,-0.00048828125)">
   <path d="M 174,0 L 602,739 174,1481 1456,739 174,0 Z M 1358,739 L 309,1346 659,739 1358,739 Z"/>
  </g>
  <g id="bullet-char-template-10132" transform="scale(0.00048828125,-0.00048828125)">
   <path d="M 2015,739 L 1276,0 717,0 1260,543 174,543 174,936 1260,936 717,1481 1274,1481 2015,739 Z"/>
  </g>
  <g id="bullet-char-template-10007" transform="scale(0.00048828125,-0.00048828125)">
   <path d="M 0,-2 C -7,14 -16,27 -25,37 L 356,567 C 262,823 215,952 215,954 215,979 228,992 255,992 264,992 276,990 289,987 310,991 331,999 354,1012 L 381,999 492,748 772,1049 836,1024 860,1049 C 881,1039 901,1025 922,1006 886,937 835,863 770,784 769,783 710,716 594,584 L 774,223 C 774,196 753,168 711,139 L 727,119 C 717,90 699,76 672,76 641,76 570,178 457,381 L 164,-76 C 142,-110 111,-127 72,-127 30,-127 9,-110 8,-76 1,-67 -2,-52 -2,-32 -2,-23 -1,-13 0,-2 Z"/>
  </g>
  <g id="bullet-char-template-10004" transform="scale(0.00048828125,-0.00048828125)">
   <path d="M 285,-33 C 182,-33 111,30 74,156 52,228 41,333 41,471 41,549 55,616 82,672 116,743 169,778 240,778 293,778 328,747 346,684 L 369,508 C 377,444 397,411 428,410 L 1163,1116 C 1174,1127 1196,1133 1229,1133 1271,1133 1292,1118 1292,1087 L 1292,965 C 1292,929 1282,901 1262,881 L 442,47 C 390,-6 338,-33 285,-33 Z"/>
  </g>
  <g id="bullet-char-template-9679" transform="scale(0.00048828125,-0.00048828125)">
   <path d="M 813,0 C 632,0 489,54 383,161 276,268 223,411 223,592 223,773 276,916 383,1023 489,1130 632,1184 813,1184 992,1184 1136,1130 1245,1023 1353,916 1407,772 1407,592 1407,412 1353,268 1245,161 1136,54 992,0 813,0 Z"/>
  </g>
  <g id="bullet-char-template-8226" transform="scale(0.00048828125,-0.00048828125)">
   <path d="M 346,457 C 273,457 209,483 155,535 101,586 74,649 74,723 74,796 101,859 155,911 209,963 273,989 346,989 419,989 480,963 531,910 582,859 608,796 608,723 608,648 583,586 532,535 482,483 420,457 346,457 Z"/>
  </g>
  <g id="bullet-char-template-8211" transform="scale(0.00048828125,-0.00048828125)">
   <path d="M -4,459 L 1135,459 1135,606 -4,606 -4,459 Z"/>
  </g>
  <g id="bullet-char-template-61548" transform="scale(0.00048828125,-0.00048828125)">
   <path d="M 173,740 C 173,903 231,1043 346,1159 462,1274 601,1332 765,1332 928,1332 1067,1274 1183,1159 1299,1043 1357,903 1357,740 1357,577 1299,437 1183,322 1067,206 928,148 765,148 601,148 462,206 346,322 231,437 173,577 173,740 Z"/>
  </g>
 </defs>
 <defs class="TextEmbeddedBitmaps"/>
 <g>
  <g id="id2" class="Master_Slide">
   <g id="bg-id2" class="Background"/>
   <g id="bo-id2" class="BackgroundObjects"/>
  </g>
 </g>
 <g class="SlideGroup">
  <g>
   <g id="container-id1">
    <g id="id1" class="Slide" clip-path="url(#presentation_clip_path)">
     <g class="Page">
      <g class="com.sun.star.drawing.LineShape">
       <g id="id3">
        <rect class="BoundingBox" stroke="none" fill="none" x="1785" y="574" width="301" height="9273"/>
        <path fill="none" stroke="rgb(0,0,0)" d="M 1935,9845 L 1935,1004"/>
        <path fill="rgb(0,0,0)" stroke="none" d="M 1935,574 L 1785,1024 2085,1024 1935,574 Z"/>
       </g>
      </g>
      <g class="com.sun.star.drawing.LineShape">
       <g id="id4">
        <rect class="BoundingBox" stroke="none" fill="none" x="156" y="8806" width="14988" height="301"/>
        <path fill="none" stroke="rgb(0,0,0)" d="M 157,8956 L 14713,8956"/>
        <path fill="rgb(0,0,0)" stroke="none" d="M 15143,8956 L 14693,8806 14693,9106 15143,8956 Z"/>
       </g>
      </g>
      <g class="Group">
       <g class="com.sun.star.drawing.PolyPolygonShape">
        <g id="id5">
         <rect class="BoundingBox" stroke="none" fill="none" x="14549" y="9505" width="283" height="214"/>
        </g>
       </g>
       <g class="com.sun.star.drawing.ClosedBezierShape">
        <g id="id6">
         <rect class="BoundingBox" stroke="none" fill="none" x="14564" y="9499" width="248" height="225"/>
         <path fill="rgb(0,0,0)" stroke="none" d="M 14716,9568 C 14718,9555 14729,9510 14764,9510 14767,9510 14778,9510 14788,9516 14775,9519 14765,9531 14765,9543 14765,9551 14771,9561 14784,9561 14795,9561 14811,9552 14811,9531 14811,9506 14782,9499 14765,9499 14736,9499 14719,9525 14712,9537 14700,9503 14674,9499 14660,9499 14608,9499 14580,9563 14580,9575 14580,9580 14585,9580 14586,9580 14590,9580 14591,9580 14593,9575 14609,9523 14642,9510 14659,9510 14668,9510 14685,9515 14685,9543 14685,9558 14677,9592 14659,9660 14651,9692 14633,9712 14612,9712 14608,9712 14597,9712 14587,9706 14599,9703 14610,9693 14610,9679 14610,9666 14599,9661 14591,9661 14577,9661 14565,9675 14565,9691 14565,9713 14589,9723 14610,9723 14644,9723 14662,9688 14663,9685 14669,9704 14687,9723 14716,9723 14767,9723 14795,9659 14795,9647 14795,9642 14791,9642 14790,9642 14785,9642 14784,9643 14783,9647 14767,9701 14732,9712 14717,9712 14698,9712 14690,9696 14690,9679 14690,9668 14693,9658 14699,9636 L 14716,9568 Z"/>
        </g>
       </g>
      </g>
      <g class="Group">
       <g class="com.sun.star.drawing.PolyPolygonShape">
        <g id="id7">
         <rect class="BoundingBox" stroke="none" fill="none" x="422" y="568" width="957" height="493"/>
        </g>
       </g>
       <g class="com.sun.star.drawing.ClosedBezierShape">
        <g id="id8">
         <rect class="BoundingBox" stroke="none" fill="none" x="447" y="589" width="249" height="451"/>
         <path fill="rgb(0,0,0)" stroke="none" d="M 603,740 L 646,740 C 655,740 660,740 660,731 660,725 655,725 647,725 L 606,725 616,668 C 618,658 625,623 628,617 632,607 641,601 652,601 654,601 666,601 675,610 654,611 649,629 649,635 649,648 658,653 667,653 680,653 694,642 694,623 694,601 672,589 652,589 635,589 603,598 589,648 585,658 584,662 572,725 L 538,725 C 528,725 524,725 524,734 524,740 527,740 537,740 L 570,740 533,935 C 524,983 515,1028 490,1028 488,1028 476,1028 466,1019 489,1017 494,999 494,992 494,980 485,975 475,975 462,975 448,986 448,1004 448,1026 469,1039 490,1039 517,1039 536,1010 545,991 562,959 573,900 573,896 L 603,740 Z"/>
        </g>
       </g>
       <g class="com.sun.star.drawing.ClosedBezierShape">
        <g id="id9">
         <rect class="BoundingBox" stroke="none" fill="none" x="763" y="567" width="117" height="494"/>
         <path fill="rgb(0,0,0)" stroke="none" d="M 879,1056 C 879,1054 879,1053 870,1044 808,983 793,890 793,814 793,728 812,642 872,580 879,575 879,574 879,571 879,568 877,567 873,567 869,567 824,601 795,663 769,717 763,772 763,814 763,853 769,912 796,968 826,1029 869,1060 873,1060 877,1060 879,1059 879,1056 Z"/>
        </g>
       </g>
       <g class="com.sun.star.drawing.ClosedBezierShape">
        <g id="id10">
         <rect class="BoundingBox" stroke="none" fill="none" x="920" y="718" width="248" height="226"/>
         <path fill="rgb(0,0,0)" stroke="none" d="M 1071,788 C 1074,774 1085,729 1119,729 1123,729 1134,729 1144,735 1131,738 1121,751 1121,762 1121,770 1126,780 1140,780 1151,780 1167,771 1167,751 1167,725 1137,718 1121,718 1092,718 1075,744 1068,756 1056,723 1030,718 1015,718 964,718 936,782 936,794 936,799 940,799 941,799 946,799 947,799 948,794 965,742 997,729 1014,729 1023,729 1041,734 1041,762 1041,778 1032,811 1014,880 1006,911 989,931 967,931 964,931 953,931 943,926 955,922 966,912 966,899 966,885 955,881 947,881 933,881 920,894 920,910 920,932 945,942 966,942 1000,942 1016,908 1019,904 1024,923 1042,942 1071,942 1123,942 1151,878 1151,866 1151,862 1146,862 1145,862 1141,862 1140,863 1139,866 1123,920 1088,931 1072,931 1053,931 1046,915 1046,899 1046,887 1049,877 1055,855 L 1071,788 Z"/>
        </g>
       </g>
       <g class="com.sun.star.drawing.ClosedBezierShape">
        <g id="id11">
         <rect class="BoundingBox" stroke="none" fill="none" x="1213" y="567" width="117" height="494"/>
         <path fill="rgb(0,0,0)" stroke="none" d="M 1329,814 C 1329,775 1323,716 1296,660 1266,599 1224,567 1218,567 1216,567 1214,569 1214,571 1214,574 1214,575 1222,584 1272,632 1300,710 1300,814 1300,898 1282,985 1220,1047 1214,1053 1214,1054 1214,1056 1214,1059 1216,1060 1218,1060 1224,1060 1268,1026 1298,964 1323,910 1329,855 1329,814 Z"/>
        </g>
       </g>
      </g>
      <g class="com.sun.star.drawing.OpenFreeHandShape">
       <g id="id12">
        <rect class="BoundingBox" stroke="none" fill="none" x="2489" y="1462" width="8896" height="5780"/>
        <path fill="none" stroke="rgb(0,0,0)" d="M 2490,2424 C 2536,2208 2670,2038 2755,1836 2815,1692 2874,1313 3152,1527 3333,1666 3455,1857 3578,2042 3676,2190 3813,2343 3813,2527 3814,2748 3902,2949 3931,3159 3962,3386 4062,3598 4151,3806 4239,4010 4373,4191 4475,4394 4577,4597 4985,4771 5004,4408 5015,4192 5218,4042 5298,3850 5447,3492 5868,3858 5959,4026 6071,4233 6206,4424 6297,4643 6381,4846 6454,5055 6532,5261 6612,5471 6688,5676 6812,5878 6930,6070 7093,6195 7209,6378 7321,6554 7518,6662 7635,6834 7795,7068 8036,7168 8282,7231 8513,7290 8628,7030 8796,6907 8981,6771 9153,6617 9296,6437 9444,6250 9546,6031 9678,5834 9818,5626 9858,5369 9957,5143 10049,4932 10103,4708 10192,4496 10267,4316 10335,4132 10413,3953 10488,3780 10561,3587 10751,3497 10947,3404 11151,3320 11368,3291 L 11383,3291"/>
       </g>
      </g>
      <g class="com.sun.star.drawing.CustomShape">
       <g id="id13">
        <rect class="BoundingBox" stroke="none" fill="none" x="2569" y="1080" width="766" height="766"/>
        <path fill="rgb(237,28,36)" stroke="none" d="M 2570,1462 L 2724,1517 2724,1407 2570,1462 Z M 2570,1081 L 2570,1081 Z M 3333,1844 L 3333,1844 Z"/>
        <path fill="none" stroke="rgb(237,28,36)" d="M 2570,1462 L 2724,1517 2724,1407 2570,1462 Z"/>
        <path fill="none" stroke="rgb(237,28,36)" d="M 2570,1081 L 2570,1081 Z"/>
        <path fill="none" stroke="rgb(237,28,36)" d="M 3333,1844 L 3333,1844 Z"/>
        <path fill="rgb(237,28,36)" stroke="none" d="M 2681,1732 L 2830,1661 2752,1583 2681,1732 Z M 2570,1081 L 2570,1081 Z M 3333,1844 L 3333,1844 Z"/>
        <path fill="none" stroke="rgb(237,28,36)" d="M 2681,1732 L 2830,1661 2752,1583 2681,1732 Z"/>
        <path fill="none" stroke="rgb(237,28,36)" d="M 2570,1081 L 2570,1081 Z"/>
        <path fill="none" stroke="rgb(237,28,36)" d="M 3333,1844 L 3333,1844 Z"/>
        <path fill="rgb(237,28,36)" stroke="none" d="M 2951,1844 L 3006,1689 2896,1689 2951,1844 Z M 2570,1081 L 2570,1081 Z M 3333,1844 L 3333,1844 Z"/>
        <path fill="none" stroke="rgb(237,28,36)" d="M 2951,1844 L 3006,1689 2896,1689 2951,1844 Z"/>
        <path fill="none" stroke="rgb(237,28,36)" d="M 2570,1081 L 2570,1081 Z"/>
        <path fill="none" stroke="rgb(237,28,36)" d="M 3333,1844 L 3333,1844 Z"/>
        <path fill="rgb(237,28,36)" stroke="none" d="M 3221,1732 L 3150,1583 3072,1661 3221,1732 Z M 2570,1081 L 2570,1081 Z M 3333,1844 L 3333,1844 Z"/>
        <path fill="none" stroke="rgb(237,28,36)" d="M 3221,1732 L 3150,1583 3072,1661 3221,1732 Z"/>
        <path fill="none" stroke="rgb(237,28,36)" d="M 2570,1081 L 2570,1081 Z"/>
        <path fill="none" stroke="rgb(237,28,36)" d="M 3333,1844 L 3333,1844 Z"/>
        <path fill="rgb(237,28,36)" stroke="none" d="M 3333,1462 L 3178,1407 3178,1517 3333,1462 Z M 2570,1081 L 2570,1081 Z M 3333,1844 L 3333,1844 Z"/>
        <path fill="none" stroke="rgb(237,28,36)" d="M 3333,1462 L 3178,1407 3178,1517 3333,1462 Z"/>
        <path fill="none" stroke="rgb(237,28,36)" d="M 2570,1081 L 2570,1081 Z"/>
        <path fill="none" stroke="rgb(237,28,36)" d="M 3333,1844 L 3333,1844 Z"/>
        <path fill="rgb(237,28,36)" stroke="none" d="M 3221,1192 L 3072,1263 3150,1341 3221,1192 Z M 2570,1081 L 2570,1081 Z M 3333,1844 L 3333,1844 Z"/>
        <path fill="none" stroke="rgb(237,28,36)" d="M 3221,1192 L 3072,1263 3150,1341 3221,1192 Z"/>
        <path fill="none" stroke="rgb(237,28,36)" d="M 2570,1081 L 2570,1081 Z"/>
        <path fill="none" stroke="rgb(237,28,36)" d="M 3333,1844 L 3333,1844 Z"/>
        <path fill="rgb(237,28,36)" stroke="none" d="M 2951,1081 L 2896,1235 3006,1235 2951,1081 Z M 2570,1081 L 2570,1081 Z M 3333,1844 L 3333,1844 Z"/>
        <path fill="none" stroke="rgb(237,28,36)" d="M 2951,1081 L 2896,1235 3006,1235 2951,1081 Z"/>
        <path fill="none" stroke="rgb(237,28,36)" d="M 2570,1081 L 2570,1081 Z"/>
        <path fill="none" stroke="rgb(237,28,36)" d="M 3333,1844 L 3333,1844 Z"/>
        <path fill="rgb(237,28,36)" stroke="none" d="M 2681,1192 L 2752,1341 2830,1263 2681,1192 Z M 2570,1081 L 2570,1081 Z M 3333,1844 L 3333,1844 Z"/>
        <path fill="none" stroke="rgb(237,28,36)" d="M 2681,1192 L 2752,1341 2830,1263 2681,1192 Z"/>
        <path fill="none" stroke="rgb(237,28,36)" d="M 2570,1081 L 2570,1081 Z"/>
        <path fill="none" stroke="rgb(237,28,36)" d="M 3333,1844 L 3333,1844 Z"/>
        <path fill="rgb(237,28,36)" stroke="none" d="M 2950,1271 C 3058,1271 3140,1353 3140,1461 3140,1569 3058,1651 2950,1651 2842,1651 2760,1569 2760,1461 2760,1353 2842,1271 2950,1271 Z M 2570,1081 L 2570,1081 Z M 3333,1844 L 3333,1844 Z"/>
        <path fill="none" stroke="rgb(237,28,36)" d="M 2950,1271 C 3058,1271 3140,1353 3140,1461 3140,1569 3058,1651 2950,1651 2842,1651 2760,1569 2760,1461 2760,1353 2842,1271 2950,1271 Z"/>
        <path fill="none" stroke="rgb(237,28,36)" d="M 2570,1081 L 2570,1081 Z"/>
        <path fill="none" stroke="rgb(237,28,36)" d="M 3333,1844 L 3333,1844 Z"/>
       </g>
      </g>
      <g class="com.sun.star.drawing.CustomShape">
       <g id="id14">
        <rect class="BoundingBox" stroke="none" fill="none" x="7903" y="6795" width="766" height="766"/>
        <path fill="rgb(204,190,0)" stroke="none" d="M 7904,7177 L 8058,7232 8058,7122 7904,7177 Z M 7904,6796 L 7904,6796 Z M 8667,7559 L 8667,7559 Z"/>
        <path fill="none" stroke="rgb(204,190,0)" d="M 7904,7177 L 8058,7232 8058,7122 7904,7177 Z"/>
        <path fill="none" stroke="rgb(204,190,0)" d="M 7904,6796 L 7904,6796 Z"/>
        <path fill="none" stroke="rgb(204,190,0)" d="M 8667,7559 L 8667,7559 Z"/>
        <path fill="rgb(204,190,0)" stroke="none" d="M 8015,7447 L 8164,7376 8086,7298 8015,7447 Z M 7904,6796 L 7904,6796 Z M 8667,7559 L 8667,7559 Z"/>
        <path fill="none" stroke="rgb(204,190,0)" d="M 8015,7447 L 8164,7376 8086,7298 8015,7447 Z"/>
        <path fill="none" stroke="rgb(204,190,0)" d="M 7904,6796 L 7904,6796 Z"/>
        <path fill="none" stroke="rgb(204,190,0)" d="M 8667,7559 L 8667,7559 Z"/>
        <path fill="rgb(204,190,0)" stroke="none" d="M 8285,7559 L 8340,7404 8230,7404 8285,7559 Z M 7904,6796 L 7904,6796 Z M 8667,7559 L 8667,7559 Z"/>
        <path fill="none" stroke="rgb(204,190,0)" d="M 8285,7559 L 8340,7404 8230,7404 8285,7559 Z"/>
        <path fill="none" stroke="rgb(204,190,0)" d="M 7904,6796 L 7904,6796 Z"/>
        <path fill="none" stroke="rgb(204,190,0)" d="M 8667,7559 L 8667,7559 Z"/>
        <path fill="rgb(204,190,0)" stroke="none" d="M 8555,7447 L 8484,7298 8406,7376 8555,7447 Z M 7904,6796 L 7904,6796 Z M 8667,7559 L 8667,7559 Z"/>
        <path fill="none" stroke="rgb(204,190,0)" d="M 8555,7447 L 8484,7298 8406,7376 8555,7447 Z"/>
        <path fill="none" stroke="rgb(204,190,0)" d="M 7904,6796 L 7904,6796 Z"/>
        <path fill="none" stroke="rgb(204,190,0)" d="M 8667,7559 L 8667,7559 Z"/>
        <path fill="rgb(204,190,0)" stroke="none" d="M 8667,7177 L 8512,7122 8512,7232 8667,7177 Z M 7904,6796 L 7904,6796 Z M 8667,7559 L 8667,7559 Z"/>
        <path fill="none" stroke="rgb(204,190,0)" d="M 8667,7177 L 8512,7122 8512,7232 8667,7177 Z"/>
        <path fill="none" stroke="rgb(204,190,0)" d="M 7904,6796 L 7904,6796 Z"/>
        <path fill="none" stroke="rgb(204,190,0)" d="M 8667,7559 L 8667,7559 Z"/>
        <path fill="rgb(204,190,0)" stroke="none" d="M 8555,6907 L 8406,6978 8484,7056 8555,6907 Z M 7904,6796 L 7904,6796 Z M 8667,7559 L 8667,7559 Z"/>
        <path fill="none" stroke="rgb(204,190,0)" d="M 8555,6907 L 8406,6978 8484,7056 8555,6907 Z"/>
        <path fill="none" stroke="rgb(204,190,0)" d="M 7904,6796 L 7904,6796 Z"/>
        <path fill="none" stroke="rgb(204,190,0)" d="M 8667,7559 L 8667,7559 Z"/>
        <path fill="rgb(204,190,0)" stroke="none" d="M 8285,6796 L 8230,6950 8340,6950 8285,6796 Z M 7904,6796 L 7904,6796 Z M 8667,7559 L 8667,7559 Z"/>
        <path fill="none" stroke="rgb(204,190,0)" d="M 8285,6796 L 8230,6950 8340,6950 8285,6796 Z"/>
        <path fill="none" stroke="rgb(204,190,0)" d="M 7904,6796 L 7904,6796 Z"/>
        <path fill="none" stroke="rgb(204,190,0)" d="M 8667,7559 L 8667,7559 Z"/>
        <path fill="rgb(204,190,0)" stroke="none" d="M 8015,6907 L 8086,7056 8164,6978 8015,6907 Z M 7904,6796 L 7904,6796 Z M 8667,7559 L 8667,7559 Z"/>
        <path fill="none" stroke="rgb(204,190,0)" d="M 8015,6907 L 8086,7056 8164,6978 8015,6907 Z"/>
        <path fill="none" stroke="rgb(204,190,0)" d="M 7904,6796 L 7904,6796 Z"/>
        <path fill="none" stroke="rgb(204,190,0)" d="M 8667,7559 L 8667,7559 Z"/>
        <path fill="rgb(204,190,0)" stroke="none" d="M 8284,6986 C 8392,6986 8474,7068 8474,7176 8474,7284 8392,7366 8284,7366 8176,7366 8094,7284 8094,7176 8094,7068 8176,6986 8284,6986 Z M 7904,6796 L 7904,6796 Z M 8667,7559 L 8667,7559 Z"/>
        <path fill="none" stroke="rgb(204,190,0)" d="M 8284,6986 C 8392,6986 8474,7068 8474,7176 8474,7284 8392,7366 8284,7366 8176,7366 8094,7284 8094,7176 8094,7068 8176,6986 8284,6986 Z"/>
        <path fill="none" stroke="rgb(204,190,0)" d="M 7904,6796 L 7904,6796 Z"/>
        <path fill="none" stroke="rgb(204,190,0)" d="M 8667,7559 L 8667,7559 Z"/>
       </g>
      </g>
      <g class="Group">
       <g class="com.sun.star.drawing.PolyPolygonShape">
        <g id="id15">
         <rect class="BoundingBox" stroke="none" fill="none" x="7271" y="7859" width="2031" height="330"/>
        </g>
       </g>
       <g class="com.sun.star.drawing.ClosedBezierShape">
        <g id="id16">
         <rect class="BoundingBox" stroke="none" fill="none" x="7286" y="7969" width="388" height="220"/>
         <path fill="rgb(0,0,0)" stroke="none" d="M 7325,8017 L 7325,8150 C 7325,8172 7320,8172 7287,8172 L 7287,8187 C 7303,8187 7329,8186 7343,8186 7355,8186 7381,8187 7398,8187 L 7398,8172 C 7365,8172 7360,8172 7360,8150 L 7360,8059 C 7360,8007 7394,7980 7426,7980 7457,7980 7463,8007 7463,8035 L 7463,8150 C 7463,8172 7457,8172 7423,8172 L 7423,8187 C 7441,8187 7466,8186 7479,8186 7493,8186 7519,8187 7535,8187 L 7535,8172 C 7502,8172 7496,8172 7496,8150 L 7496,8059 C 7496,8007 7532,7980 7563,7980 7595,7980 7599,8007 7599,8035 L 7599,8150 C 7599,8172 7595,8172 7561,8172 L 7561,8187 C 7578,8187 7604,8186 7617,8186 7629,8186 7655,8187 7672,8187 L 7672,8172 C 7646,8172 7634,8172 7634,8157 L 7634,8063 C 7634,8021 7634,8005 7618,7987 7612,7979 7595,7969 7567,7969 7525,7969 7503,7998 7495,8017 7488,7975 7451,7969 7429,7969 7393,7969 7370,7990 7356,8021 L 7356,7969 7287,7975 7287,7990 C 7321,7990 7325,7994 7325,8017 Z"/>
        </g>
       </g>
       <g class="com.sun.star.drawing.ClosedBezierShape">
        <g id="id17">
         <rect class="BoundingBox" stroke="none" fill="none" x="7695" y="7857" width="109" height="332"/>
         <path fill="rgb(0,0,0)" stroke="none" d="M 7767,7969 L 7698,7975 7698,7990 C 7730,7990 7735,7993 7735,8017 L 7735,8149 C 7735,8172 7729,8172 7696,8172 L 7696,8187 C 7711,8186 7738,8186 7750,8186 7767,8186 7785,8186 7802,8187 L 7802,8172 C 7770,8172 7767,8169 7767,8150 L 7767,7969 Z M 7770,7883 C 7770,7867 7757,7857 7743,7857 7727,7857 7717,7870 7717,7883 7717,7896 7727,7910 7743,7910 7757,7910 7770,7898 7770,7883 Z"/>
        </g>
       </g>
       <g class="com.sun.star.drawing.ClosedBezierShape">
        <g id="id18">
         <rect class="BoundingBox" stroke="none" fill="none" x="7831" y="7969" width="250" height="220"/>
         <path fill="rgb(0,0,0)" stroke="none" d="M 7869,8017 L 7869,8150 C 7869,8172 7865,8172 7831,8172 L 7831,8187 C 7848,8187 7874,8186 7887,8186 7899,8186 7925,8187 7942,8187 L 7942,8172 C 7910,8172 7904,8172 7904,8150 L 7904,8059 C 7904,8007 7939,7980 7970,7980 8001,7980 8007,8007 8007,8035 L 8007,8150 C 8007,8172 8001,8172 7969,8172 L 7969,8187 C 7986,8187 8012,8186 8025,8186 8037,8186 8063,8187 8080,8187 L 8080,8172 C 8054,8172 8042,8172 8042,8157 L 8042,8063 C 8042,8021 8042,8005 8026,7987 8019,7979 8003,7969 7975,7969 7938,7969 7915,7990 7901,8021 L 7901,7969 7831,7975 7831,7990 C 7866,7990 7869,7994 7869,8017 Z"/>
        </g>
       </g>
       <g class="com.sun.star.drawing.ClosedBezierShape">
        <g id="id19">
         <rect class="BoundingBox" stroke="none" fill="none" x="8104" y="7857" width="108" height="332"/>
         <path fill="rgb(0,0,0)" stroke="none" d="M 8176,7969 L 8107,7975 8107,7990 C 8139,7990 8144,7993 8144,8017 L 8144,8149 C 8144,8172 8138,8172 8105,8172 L 8105,8187 C 8120,8186 8147,8186 8159,8186 8176,8186 8194,8186 8211,8187 L 8211,8172 C 8178,8172 8176,8169 8176,8150 L 8176,7969 Z M 8178,7883 C 8178,7867 8166,7857 8152,7857 8136,7857 8126,7870 8126,7883 8126,7896 8136,7910 8152,7910 8166,7910 8178,7898 8178,7883 Z"/>
        </g>
       </g>
       <g class="com.sun.star.drawing.ClosedBezierShape">
        <g id="id20">
         <rect class="BoundingBox" stroke="none" fill="none" x="8240" y="7969" width="387" height="220"/>
         <path fill="rgb(0,0,0)" stroke="none" d="M 8278,8017 L 8278,8150 C 8278,8172 8274,8172 8240,8172 L 8240,8187 C 8257,8187 8283,8186 8296,8186 8308,8186 8334,8187 8351,8187 L 8351,8172 C 8318,8172 8313,8172 8313,8150 L 8313,8059 C 8313,8007 8348,7980 8379,7980 8410,7980 8416,8007 8416,8035 L 8416,8150 C 8416,8172 8410,8172 8377,8172 L 8377,8187 C 8395,8187 8419,8186 8433,8186 8446,8186 8472,8187 8489,8187 L 8489,8172 C 8455,8172 8450,8172 8450,8150 L 8450,8059 C 8450,8007 8485,7980 8517,7980 8547,7980 8553,8007 8553,8035 L 8553,8150 C 8553,8172 8547,8172 8515,8172 L 8515,8187 C 8531,8187 8557,8186 8571,8186 8583,8186 8609,8187 8625,8187 L 8625,8172 C 8600,8172 8587,8172 8587,8157 L 8587,8063 C 8587,8021 8587,8005 8572,7987 8565,7979 8548,7969 8520,7969 8479,7969 8456,7998 8448,8017 8442,7975 8405,7969 8382,7969 8346,7969 8323,7990 8310,8021 L 8310,7969 8240,7975 8240,7990 C 8275,7990 8278,7994 8278,8017 Z"/>
        </g>
       </g>
       <g class="com.sun.star.drawing.ClosedBezierShape">
        <g id="id21">
         <rect class="BoundingBox" stroke="none" fill="none" x="8635" y="7969" width="251" height="225"/>
         <path fill="rgb(0,0,0)" stroke="none" d="M 8813,8148 L 8813,8193 8884,8187 8884,8172 C 8850,8172 8846,8168 8846,8145 L 8846,7969 8773,7975 8773,7990 C 8808,7990 8811,7994 8811,8017 L 8811,8106 C 8811,8148 8788,8182 8752,8182 8711,8182 8708,8159 8708,8134 L 8708,7969 8636,7975 8636,7990 C 8674,7990 8674,7991 8674,8035 L 8674,8109 C 8674,8148 8674,8193 8749,8193 8777,8193 8799,8180 8813,8148 Z"/>
        </g>
       </g>
       <g class="com.sun.star.drawing.ClosedBezierShape">
        <g id="id22">
         <rect class="BoundingBox" stroke="none" fill="none" x="8907" y="7969" width="388" height="220"/>
         <path fill="rgb(0,0,0)" stroke="none" d="M 8946,8017 L 8946,8150 C 8946,8172 8941,8172 8908,8172 L 8908,8187 C 8925,8187 8950,8186 8964,8186 8976,8186 9002,8187 9019,8187 L 9019,8172 C 8986,8172 8981,8172 8981,8150 L 8981,8059 C 8981,8007 9015,7980 9047,7980 9078,7980 9084,8007 9084,8035 L 9084,8150 C 9084,8172 9078,8172 9046,8172 L 9046,8187 C 9062,8187 9087,8186 9100,8186 9114,8186 9140,8187 9156,8187 L 9156,8172 C 9123,8172 9117,8172 9117,8150 L 9117,8059 C 9117,8007 9153,7980 9184,7980 9216,7980 9220,8007 9220,8035 L 9220,8150 C 9220,8172 9216,8172 9182,8172 L 9182,8187 C 9199,8187 9225,8186 9238,8186 9251,8186 9276,8187 9293,8187 L 9293,8172 C 9267,8172 9255,8172 9255,8157 L 9255,8063 C 9255,8021 9255,8005 9239,7987 9233,7979 9216,7969 9188,7969 9146,7969 9124,7998 9116,8017 9109,7975 9072,7969 9050,7969 9014,7969 8991,7990 8977,8021 L 8977,7969 8908,7975 8908,7990 C 8943,7990 8946,7994 8946,8017 Z"/>
        </g>
       </g>
      </g>
      <g class="Group">
       <g class="com.sun.star.drawing.PolyPolygonShape">
        <g id="id23">
         <rect class="BoundingBox" stroke="none" fill="none" x="2317" y="448" width="2126" height="330"/>
        </g>
       </g>
       <g class="com.sun.star.drawing.ClosedBezierShape">
        <g id="id24">
         <rect class="BoundingBox" stroke="none" fill="none" x="2332" y="558" width="387" height="220"/>
         <path fill="rgb(0,0,0)" stroke="none" d="M 2371,606 L 2371,739 C 2371,761 2366,761 2333,761 L 2333,776 C 2349,776 2375,775 2389,775 2401,775 2427,776 2444,776 L 2444,761 C 2411,761 2405,761 2405,739 L 2405,648 C 2405,596 2440,569 2472,569 2503,569 2508,596 2508,624 L 2508,739 C 2508,761 2503,761 2469,761 L 2469,776 C 2487,776 2512,775 2525,775 2539,775 2564,776 2581,776 L 2581,761 C 2548,761 2542,761 2542,739 L 2542,648 C 2542,596 2578,569 2609,569 2641,569 2645,596 2645,624 L 2645,739 C 2645,761 2641,761 2607,761 L 2607,776 C 2624,776 2650,775 2663,775 2675,775 2701,776 2718,776 L 2718,761 C 2692,761 2680,761 2680,746 L 2680,652 C 2680,610 2680,594 2664,576 2657,568 2641,558 2613,558 2571,558 2549,587 2541,606 2534,564 2497,558 2475,558 2439,558 2416,579 2402,610 L 2402,558 2333,564 2333,579 C 2367,579 2371,583 2371,606 Z"/>
        </g>
       </g>
       <g class="com.sun.star.drawing.ClosedBezierShape">
        <g id="id25">
         <rect class="BoundingBox" stroke="none" fill="none" x="2745" y="554" width="225" height="229"/>
         <path fill="rgb(0,0,0)" stroke="none" d="M 2889,738 C 2891,758 2905,779 2928,779 2938,779 2969,772 2969,732 L 2969,705 2956,705 2956,732 C 2956,761 2944,764 2938,764 2923,764 2920,742 2920,739 L 2920,640 C 2920,620 2920,601 2903,582 2884,562 2859,555 2834,555 2794,555 2760,578 2760,611 2760,625 2770,634 2783,634 2796,634 2805,624 2805,611 2805,605 2803,588 2781,588 2794,571 2817,566 2834,566 2858,566 2886,585 2886,629 L 2886,648 C 2861,649 2826,650 2795,664 2758,681 2746,707 2746,729 2746,770 2794,782 2825,782 2858,782 2880,762 2889,738 Z M 2886,658 L 2886,707 C 2886,754 2851,771 2829,771 2804,771 2784,753 2784,728 2784,701 2805,660 2886,658 Z"/>
        </g>
       </g>
       <g class="com.sun.star.drawing.ClosedBezierShape">
        <g id="id26">
         <rect class="BoundingBox" stroke="none" fill="none" x="2976" y="563" width="250" height="215"/>
         <path fill="rgb(0,0,0)" stroke="none" d="M 3112,661 C 3128,642 3146,617 3158,605 3173,587 3194,579 3216,579 L 3216,564 C 3204,565 3189,565 3176,565 3161,565 3135,564 3129,564 L 3129,579 C 3139,580 3143,586 3143,594 3143,602 3138,608 3135,612 L 3105,650 3066,601 C 3062,595 3062,594 3062,592 3062,584 3069,579 3079,579 L 3079,564 C 3066,564 3034,565 3026,565 3016,565 2992,565 2979,564 L 2979,579 C 3013,579 3015,579 3037,610 L 3086,673 3039,732 C 3016,761 2987,762 2976,762 L 2976,776 C 2989,775 3004,775 3018,775 3031,775 3053,776 3065,776 L 3065,762 C 3054,760 3050,754 3050,746 3050,735 3065,719 3094,683 L 3132,733 C 3137,738 3142,746 3142,750 3142,754 3138,761 3124,762 L 3124,776 C 3140,776 3167,775 3178,775 3191,775 3210,775 3225,776 L 3225,762 C 3199,762 3190,761 3178,746 L 3112,661 Z"/>
        </g>
       </g>
       <g class="com.sun.star.drawing.ClosedBezierShape">
        <g id="id27">
         <rect class="BoundingBox" stroke="none" fill="none" x="3245" y="446" width="108" height="332"/>
         <path fill="rgb(0,0,0)" stroke="none" d="M 3317,558 L 3247,564 3247,579 C 3280,579 3284,582 3284,606 L 3284,738 C 3284,761 3279,761 3245,761 L 3245,776 C 3261,775 3288,775 3300,775 3317,775 3335,775 3352,776 L 3352,761 C 3319,761 3317,758 3317,739 L 3317,558 Z M 3319,472 C 3319,456 3307,446 3292,446 3276,446 3266,459 3266,472 3266,485 3276,499 3292,499 3307,499 3319,487 3319,472 Z"/>
        </g>
       </g>
       <g class="com.sun.star.drawing.ClosedBezierShape">
        <g id="id28">
         <rect class="BoundingBox" stroke="none" fill="none" x="3380" y="558" width="387" height="220"/>
         <path fill="rgb(0,0,0)" stroke="none" d="M 3419,606 L 3419,739 C 3419,761 3414,761 3381,761 L 3381,776 C 3397,776 3423,775 3437,775 3449,775 3475,776 3491,776 L 3491,761 C 3459,761 3453,761 3453,739 L 3453,648 C 3453,596 3488,569 3519,569 3551,569 3556,596 3556,624 L 3556,739 C 3556,761 3551,761 3517,761 L 3517,776 C 3535,776 3560,775 3573,775 3587,775 3612,776 3629,776 L 3629,761 C 3596,761 3590,761 3590,739 L 3590,648 C 3590,596 3626,569 3657,569 3687,569 3693,596 3693,624 L 3693,739 C 3693,761 3687,761 3655,761 L 3655,776 C 3672,776 3697,775 3711,775 3723,775 3749,776 3766,776 L 3766,761 C 3740,761 3728,761 3728,746 L 3728,652 C 3728,610 3728,594 3712,576 3705,568 3689,558 3661,558 3619,558 3597,587 3589,606 3582,564 3545,558 3523,558 3487,558 3463,579 3450,610 L 3450,558 3381,564 3381,579 C 3415,579 3419,583 3419,606 Z"/>
        </g>
       </g>
       <g class="com.sun.star.drawing.ClosedBezierShape">
        <g id="id29">
         <rect class="BoundingBox" stroke="none" fill="none" x="3775" y="558" width="251" height="225"/>
         <path fill="rgb(0,0,0)" stroke="none" d="M 3953,737 L 3953,782 4024,776 4024,761 C 3990,761 3986,757 3986,734 L 3986,558 3914,564 3914,579 C 3948,579 3952,583 3952,606 L 3952,695 C 3952,737 3928,771 3892,771 3851,771 3849,748 3849,723 L 3849,558 3776,564 3776,579 C 3814,579 3814,580 3814,624 L 3814,698 C 3814,737 3814,782 3889,782 3917,782 3939,769 3953,737 Z"/>
        </g>
       </g>
       <g class="com.sun.star.drawing.ClosedBezierShape">
        <g id="id30">
         <rect class="BoundingBox" stroke="none" fill="none" x="4047" y="558" width="388" height="220"/>
         <path fill="rgb(0,0,0)" stroke="none" d="M 4086,606 L 4086,739 C 4086,761 4081,761 4048,761 L 4048,776 C 4065,776 4090,775 4104,775 4116,775 4142,776 4159,776 L 4159,761 C 4126,761 4121,761 4121,739 L 4121,648 C 4121,596 4155,569 4187,569 4218,569 4224,596 4224,624 L 4224,739 C 4224,761 4218,761 4186,761 L 4186,776 C 4202,776 4227,775 4240,775 4254,775 4280,776 4296,776 L 4296,761 C 4263,761 4257,761 4257,739 L 4257,648 C 4257,596 4293,569 4324,569 4356,569 4360,596 4360,624 L 4360,739 C 4360,761 4356,761 4322,761 L 4322,776 C 4339,776 4365,775 4378,775 4390,775 4416,776 4433,776 L 4433,761 C 4407,761 4395,761 4395,746 L 4395,652 C 4395,610 4395,594 4379,576 4373,568 4356,558 4328,558 4286,558 4264,587 4256,606 4249,564 4212,558 4190,558 4154,558 4131,579 4117,610 L 4117,558 4048,564 4048,579 C 4083,579 4086,583 4086,606 Z"/>
        </g>
       </g>
      </g>
     </g>
    </g>
   </g>
  </g>
 </g>
</svg>