<?xml version="1.0" encoding="UTF-8"?>
<!DOCTYPE svg PUBLIC "-//W3C//DTD SVG 1.1//EN" "http://www.w3.org/Graphics/SVG/1.1/DTD/svg11.dtd">
<svg version="1.2" width="151.64mm" height="101.09mm" viewBox="0 0 15164 10109" preserveAspectRatio="xMidYMid" fill-rule="evenodd" stroke-width="28.222" stroke-linejoin="round" xmlns="http://www.w3.org/2000/svg" xmlns:ooo="http://xml.openoffice.org/svg/export" xmlns:xlink="http://www.w3.org/1999/xlink" xmlns:presentation="http://sun.com/xmlns/staroffice/presentation" xmlns:smil="http://www.w3.org/2001/SMIL20/" xmlns:anim="urn:oasis:names:tc:opendocument:xmlns:animation:1.0" xml:space="preserve">
 <defs class="ClipPathGroup">
  <clipPath id="presentation_clip_path" clipPathUnits="userSpaceOnUse">
   <rect x="0" y="0" width="15164" height="10109"/>
  </clipPath>
  <clipPath id="presentation_clip_path_shrink" clipPathUnits="userSpaceOnUse">
   <rect x="15" y="10" width="15134" height="10089"/>
  </clipPath>
 </defs>
 <defs class="TextShapeIndex">
  <g ooo:slide="id1" ooo:id-list="id3 id4 id5 id6 id7 id8 id9 id10 id11 id12 id13 id14 id15 id16 id17 id18 id19 id20 id21 id22 id23 id24 id25 id26 id27 id28 id29 id30 id31 id32 id33 id34 id35 id36 id37 id38 id39 id40 id41 id42 id43 id44 id45 id46 id47 id48 id49 id50 id51 id52 id53 id54 id55 id56 id57 id58 id59 id60 id61 id62 id63 id64 id65 id66 id67 id68 id69 id70 id71 id72 id73 id74 id75 id76"/>
 </defs>
 <defs class="EmbeddedBulletChars">
  <g id="bullet-char-template-57356" transform="scale(0.00048828125,-0.00048828125)">
   <path d="M 580,1141 L 1163,571 580,0 -4,571 580,1141 Z"/>
  </g>
  <g id="bullet-char-template-57354" transform="scale(0.00048828125,-0.00048828125)">
   <path d="M 8,1128 L 1137,1128 1137,0 8,0 8,1128 Z"/>
  </g>
  <g id="bullet-char-template-10146" transform="scale(0.00048828125,-0.00048828125)">
   <path d="M 174,0 L 602,739 174,1481 1456,739 174,0 Z M 1358,739 L 309,1346 659,739 1358,739 Z"/>
  </g>
  <g id="bullet-char-template-10132" transform="scale(0.00048828125,-0.00048828125)">
   <path d="M 2015,739 L 1276,0 717,0 1260,543 174,543 174,936 1260,936 717,1481 1274,1481 2015,739 Z"/>
  </g>
  <g id="bullet-char-template-10007" transform="scale(0.00048828125,-0.00048828125)">
   <path d="M 0,-2 C -7,14 -16,27 -25,37 L 356,567 C 262,823 215,952 215,954 215,979 228,992 255,992 264,992 276,990 289,987 310,991 331,999 354,1012 L 381,999 492,748 772,1049 836,1024 860,1049 C 881,1039 901,1025 922,1006 886,937 835,863 770,784 769,783 710,716 594,584 L 774,223 C 774,196 753,168 711,139 L 727,119 C 717,90 699,76 672,76 641,76 570,178 457,381 L 164,-76 C 142,-110 111,-127 72,-127 30,-127 9,-110 8,-76 1,-67 -2,-52 -2,-32 -2,-23 -1,-13 0,-2 Z"/>
  </g>
  <g id="bullet-char-template-10004" transform="scale(0.00048828125,-0.00048828125)">
   <path d="M 285,-33 C 182,-33 111,30 74,156 52,228 41,333 41,471 41,549 55,616 82,672 116,743 169,778 240,778 293,778 328,747 346,684 L 369,508 C 377,444 397,411 428,410 L 1163,1116 C 1174,1127 1196,1133 1229,1133 1271,1133 1292,1118 1292,1087 L 1292,965 C 1292,929 1282,901 1262,881 L 442,47 C 390,-6 338,-33 285,-33 Z"/>
  </g>
  <g id="bullet-char-template-9679" transform="scale(0.00048828125,-0.00048828125)">
   <path d="M 813,0 C 632,0 489,54 383,161 276,268 223,411 223,592 223,773 276,916 383,1023 489,1130 632,1184 813,1184 992,1184 1136,1130 1245,1023 1353,916 1407,772 1407,592 1407,412 1353,268 1245,161 1136,54 992,0 813,0 Z"/>
  </g>
  <g id="bullet-char-template-8226" transform="scale(0.00048828125,-0.00048828125)">
   <path d="M 346,457 C 273,457 209,483 155,535 101,586 74,649 74,723 74,796 101,859 155,911 209,963 273,989 346,989 419,989 480,963 531,910 582,859 608,796 608,723 608,648 583,586 532,535 482,483 420,457 346,457 Z"/>
  </g>
  <g id="bullet-char-template-8211" transform="scale(0.00048828125,-0.00048828125)">
   <path d="M -4,459 L 1135,459 1135,606 -4,606 -4,459 Z"/>
  </g>
  <g id="bullet-char-template-61548" transform="scale(0.00048828125,-0.00048828125)">
   <path d="M 173,740 C 173,903 231,1043 346,1159 462,1274 601,1332 765,1332 928,1332 1067,1274 1183,1159 1299,1043 1357,903 1357,740 1357,577 1299,437 1183,322 1067,206 928,148 765,148 601,148 462,206 346,322 231,437 173,577 173,740 Z"/>
  </g>
 </defs>
 <defs class="TextEmbeddedBitmaps"/>
 <g>
  <g id="id2" class="Master_Slide">
   <g id="bg-id2" class="Background"/>
   <g id="bo-id2" class="BackgroundObjects"/>
  </g>
 </g>
 <g class="SlideGroup">
  <g>
   <g id="container-id1">
    <g id="id1" class="Slide" clip-path="url(#presentation_clip_path)">
     <g class="Page">
      <g class="com.sun.star.drawing.LineShape">
       <g id="id3">
        <rect class="BoundingBox" stroke="none" fill="none" x="1460" y="102" width="301" height="9273"/>
        <path fill="none" stroke="rgb(0,0,0)" d="M 1610,9373 L 1610,532"/>
        <path fill="rgb(0,0,0)" stroke="none" d="M 1610,102 L 1460,552 1760,552 1610,102 Z"/>
       </g>
      </g>
      <g class="com.sun.star.drawing.LineShape">
       <g id="id4">
        <rect class="BoundingBox" stroke="none" fill="none" x="-169" y="8334" width="14988" height="301"/>
        <path fill="none" stroke="rgb(0,0,0)" d="M -168,8484 L 14388,8484"/>
        <path fill="rgb(0,0,0)" stroke="none" d="M 14818,8484 L 14368,8334 14368,8634 14818,8484 Z"/>
       </g>
      </g>
      <g class="Group">
       <g class="com.sun.star.drawing.PolyPolygonShape">
        <g id="id5">
         <rect class="BoundingBox" stroke="none" fill="none" x="14224" y="9033" width="366" height="214"/>
         <path fill="rgb(255,255,255)" stroke="none" d="M 14407,9245 L 14224,9245 14224,9034 14589,9034 14589,9245 14407,9245 Z"/>
        </g>
       </g>
       <g class="com.sun.star.drawing.ClosedBezierShape">
        <g id="id6">
         <rect class="BoundingBox" stroke="none" fill="none" x="14238" y="9027" width="329" height="225"/>
         <path fill="rgb(0,0,0)" stroke="none" d="M 14452,9077 C 14455,9067 14459,9048 14459,9046 14459,9037 14452,9033 14446,9033 14439,9033 14430,9036 14427,9046 14426,9049 14402,9145 14399,9157 14395,9171 14394,9180 14394,9189 14394,9195 14394,9196 14395,9198 14384,9225 14368,9240 14349,9240 14310,9240 14310,9204 14310,9195 14310,9179 14312,9160 14336,9099 14342,9084 14344,9077 14344,9067 14344,9045 14328,9027 14303,9027 14256,9027 14239,9099 14239,9103 14239,9108 14243,9108 14244,9108 14250,9108 14250,9108 14252,9099 14265,9053 14284,9038 14302,9038 14307,9038 14315,9038 14315,9054 14315,9066 14309,9081 14306,9089 14284,9147 14278,9170 14278,9188 14278,9234 14311,9251 14348,9251 14356,9251 14380,9251 14400,9216 14412,9248 14447,9251 14461,9251 14498,9251 14520,9220 14533,9191 14550,9151 14565,9085 14565,9062 14565,9035 14552,9027 14543,9027 14531,9027 14518,9039 14518,9051 14518,9057 14522,9061 14526,9064 14532,9070 14544,9082 14544,9107 14544,9123 14530,9171 14517,9196 14504,9223 14487,9240 14462,9240 14439,9240 14427,9225 14427,9197 14427,9184 14430,9168 14431,9161 L 14452,9077 Z"/>
        </g>
       </g>
      </g>
      <g class="Group">
       <g class="com.sun.star.drawing.PolyPolygonShape">
        <g id="id7">
         <rect class="BoundingBox" stroke="none" fill="none" x="95" y="94" width="1024" height="494"/>
         <path fill="rgb(255,255,255)" stroke="none" d="M 607,586 L 95,586 95,94 1118,94 1118,586 607,586 Z"/>
        </g>
       </g>
       <g class="com.sun.star.drawing.ClosedBezierShape">
        <g id="id8">
         <rect class="BoundingBox" stroke="none" fill="none" x="119" y="115" width="352" height="360"/>
         <path fill="rgb(0,0,0)" stroke="none" d="M 470,120 C 470,119 469,115 464,115 463,115 462,115 457,121 L 423,159 C 418,152 395,115 340,115 230,115 120,224 120,340 120,420 178,474 253,474 296,474 333,455 360,431 406,391 414,346 414,345 414,341 410,341 408,341 405,341 403,341 402,345 397,360 386,394 352,424 318,450 286,459 261,459 217,459 164,434 164,356 164,328 174,249 224,190 254,156 301,131 345,131 395,131 424,169 424,226 424,245 423,247 423,251 423,257 427,257 430,257 436,257 436,255 439,247 L 470,120 Z"/>
        </g>
       </g>
       <g class="com.sun.star.drawing.PolyPolygonShape">
        <g id="id9">
         <rect class="BoundingBox" stroke="none" fill="none" x="538" y="93" width="70" height="494"/>
         <path fill="rgb(0,0,0)" stroke="none" d="M 607,586 L 607,567 558,567 558,113 607,113 607,93 538,93 538,586 607,586 Z"/>
        </g>
       </g>
       <g class="com.sun.star.drawing.ClosedBezierShape">
        <g id="id10">
         <rect class="BoundingBox" stroke="none" fill="none" x="631" y="244" width="328" height="226"/>
         <path fill="rgb(0,0,0)" stroke="none" d="M 845,295 C 847,285 852,266 852,263 852,254 845,250 838,250 831,250 823,253 819,263 818,267 795,362 791,374 788,389 787,398 787,407 787,412 787,413 788,416 777,443 761,457 742,457 703,457 703,421 703,412 703,397 705,378 728,316 734,301 736,295 736,285 736,262 721,244 696,244 649,244 631,316 631,320 631,325 636,325 637,325 642,325 642,325 645,316 658,270 677,255 695,255 699,255 707,255 707,271 707,283 702,298 698,306 677,364 670,388 670,406 670,452 704,468 741,468 749,468 772,468 792,434 805,465 839,468 854,468 891,468 912,437 925,408 942,369 958,303 958,279 958,252 945,244 936,244 923,244 911,257 911,268 911,275 914,278 919,281 924,287 937,299 937,324 937,341 922,389 910,413 896,440 880,457 855,457 831,457 819,443 819,415 819,401 823,385 824,379 L 845,295 Z"/>
        </g>
       </g>
       <g class="com.sun.star.drawing.PolyPolygonShape">
        <g id="id11">
         <rect class="BoundingBox" stroke="none" fill="none" x="991" y="93" width="70" height="494"/>
         <path fill="rgb(0,0,0)" stroke="none" d="M 1060,93 L 992,93 992,113 1040,113 1040,567 992,567 992,586 1060,586 1060,93 Z"/>
        </g>
       </g>
      </g>
      <g class="com.sun.star.drawing.OpenFreeHandShape">
       <g id="id12">
        <rect class="BoundingBox" stroke="none" fill="none" x="2590" y="1203" width="10904" height="5818"/>
        <path fill="none" stroke="rgb(0,0,0)" d="M 2591,1204 C 2652,1467 2732,1728 2767,1998 2798,2232 2855,2464 2944,2686 3028,2896 3054,3125 3138,3338 3231,3575 3374,3791 3473,4026 3597,4320 3809,4556 4020,4785 4174,4952 4285,5153 4425,5331 4625,5584 4864,5809 5095,6037 5278,6218 5469,6399 5695,6531 5903,6652 6100,6806 6330,6884 6610,6979 6923,6924 7212,6989 7456,7043 7707,7008 7953,7007 8166,7007 8384,7002 8588,6937 8790,6872 9001,6835 9205,6778 9405,6722 9613,6664 9787,6549 9972,6427 10161,6305 10317,6143 10536,5916 10767,5698 10987,5473 11167,5289 11355,5109 11516,4908 11702,4676 11840,4401 12063,4203 12288,4003 12394,3741 12504,3479 12600,3251 12692,3033 12786,2809 12890,2561 13092,2365 13209,2121 L 13350,1857 13456,1645 13492,1574"/>
       </g>
      </g>
      <g class="com.sun.star.drawing.LineShape">
       <g id="id13">
        <rect class="BoundingBox" stroke="none" fill="none" x="11331" y="2682" width="1908" height="2543"/>
        <path fill="none" stroke="rgb(237,28,36)" d="M 11332,5223 L 13237,2683"/>
       </g>
      </g>
      <g class="com.sun.star.drawing.LineShape">
       <g id="id14">
        <rect class="BoundingBox" stroke="none" fill="none" x="2925" y="3268" width="1273" height="1908"/>
        <path fill="none" stroke="rgb(237,28,36)" d="M 4196,5174 L 2926,3269"/>
       </g>
      </g>
      <g class="Group">
       <g class="com.sun.star.drawing.PolyPolygonShape">
        <g id="id15">
         <rect class="BoundingBox" stroke="none" fill="none" x="12441" y="7989" width="651" height="289"/>
         <path fill="rgb(255,255,255)" stroke="none" d="M 12766,8276 L 12441,8276 12441,7990 13091,7990 13091,8276 12766,8276 Z"/>
        </g>
       </g>
       <g class="com.sun.star.drawing.ClosedBezierShape">
        <g id="id16">
         <rect class="BoundingBox" stroke="none" fill="none" x="12455" y="7983" width="329" height="226"/>
         <path fill="rgb(0,0,0)" stroke="none" d="M 12670,8034 C 12672,8023 12676,8004 12676,8002 12676,7993 12670,7989 12663,7989 12656,7989 12647,7992 12644,8002 12643,8005 12619,8101 12616,8113 12612,8128 12611,8137 12611,8146 12611,8152 12611,8153 12612,8155 12601,8182 12586,8196 12567,8196 12527,8196 12527,8161 12527,8152 12527,8136 12530,8117 12553,8055 12559,8040 12561,8034 12561,8023 12561,8001 12545,7983 12521,7983 12474,7983 12456,8055 12456,8059 12456,8064 12460,8064 12461,8064 12467,8064 12467,8064 12469,8055 12482,8009 12502,7994 12519,7994 12524,7994 12532,7994 12532,8010 12532,8022 12526,8037 12523,8045 12502,8103 12495,8127 12495,8145 12495,8191 12528,8208 12565,8208 12573,8208 12597,8208 12617,8173 12629,8204 12664,8208 12679,8208 12716,8208 12737,8176 12750,8147 12767,8108 12783,8041 12783,8018 12783,7991 12769,7983 12760,7983 12748,7983 12736,7995 12736,8007 12736,8013 12739,8017 12744,8020 12749,8026 12762,8038 12762,8063 12762,8080 12747,8128 12735,8153 12721,8180 12704,8196 12680,8196 12656,8196 12644,8182 12644,8154 12644,8140 12647,8125 12648,8118 L 12670,8034 Z"/>
        </g>
       </g>
       <g class="com.sun.star.drawing.ClosedBezierShape">
        <g id="id17">
         <rect class="BoundingBox" stroke="none" fill="none" x="12816" y="8039" width="271" height="246"/>
         <path fill="rgb(0,0,0)" stroke="none" d="M 12935,8064 C 12937,8054 12937,8053 12945,8052 L 12968,8052 C 13000,8052 13039,8052 13039,8087 13039,8102 13033,8123 13017,8136 13002,8147 12981,8153 12958,8153 L 12913,8153 12935,8064 Z M 12998,8158 C 13038,8148 13075,8123 13075,8093 13075,8063 13039,8039 12990,8039 L 12884,8039 C 12877,8039 12872,8039 12872,8047 12872,8052 12877,8052 12884,8052 12884,8052 12890,8052 12897,8053 12904,8053 12905,8054 12905,8057 12905,8058 12905,8059 12904,8065 L 12857,8249 C 12855,8261 12853,8264 12827,8264 12821,8264 12816,8264 12816,8271 12816,8274 12819,8276 12822,8276 12829,8276 12837,8275 12843,8275 12850,8275 12860,8275 12866,8275 12874,8275 12881,8275 12888,8275 12896,8275 12904,8276 12912,8276 12913,8276 12918,8276 12918,8270 12918,8264 12915,8264 12907,8264 12902,8264 12900,8264 12894,8263 12887,8262 12887,8262 12887,8258 12887,8257 12887,8255 12888,8250 L 12909,8163 12957,8163 C 12987,8163 12999,8177 12999,8193 12999,8198 12997,8210 12995,8218 12990,8234 12989,8239 12989,8245 12989,8273 13015,8283 13039,8283 13072,8283 13085,8249 13085,8243 13085,8241 13085,8238 13080,8238 13075,8238 13074,8240 13073,8244 13069,8259 13056,8274 13042,8274 13033,8274 13026,8270 13026,8250 13026,8243 13028,8225 13029,8214 13030,8205 13030,8202 13030,8199 13030,8194 13030,8183 13022,8173 13015,8165 13005,8161 12998,8158 Z"/>
        </g>
       </g>
      </g>
      <g class="com.sun.star.drawing.LineShape">
       <g id="id18">
        <rect class="BoundingBox" stroke="none" fill="none" x="12277" y="3911" width="3" height="4575"/>
        <path fill="none" stroke="rgb(0,0,0)" d="M 12278,3912 L 12278,3965"/>
        <path fill="none" stroke="rgb(0,0,0)" d="M 12278,3997 L 12278,4051"/>
        <path fill="none" stroke="rgb(0,0,0)" d="M 12278,4083 L 12278,4136"/>
        <path fill="none" stroke="rgb(0,0,0)" d="M 12278,4168 L 12278,4221"/>
        <path fill="none" stroke="rgb(0,0,0)" d="M 12278,4254 L 12278,4307"/>
        <path fill="none" stroke="rgb(0,0,0)" d="M 12278,4339 L 12278,4392"/>
        <path fill="none" stroke="rgb(0,0,0)" d="M 12278,4425 L 12278,4478"/>
        <path fill="none" stroke="rgb(0,0,0)" d="M 12278,4510 L 12278,4563"/>
        <path fill="none" stroke="rgb(0,0,0)" d="M 12278,4595 L 12278,4649"/>
        <path fill="none" stroke="rgb(0,0,0)" d="M 12278,4681 L 12278,4734"/>
        <path fill="none" stroke="rgb(0,0,0)" d="M 12278,4766 L 12278,4819"/>
        <path fill="none" stroke="rgb(0,0,0)" d="M 12278,4852 L 12278,4905"/>
        <path fill="none" stroke="rgb(0,0,0)" d="M 12278,4937 L 12278,4990"/>
        <path fill="none" stroke="rgb(0,0,0)" d="M 12278,5023 L 12278,5076"/>
        <path fill="none" stroke="rgb(0,0,0)" d="M 12278,5108 L 12278,5161"/>
        <path fill="none" stroke="rgb(0,0,0)" d="M 12278,5193 L 12278,5247"/>
        <path fill="none" stroke="rgb(0,0,0)" d="M 12278,5279 L 12278,5332"/>
        <path fill="none" stroke="rgb(0,0,0)" d="M 12278,5364 L 12278,5417"/>
        <path fill="none" stroke="rgb(0,0,0)" d="M 12278,5450 L 12278,5503"/>
        <path fill="none" stroke="rgb(0,0,0)" d="M 12278,5535 L 12278,5588"/>
        <path fill="none" stroke="rgb(0,0,0)" d="M 12278,5621 L 12278,5674"/>
        <path fill="none" stroke="rgb(0,0,0)" d="M 12278,5706 L 12278,5759"/>
        <path fill="none" stroke="rgb(0,0,0)" d="M 12278,5791 L 12278,5845"/>
        <path fill="none" stroke="rgb(0,0,0)" d="M 12278,5877 L 12278,5930"/>
        <path fill="none" stroke="rgb(0,0,0)" d="M 12278,5962 L 12278,6015"/>
        <path fill="none" stroke="rgb(0,0,0)" d="M 12278,6048 L 12278,6101"/>
        <path fill="none" stroke="rgb(0,0,0)" d="M 12278,6133 L 12278,6186"/>
        <path fill="none" stroke="rgb(0,0,0)" d="M 12278,6219 L 12278,6272"/>
        <path fill="none" stroke="rgb(0,0,0)" d="M 12278,6304 L 12278,6357"/>
        <path fill="none" stroke="rgb(0,0,0)" d="M 12278,6390 L 12278,6443"/>
        <path fill="none" stroke="rgb(0,0,0)" d="M 12278,6475 L 12278,6528"/>
        <path fill="none" stroke="rgb(0,0,0)" d="M 12278,6560 L 12278,6613"/>
        <path fill="none" stroke="rgb(0,0,0)" d="M 12278,6646 L 12278,6699"/>
        <path fill="none" stroke="rgb(0,0,0)" d="M 12278,6731 L 12278,6784"/>
        <path fill="none" stroke="rgb(0,0,0)" d="M 12278,6817 L 12278,6870"/>
        <path fill="none" stroke="rgb(0,0,0)" d="M 12278,6902 L 12278,6955"/>
        <path fill="none" stroke="rgb(0,0,0)" d="M 12278,6988 L 12278,7041"/>
        <path fill="none" stroke="rgb(0,0,0)" d="M 12278,7073 L 12278,7126"/>
        <path fill="none" stroke="rgb(0,0,0)" d="M 12278,7158 L 12278,7211"/>
        <path fill="none" stroke="rgb(0,0,0)" d="M 12278,7244 L 12278,7297"/>
        <path fill="none" stroke="rgb(0,0,0)" d="M 12278,7329 L 12278,7382"/>
        <path fill="none" stroke="rgb(0,0,0)" d="M 12278,7415 L 12278,7468"/>
        <path fill="none" stroke="rgb(0,0,0)" d="M 12278,7500 L 12278,7553"/>
        <path fill="none" stroke="rgb(0,0,0)" d="M 12278,7586 L 12278,7639"/>
        <path fill="none" stroke="rgb(0,0,0)" d="M 12278,7671 L 12278,7724"/>
        <path fill="none" stroke="rgb(0,0,0)" d="M 12278,7756 L 12278,7810"/>
        <path fill="none" stroke="rgb(0,0,0)" d="M 12278,7842 L 12278,7895"/>
        <path fill="none" stroke="rgb(0,0,0)" d="M 12278,7927 L 12278,7980"/>
        <path fill="none" stroke="rgb(0,0,0)" d="M 12278,8013 L 12278,8066"/>
        <path fill="none" stroke="rgb(0,0,0)" d="M 12278,8098 L 12278,8151"/>
        <path fill="none" stroke="rgb(0,0,0)" d="M 12278,8184 L 12278,8237"/>
        <path fill="none" stroke="rgb(0,0,0)" d="M 12278,8269 L 12278,8322"/>
        <path fill="none" stroke="rgb(0,0,0)" d="M 12278,8354 L 12278,8408"/>
        <path fill="none" stroke="rgb(0,0,0)" d="M 12278,8440 L 12278,8484"/>
       </g>
      </g>
      <g class="com.sun.star.drawing.LineShape">
       <g id="id19">
        <rect class="BoundingBox" stroke="none" fill="none" x="3577" y="4292" width="3" height="4195"/>
        <path fill="none" stroke="rgb(0,0,0)" d="M 3578,4293 L 3578,4346"/>
        <path fill="none" stroke="rgb(0,0,0)" d="M 3578,4378 L 3578,4432"/>
        <path fill="none" stroke="rgb(0,0,0)" d="M 3578,4464 L 3578,4517"/>
        <path fill="none" stroke="rgb(0,0,0)" d="M 3578,4549 L 3578,4602"/>
        <path fill="none" stroke="rgb(0,0,0)" d="M 3578,4635 L 3578,4688"/>
        <path fill="none" stroke="rgb(0,0,0)" d="M 3578,4720 L 3578,4773"/>
        <path fill="none" stroke="rgb(0,0,0)" d="M 3578,4806 L 3578,4859"/>
        <path fill="none" stroke="rgb(0,0,0)" d="M 3578,4891 L 3578,4944"/>
        <path fill="none" stroke="rgb(0,0,0)" d="M 3578,4976 L 3578,5030"/>
        <path fill="none" stroke="rgb(0,0,0)" d="M 3578,5062 L 3578,5115"/>
        <path fill="none" stroke="rgb(0,0,0)" d="M 3578,5147 L 3578,5200"/>
        <path fill="none" stroke="rgb(0,0,0)" d="M 3578,5233 L 3578,5286"/>
        <path fill="none" stroke="rgb(0,0,0)" d="M 3578,5318 L 3578,5371"/>
        <path fill="none" stroke="rgb(0,0,0)" d="M 3578,5404 L 3578,5457"/>
        <path fill="none" stroke="rgb(0,0,0)" d="M 3578,5489 L 3578,5542"/>
        <path fill="none" stroke="rgb(0,0,0)" d="M 3578,5574 L 3578,5628"/>
        <path fill="none" stroke="rgb(0,0,0)" d="M 3578,5660 L 3578,5713"/>
        <path fill="none" stroke="rgb(0,0,0)" d="M 3578,5745 L 3578,5798"/>
        <path fill="none" stroke="rgb(0,0,0)" d="M 3578,5831 L 3578,5884"/>
        <path fill="none" stroke="rgb(0,0,0)" d="M 3578,5916 L 3578,5969"/>
        <path fill="none" stroke="rgb(0,0,0)" d="M 3578,6002 L 3578,6055"/>
        <path fill="none" stroke="rgb(0,0,0)" d="M 3578,6087 L 3578,6140"/>
        <path fill="none" stroke="rgb(0,0,0)" d="M 3578,6172 L 3578,6226"/>
        <path fill="none" stroke="rgb(0,0,0)" d="M 3578,6258 L 3578,6311"/>
        <path fill="none" stroke="rgb(0,0,0)" d="M 3578,6343 L 3578,6396"/>
        <path fill="none" stroke="rgb(0,0,0)" d="M 3578,6429 L 3578,6482"/>
        <path fill="none" stroke="rgb(0,0,0)" d="M 3578,6514 L 3578,6567"/>
        <path fill="none" stroke="rgb(0,0,0)" d="M 3578,6600 L 3578,6653"/>
        <path fill="none" stroke="rgb(0,0,0)" d="M 3578,6685 L 3578,6738"/>
        <path fill="none" stroke="rgb(0,0,0)" d="M 3578,6771 L 3578,6824"/>
        <path fill="none" stroke="rgb(0,0,0)" d="M 3578,6856 L 3578,6909"/>
        <path fill="none" stroke="rgb(0,0,0)" d="M 3578,6941 L 3578,6994"/>
        <path fill="none" stroke="rgb(0,0,0)" d="M 3578,7027 L 3578,7080"/>
        <path fill="none" stroke="rgb(0,0,0)" d="M 3578,7112 L 3578,7165"/>
        <path fill="none" stroke="rgb(0,0,0)" d="M 3578,7198 L 3578,7251"/>
        <path fill="none" stroke="rgb(0,0,0)" d="M 3578,7283 L 3578,7336"/>
        <path fill="none" stroke="rgb(0,0,0)" d="M 3578,7369 L 3578,7422"/>
        <path fill="none" stroke="rgb(0,0,0)" d="M 3578,7454 L 3578,7507"/>
        <path fill="none" stroke="rgb(0,0,0)" d="M 3578,7539 L 3578,7592"/>
        <path fill="none" stroke="rgb(0,0,0)" d="M 3578,7625 L 3578,7678"/>
        <path fill="none" stroke="rgb(0,0,0)" d="M 3578,7710 L 3578,7763"/>
        <path fill="none" stroke="rgb(0,0,0)" d="M 3578,7796 L 3578,7849"/>
        <path fill="none" stroke="rgb(0,0,0)" d="M 3578,7881 L 3578,7934"/>
        <path fill="none" stroke="rgb(0,0,0)" d="M 3578,7967 L 3578,8020"/>
        <path fill="none" stroke="rgb(0,0,0)" d="M 3578,8052 L 3578,8105"/>
        <path fill="none" stroke="rgb(0,0,0)" d="M 3578,8137 L 3578,8191"/>
        <path fill="none" stroke="rgb(0,0,0)" d="M 3578,8223 L 3578,8276"/>
        <path fill="none" stroke="rgb(0,0,0)" d="M 3578,8308 L 3578,8361"/>
        <path fill="none" stroke="rgb(0,0,0)" d="M 3578,8394 L 3578,8447"/>
        <path fill="none" stroke="rgb(0,0,0)" d="M 3578,8479 L 3578,8485"/>
       </g>
      </g>
      <g class="Group">
       <g class="com.sun.star.drawing.PolyPolygonShape">
        <g id="id20">
         <rect class="BoundingBox" stroke="none" fill="none" x="2753" y="7982" width="621" height="288"/>
         <path fill="rgb(255,255,255)" stroke="none" d="M 3063,8269 L 2753,8269 2753,7983 3373,7983 3373,8269 3063,8269 Z"/>
        </g>
       </g>
       <g class="com.sun.star.drawing.ClosedBezierShape">
        <g id="id21">
         <rect class="BoundingBox" stroke="none" fill="none" x="2767" y="7976" width="329" height="226"/>
         <path fill="rgb(0,0,0)" stroke="none" d="M 2981,8027 C 2984,8016 2988,7997 2988,7995 2988,7986 2981,7982 2975,7982 2968,7982 2959,7985 2956,7995 2954,7998 2931,8094 2928,8106 2924,8121 2923,8130 2923,8139 2923,8144 2923,8146 2924,8148 2913,8175 2897,8189 2878,8189 2839,8189 2839,8153 2839,8144 2839,8129 2841,8110 2865,8048 2871,8033 2873,8027 2873,8016 2873,7994 2857,7976 2832,7976 2785,7976 2768,8048 2768,8052 2768,8057 2772,8057 2773,8057 2779,8057 2779,8057 2781,8048 2794,8002 2813,7987 2831,7987 2836,7987 2844,7987 2844,8003 2844,8015 2838,8030 2835,8038 2813,8096 2807,8120 2807,8138 2807,8184 2840,8201 2877,8201 2885,8201 2909,8201 2929,8166 2941,8197 2976,8201 2990,8201 3027,8201 3048,8169 3062,8140 3079,8101 3094,8034 3094,8011 3094,7984 3081,7976 3072,7976 3060,7976 3047,7988 3047,8000 3047,8006 3051,8010 3055,8013 3061,8019 3073,8031 3073,8056 3073,8073 3059,8121 3046,8146 3033,8172 3016,8189 2991,8189 2968,8189 2956,8175 2956,8147 2956,8133 2959,8117 2960,8111 L 2981,8027 Z"/>
        </g>
       </g>
       <g class="com.sun.star.drawing.ClosedBezierShape">
        <g id="id22">
         <rect class="BoundingBox" stroke="none" fill="none" x="3127" y="8032" width="228" height="238"/>
         <path fill="rgb(0,0,0)" stroke="none" d="M 3247,8060 C 3250,8048 3251,8044 3282,8044 3294,8044 3297,8044 3297,8037 3297,8037 3297,8032 3291,8032 3282,8032 3273,8033 3266,8033 3257,8033 3247,8033 3238,8033 3230,8033 3221,8033 3214,8033 3206,8033 3198,8032 3192,8032 3189,8032 3184,8032 3184,8040 3184,8044 3188,8044 3195,8044 3195,8044 3202,8044 3208,8046 3215,8046 3216,8047 3216,8050 3216,8051 3216,8052 3215,8058 L 3168,8242 C 3166,8253 3165,8257 3138,8257 3132,8257 3128,8257 3128,8263 3128,8269 3132,8269 3138,8269 L 3313,8269 C 3320,8269 3322,8269 3324,8262 3327,8253 3354,8186 3354,8183 3354,8181 3353,8178 3347,8178 3344,8178 3343,8179 3341,8185 3327,8218 3313,8257 3249,8257 L 3210,8257 C 3200,8257 3198,8257 3198,8253 3198,8253 3198,8251 3201,8245 L 3247,8060 Z"/>
        </g>
       </g>
      </g>
      <g class="Group">
       <g class="com.sun.star.drawing.PolyPolygonShape">
        <g id="id23">
         <rect class="BoundingBox" stroke="none" fill="none" x="12862" y="3679" width="2000" height="438"/>
         <path fill="rgb(255,255,255)" stroke="none" d="M 13861,4116 L 12862,4116 12862,3679 14861,3679 14861,4116 13861,4116 Z"/>
        </g>
       </g>
       <g class="com.sun.star.drawing.ClosedBezierShape">
        <g id="id24">
         <rect class="BoundingBox" stroke="none" fill="none" x="12887" y="3802" width="185" height="226"/>
         <path fill="rgb(0,0,0)" stroke="none" d="M 13056,3836 C 13041,3836 13032,3847 13032,3858 13032,3865 13037,3873 13047,3873 13058,3873 13070,3864 13070,3845 13070,3823 13049,3802 13011,3802 12946,3802 12927,3853 12927,3874 12927,3913 12964,3921 12978,3923 13004,3929 13030,3933 13030,3961 13030,3974 13019,4015 12959,4015 12952,4015 12914,4015 12902,3989 12921,3992 12934,3977 12934,3963 12934,3951 12926,3946 12916,3946 12902,3946 12888,3956 12888,3978 12888,4006 12916,4026 12958,4026 13039,4026 13058,3967 13058,3945 13058,3927 13049,3914 13042,3908 13029,3894 13015,3892 12993,3887 12975,3883 12956,3880 12956,3857 12956,3844 12967,3814 13011,3814 13023,3814 13048,3817 13056,3836 Z"/>
        </g>
       </g>
       <g class="com.sun.star.drawing.ClosedBezierShape">
        <g id="id25">
         <rect class="BoundingBox" stroke="none" fill="none" x="13112" y="3677" width="109" height="351"/>
         <path fill="rgb(0,0,0)" stroke="none" d="M 13219,3684 C 13219,3682 13219,3678 13213,3678 13201,3678 13165,3682 13152,3682 13149,3684 13143,3684 13143,3694 13143,3699 13148,3699 13155,3699 13179,3699 13179,3703 13179,3707 L 13178,3717 13115,3964 C 13114,3969 13113,3973 13113,3980 13113,4008 13135,4026 13158,4026 13174,4026 13187,4016 13196,3998 13205,3979 13210,3951 13210,3950 13210,3945 13206,3945 13205,3945 13199,3945 13199,3947 13197,3954 13189,3986 13179,4015 13160,4015 13144,4015 13144,3999 13144,3993 13144,3980 13145,3978 13148,3969 L 13219,3684 Z"/>
        </g>
       </g>
       <g class="com.sun.star.drawing.ClosedBezierShape">
        <g id="id26">
         <rect class="BoundingBox" stroke="none" fill="none" x="13267" y="3802" width="214" height="226"/>
         <path fill="rgb(0,0,0)" stroke="none" d="M 13479,3886 C 13479,3835 13444,3802 13400,3802 13333,3802 13267,3873 13267,3942 13267,3992 13301,4026 13347,4026 13412,4026 13479,3958 13479,3886 Z M 13347,4015 C 13326,4015 13304,4001 13304,3961 13304,3938 13317,3884 13332,3858 13357,3820 13386,3814 13400,3814 13429,3814 13443,3837 13443,3866 13443,3886 13433,3938 13414,3970 13397,3998 13369,4015 13347,4015 Z"/>
        </g>
       </g>
       <g class="com.sun.star.drawing.ClosedBezierShape">
        <g id="id27">
         <rect class="BoundingBox" stroke="none" fill="none" x="13470" y="3802" width="259" height="315"/>
         <path fill="rgb(0,0,0)" stroke="none" d="M 13508,4081 C 13504,4098 13504,4101 13481,4101 13476,4101 13470,4101 13470,4110 13470,4115 13472,4116 13477,4116 13490,4116 13504,4115 13518,4115 13534,4115 13551,4116 13566,4116 13570,4116 13575,4116 13575,4107 13575,4101 13571,4101 13564,4101 13540,4101 13540,4098 13540,4094 13540,4087 13560,4007 13563,3995 13570,4008 13583,4026 13609,4026 13666,4026 13728,3954 13728,3882 13728,3835 13700,3802 13663,3802 13638,3802 13613,3820 13598,3839 13592,3812 13571,3802 13553,3802 13531,3802 13520,3821 13516,3830 13508,3847 13501,3877 13501,3879 13501,3883 13506,3883 13507,3883 13513,3883 13513,3883 13516,3872 13524,3837 13534,3814 13552,3814 13560,3814 13566,3817 13566,3836 13566,3847 13565,3853 13563,3861 L 13508,4081 Z M 13596,3866 C 13599,3853 13612,3839 13621,3831 13638,3817 13653,3814 13660,3814 13681,3814 13693,3830 13693,3859 13693,3889 13676,3946 13667,3965 13650,3998 13627,4015 13609,4015 13575,4015 13570,3974 13570,3971 13570,3970 13570,3969 13571,3964 L 13596,3866 Z"/>
        </g>
       </g>
       <g class="com.sun.star.drawing.ClosedBezierShape">
        <g id="id28">
         <rect class="BoundingBox" stroke="none" fill="none" x="13754" y="3802" width="192" height="226"/>
         <path fill="rgb(0,0,0)" stroke="none" d="M 13824,3907 C 13839,3907 13875,3905 13900,3895 13935,3881 13937,3852 13937,3845 13937,3823 13918,3802 13884,3802 13830,3802 13755,3851 13755,3937 13755,3987 13784,4026 13832,4026 13903,4026 13945,3974 13945,3968 13945,3965 13942,3961 13938,3961 13936,3961 13935,3963 13933,3967 13893,4015 13840,4015 13833,4015 13795,4015 13790,3974 13790,3958 13790,3952 13790,3937 13798,3907 L 13824,3907 Z M 13802,3895 C 13821,3820 13871,3814 13884,3814 13908,3814 13920,3828 13920,3845 13920,3895 13842,3895 13822,3895 L 13802,3895 Z"/>
        </g>
       </g>
       <g class="com.sun.star.drawing.ClosedBezierShape">
        <g id="id29">
         <rect class="BoundingBox" stroke="none" fill="none" x="14137" y="3754" width="303" height="288"/>
         <path fill="rgb(0,0,0)" stroke="none" d="M 14430,3909 C 14435,3905 14439,3903 14439,3898 14439,3892 14435,3889 14430,3886 L 14157,3758 C 14150,3754 14149,3754 14148,3754 14142,3754 14138,3759 14138,3764 14138,3769 14140,3771 14147,3775 L 14406,3898 14147,4020 C 14140,4023 14138,4026 14138,4031 14138,4036 14142,4041 14148,4041 14149,4041 14150,4041 14157,4038 L 14430,3909 Z"/>
        </g>
       </g>
       <g class="com.sun.star.drawing.ClosedBezierShape">
        <g id="id30">
         <rect class="BoundingBox" stroke="none" fill="none" x="14633" y="3691" width="210" height="341"/>
         <path fill="rgb(0,0,0)" stroke="none" d="M 14842,3863 C 14842,3823 14840,3783 14822,3746 14799,3699 14759,3691 14738,3691 14709,3691 14672,3704 14652,3750 14636,3784 14634,3823 14634,3863 14634,3900 14636,3943 14656,3982 14677,4021 14713,4031 14738,4031 14765,4031 14802,4021 14824,3974 14840,3940 14842,3901 14842,3863 Z M 14738,4021 C 14719,4021 14689,4008 14680,3960 14675,3931 14675,3885 14675,3856 14675,3825 14675,3792 14678,3765 14689,3707 14725,3703 14738,3703 14753,3703 14786,3712 14796,3760 14801,3788 14801,3825 14801,3856 14801,3893 14801,3927 14795,3958 14788,4005 14760,4021 14738,4021 Z"/>
        </g>
       </g>
      </g>
      <g class="Group">
       <g class="com.sun.star.drawing.PolyPolygonShape">
        <g id="id31">
         <rect class="BoundingBox" stroke="none" fill="none" x="3661" y="3479" width="2001" height="438"/>
         <path fill="rgb(255,255,255)" stroke="none" d="M 4661,3916 L 3662,3916 3662,3479 5661,3479 5661,3916 4661,3916 Z"/>
        </g>
       </g>
       <g class="com.sun.star.drawing.ClosedBezierShape">
        <g id="id32">
         <rect class="BoundingBox" stroke="none" fill="none" x="3687" y="3602" width="185" height="226"/>
         <path fill="rgb(0,0,0)" stroke="none" d="M 3856,3636 C 3841,3636 3832,3647 3832,3658 3832,3665 3837,3673 3847,3673 3858,3673 3870,3664 3870,3645 3870,3623 3849,3602 3811,3602 3746,3602 3727,3653 3727,3674 3727,3713 3764,3721 3778,3723 3804,3729 3830,3733 3830,3761 3830,3774 3819,3815 3759,3815 3752,3815 3714,3815 3702,3789 3721,3792 3734,3777 3734,3763 3734,3751 3726,3746 3716,3746 3702,3746 3688,3756 3688,3778 3688,3806 3716,3826 3758,3826 3839,3826 3858,3767 3858,3745 3858,3727 3849,3714 3842,3708 3829,3694 3815,3692 3793,3687 3775,3683 3756,3680 3756,3657 3756,3644 3767,3614 3811,3614 3823,3614 3848,3617 3856,3636 Z"/>
        </g>
       </g>
       <g class="com.sun.star.drawing.ClosedBezierShape">
        <g id="id33">
         <rect class="BoundingBox" stroke="none" fill="none" x="3912" y="3477" width="109" height="351"/>
         <path fill="rgb(0,0,0)" stroke="none" d="M 4019,3484 C 4019,3482 4019,3478 4013,3478 4001,3478 3965,3482 3952,3482 3949,3484 3943,3484 3943,3494 3943,3499 3948,3499 3955,3499 3979,3499 3979,3503 3979,3507 L 3978,3517 3915,3764 C 3914,3769 3913,3773 3913,3780 3913,3808 3935,3826 3958,3826 3974,3826 3987,3816 3996,3798 4005,3779 4010,3751 4010,3750 4010,3745 4006,3745 4005,3745 3999,3745 3999,3747 3997,3754 3989,3786 3979,3815 3960,3815 3944,3815 3944,3799 3944,3793 3944,3780 3945,3778 3948,3769 L 4019,3484 Z"/>
        </g>
       </g>
       <g class="com.sun.star.drawing.ClosedBezierShape">
        <g id="id34">
         <rect class="BoundingBox" stroke="none" fill="none" x="4067" y="3602" width="214" height="226"/>
         <path fill="rgb(0,0,0)" stroke="none" d="M 4279,3686 C 4279,3635 4244,3602 4200,3602 4133,3602 4067,3673 4067,3742 4067,3792 4101,3826 4147,3826 4212,3826 4279,3758 4279,3686 Z M 4147,3815 C 4126,3815 4104,3801 4104,3761 4104,3738 4117,3684 4132,3658 4157,3620 4186,3614 4200,3614 4229,3614 4243,3637 4243,3666 4243,3686 4233,3738 4214,3770 4197,3798 4169,3815 4147,3815 Z"/>
        </g>
       </g>
       <g class="com.sun.star.drawing.ClosedBezierShape">
        <g id="id35">
         <rect class="BoundingBox" stroke="none" fill="none" x="4270" y="3602" width="259" height="315"/>
         <path fill="rgb(0,0,0)" stroke="none" d="M 4308,3881 C 4304,3898 4304,3901 4281,3901 4276,3901 4270,3901 4270,3910 4270,3915 4272,3916 4277,3916 4290,3916 4304,3915 4318,3915 4334,3915 4351,3916 4366,3916 4370,3916 4375,3916 4375,3907 4375,3901 4371,3901 4364,3901 4340,3901 4340,3898 4340,3894 4340,3887 4360,3807 4363,3795 4370,3808 4383,3826 4409,3826 4466,3826 4528,3754 4528,3682 4528,3635 4500,3602 4463,3602 4438,3602 4413,3620 4398,3639 4392,3612 4371,3602 4353,3602 4331,3602 4320,3621 4316,3630 4308,3647 4301,3677 4301,3679 4301,3683 4306,3683 4307,3683 4313,3683 4313,3683 4316,3672 4324,3637 4334,3614 4352,3614 4360,3614 4366,3617 4366,3636 4366,3647 4365,3653 4363,3661 L 4308,3881 Z M 4396,3666 C 4399,3653 4412,3639 4421,3631 4438,3617 4453,3614 4460,3614 4481,3614 4493,3630 4493,3659 4493,3689 4476,3746 4467,3765 4450,3798 4427,3815 4409,3815 4375,3815 4370,3774 4370,3771 4370,3770 4370,3769 4371,3764 L 4396,3666 Z"/>
        </g>
       </g>
       <g class="com.sun.star.drawing.ClosedBezierShape">
        <g id="id36">
         <rect class="BoundingBox" stroke="none" fill="none" x="4554" y="3602" width="192" height="226"/>
         <path fill="rgb(0,0,0)" stroke="none" d="M 4624,3707 C 4639,3707 4675,3705 4700,3695 4735,3681 4737,3652 4737,3645 4737,3623 4718,3602 4684,3602 4630,3602 4555,3651 4555,3737 4555,3787 4584,3826 4632,3826 4703,3826 4745,3774 4745,3768 4745,3765 4742,3761 4738,3761 4736,3761 4735,3763 4733,3767 4693,3815 4640,3815 4633,3815 4595,3815 4590,3774 4590,3758 4590,3752 4590,3737 4598,3707 L 4624,3707 Z M 4602,3695 C 4621,3620 4671,3614 4684,3614 4708,3614 4720,3628 4720,3645 4720,3695 4642,3695 4622,3695 L 4602,3695 Z"/>
        </g>
       </g>
       <g class="com.sun.star.drawing.ClosedBezierShape">
        <g id="id37">
         <rect class="BoundingBox" stroke="none" fill="none" x="4937" y="3554" width="303" height="288"/>
         <path fill="rgb(0,0,0)" stroke="none" d="M 5230,3575 C 5235,3572 5239,3570 5239,3564 5239,3559 5234,3554 5230,3554 5228,3554 5226,3554 5221,3558 L 4947,3686 C 4942,3689 4938,3692 4938,3698 4938,3703 4942,3705 4947,3709 L 5221,3838 C 5226,3841 5228,3841 5230,3841 5234,3841 5239,3836 5239,3831 5239,3825 5235,3823 5230,3820 L 4971,3698 5230,3575 Z"/>
        </g>
       </g>
       <g class="com.sun.star.drawing.ClosedBezierShape">
        <g id="id38">
         <rect class="BoundingBox" stroke="none" fill="none" x="5433" y="3491" width="210" height="341"/>
         <path fill="rgb(0,0,0)" stroke="none" d="M 5642,3663 C 5642,3623 5640,3583 5622,3546 5599,3499 5559,3491 5538,3491 5509,3491 5472,3504 5452,3550 5436,3584 5434,3623 5434,3663 5434,3700 5436,3743 5456,3782 5477,3821 5513,3831 5538,3831 5565,3831 5602,3821 5624,3774 5640,3740 5642,3701 5642,3663 Z M 5538,3821 C 5519,3821 5489,3808 5480,3760 5475,3731 5475,3685 5475,3656 5475,3625 5475,3592 5478,3565 5489,3507 5525,3503 5538,3503 5553,3503 5586,3512 5596,3560 5601,3588 5601,3625 5601,3656 5601,3693 5601,3727 5595,3758 5588,3805 5560,3821 5538,3821 Z"/>
        </g>
       </g>
      </g>
      <g class="Group">
       <g class="com.sun.star.drawing.PolyPolygonShape">
        <g id="id39">
         <rect class="BoundingBox" stroke="none" fill="none" x="3828" y="3978" width="2291" height="439"/>
         <path fill="rgb(255,255,255)" stroke="none" d="M 4974,4415 L 3828,4415 3828,3978 6118,3978 6118,4415 4974,4415 Z"/>
        </g>
       </g>
       <g class="com.sun.star.drawing.ClosedBezierShape">
        <g id="id40">
         <rect class="BoundingBox" stroke="none" fill="none" x="3843" y="4101" width="387" height="220"/>
         <path fill="rgb(0,0,0)" stroke="none" d="M 3882,4150 L 3882,4283 C 3882,4304 3877,4304 3844,4304 L 3844,4320 C 3860,4320 3886,4319 3900,4319 3912,4319 3938,4320 3955,4320 L 3955,4304 C 3922,4304 3916,4304 3916,4283 L 3916,4191 C 3916,4140 3951,4113 3983,4113 4014,4113 4019,4140 4019,4168 L 4019,4283 C 4019,4304 4014,4304 3980,4304 L 3980,4320 C 3998,4320 4023,4319 4036,4319 4050,4319 4075,4320 4092,4320 L 4092,4304 C 4059,4304 4053,4304 4053,4283 L 4053,4191 C 4053,4140 4089,4113 4120,4113 4152,4113 4156,4140 4156,4168 L 4156,4283 C 4156,4304 4152,4304 4118,4304 L 4118,4320 C 4135,4320 4161,4319 4174,4319 4186,4319 4212,4320 4229,4320 L 4229,4304 C 4203,4304 4191,4304 4191,4290 L 4191,4196 C 4191,4153 4191,4137 4175,4119 4168,4112 4152,4101 4124,4101 4082,4101 4060,4131 4052,4150 4045,4107 4008,4101 3986,4101 3950,4101 3927,4123 3913,4153 L 3913,4101 3844,4107 3844,4123 C 3878,4123 3882,4126 3882,4150 Z"/>
        </g>
       </g>
       <g class="com.sun.star.drawing.ClosedBezierShape">
        <g id="id41">
         <rect class="BoundingBox" stroke="none" fill="none" x="4250" y="4098" width="221" height="229"/>
         <path fill="rgb(0,0,0)" stroke="none" d="M 4470,4214 C 4470,4151 4419,4098 4360,4098 4298,4098 4250,4152 4250,4214 4250,4277 4302,4326 4360,4326 4419,4326 4470,4276 4470,4214 Z M 4360,4313 C 4339,4313 4317,4302 4304,4280 4292,4258 4292,4228 4292,4210 4292,4191 4292,4164 4303,4142 4316,4119 4340,4109 4360,4109 4381,4109 4402,4119 4415,4141 4428,4162 4428,4191 4428,4210 4428,4228 4428,4255 4417,4276 4407,4299 4385,4313 4360,4313 Z"/>
        </g>
       </g>
       <g class="com.sun.star.drawing.ClosedBezierShape">
        <g id="id42">
         <rect class="BoundingBox" stroke="none" fill="none" x="4477" y="4107" width="244" height="220"/>
         <path fill="rgb(0,0,0)" stroke="none" d="M 4673,4155 C 4678,4144 4687,4123 4719,4123 L 4719,4107 C 4708,4108 4694,4108 4682,4108 4670,4108 4648,4107 4639,4107 L 4639,4123 C 4658,4123 4663,4134 4663,4144 4663,4148 4662,4150 4660,4155 L 4610,4282 4554,4144 C 4551,4137 4551,4136 4551,4135 4551,4123 4570,4123 4579,4123 L 4579,4107 C 4565,4107 4537,4108 4526,4108 4512,4108 4492,4108 4477,4107 L 4477,4123 C 4509,4123 4511,4125 4517,4141 L 4588,4317 C 4592,4323 4592,4326 4598,4326 4605,4326 4607,4321 4609,4317 L 4673,4155 Z"/>
        </g>
       </g>
       <g class="com.sun.star.drawing.ClosedBezierShape">
        <g id="id43">
         <rect class="BoundingBox" stroke="none" fill="none" x="4726" y="4098" width="193" height="229"/>
         <path fill="rgb(0,0,0)" stroke="none" d="M 4768,4196 C 4771,4122 4812,4109 4829,4109 4879,4109 4885,4175 4885,4196 L 4768,4196 Z M 4768,4206 L 4905,4206 C 4916,4206 4918,4206 4918,4196 4918,4146 4891,4098 4829,4098 4772,4098 4726,4148 4726,4211 4726,4277 4778,4326 4835,4326 4895,4326 4918,4271 4918,4261 4918,4256 4913,4255 4911,4255 4906,4255 4905,4258 4905,4262 4887,4313 4843,4313 4838,4313 4813,4313 4793,4298 4782,4280 4768,4256 4768,4224 4768,4206 Z"/>
        </g>
       </g>
       <g class="com.sun.star.drawing.ClosedBezierShape">
        <g id="id44">
         <rect class="BoundingBox" stroke="none" fill="none" x="5107" y="4101" width="169" height="220"/>
         <path fill="rgb(0,0,0)" stroke="none" d="M 5176,4156 L 5176,4101 5108,4107 5108,4123 C 5143,4123 5146,4126 5146,4150 L 5146,4283 C 5146,4304 5142,4304 5108,4304 L 5108,4320 C 5127,4320 5150,4319 5164,4319 5184,4319 5208,4319 5228,4320 L 5228,4304 5217,4304 C 5181,4304 5180,4300 5180,4282 L 5180,4206 C 5180,4156 5200,4113 5238,4113 5241,4113 5242,4113 5243,4113 5241,4114 5232,4119 5232,4132 5232,4146 5242,4153 5254,4153 5262,4153 5275,4147 5275,4132 5275,4116 5259,4101 5238,4101 5202,4101 5184,4135 5176,4156 Z"/>
        </g>
       </g>
       <g class="com.sun.star.drawing.ClosedBezierShape">
        <g id="id45">
         <rect class="BoundingBox" stroke="none" fill="none" x="5302" y="3989" width="109" height="332"/>
         <path fill="rgb(0,0,0)" stroke="none" d="M 5374,4101 L 5305,4107 5305,4123 C 5337,4123 5342,4125 5342,4150 L 5342,4282 C 5342,4304 5336,4304 5303,4304 L 5303,4320 C 5318,4319 5345,4319 5358,4319 5374,4319 5392,4319 5409,4320 L 5409,4304 C 5377,4304 5374,4302 5374,4283 L 5374,4101 Z M 5377,4015 C 5377,3999 5364,3989 5350,3989 5334,3989 5324,4003 5324,4015 5324,4029 5334,4042 5350,4042 5364,4042 5377,4031 5377,4015 Z"/>
        </g>
       </g>
       <g class="com.sun.star.drawing.ClosedBezierShape">
        <g id="id46">
         <rect class="BoundingBox" stroke="none" fill="none" x="5436" y="4095" width="228" height="328"/>
         <path fill="rgb(0,0,0)" stroke="none" d="M 5532,4235 C 5489,4235 5489,4185 5489,4174 5489,4161 5490,4145 5497,4133 5501,4126 5512,4113 5532,4113 5575,4113 5575,4162 5575,4173 5575,4187 5575,4202 5567,4215 5563,4221 5551,4235 5532,4235 Z M 5474,4254 C 5474,4252 5474,4240 5483,4230 5502,4245 5522,4246 5532,4246 5578,4246 5612,4212 5612,4174 5612,4155 5604,4137 5592,4126 5610,4109 5628,4107 5636,4107 5638,4107 5640,4107 5641,4107 5635,4109 5633,4115 5633,4120 5633,4129 5640,4135 5648,4135 5652,4135 5662,4132 5662,4120 5662,4112 5656,4096 5636,4096 5626,4096 5605,4099 5584,4119 5564,4103 5542,4101 5532,4101 5486,4101 5452,4135 5452,4173 5452,4196 5463,4214 5475,4225 5469,4231 5460,4248 5460,4265 5460,4281 5466,4300 5482,4309 5452,4318 5436,4339 5436,4359 5436,4394 5485,4422 5546,4422 5604,4422 5656,4396 5656,4358 5656,4340 5648,4316 5623,4301 5596,4287 5568,4287 5538,4287 5526,4287 5504,4287 5501,4287 5485,4285 5474,4270 5474,4254 Z M 5546,4410 C 5495,4410 5462,4385 5462,4359 5462,4336 5481,4318 5502,4317 L 5531,4317 C 5574,4317 5630,4317 5630,4359 5630,4385 5594,4410 5546,4410 Z"/>
        </g>
       </g>
       <g class="com.sun.star.drawing.ClosedBezierShape">
        <g id="id47">
         <rect class="BoundingBox" stroke="none" fill="none" x="5683" y="3977" width="251" height="344"/>
         <path fill="rgb(0,0,0)" stroke="none" d="M 5722,4282 C 5722,4304 5717,4304 5684,4304 L 5684,4320 C 5700,4319 5726,4319 5740,4319 5752,4319 5778,4319 5794,4320 L 5794,4304 C 5762,4304 5756,4304 5756,4282 L 5756,4191 C 5756,4140 5791,4113 5822,4113 5854,4113 5859,4140 5859,4168 L 5859,4282 C 5859,4304 5854,4304 5821,4304 L 5821,4320 C 5838,4319 5864,4319 5877,4319 5890,4319 5915,4319 5932,4320 L 5932,4304 C 5906,4304 5894,4304 5894,4290 L 5894,4196 C 5894,4153 5894,4137 5878,4119 5872,4112 5855,4101 5827,4101 5784,4101 5763,4132 5755,4150 L 5755,3977 5684,3983 5684,3998 C 5718,3998 5722,4002 5722,4025 L 5722,4282 Z"/>
        </g>
       </g>
       <g class="com.sun.star.drawing.ClosedBezierShape">
        <g id="id48">
         <rect class="BoundingBox" stroke="none" fill="none" x="5935" y="4016" width="158" height="311"/>
         <path fill="rgb(0,0,0)" stroke="none" d="M 6012,4123 L 6082,4123 6082,4107 6012,4107 6012,4016 5999,4016 C 5999,4057 5984,4109 5935,4112 L 5935,4123 5978,4123 5978,4258 C 5978,4320 6024,4326 6042,4326 6077,4326 6091,4291 6091,4258 L 6091,4230 6078,4230 6078,4258 C 6078,4294 6063,4313 6045,4313 6012,4313 6012,4268 6012,4259 L 6012,4123 Z"/>
        </g>
       </g>
      </g>
      <g class="Group">
       <g class="com.sun.star.drawing.PolyPolygonShape">
        <g id="id49">
         <rect class="BoundingBox" stroke="none" fill="none" x="12786" y="4199" width="1964" height="344"/>
         <path fill="rgb(255,255,255)" stroke="none" d="M 13768,4541 L 12786,4541 12786,4200 14749,4200 14749,4541 13768,4541 Z"/>
        </g>
       </g>
       <g class="com.sun.star.drawing.ClosedBezierShape">
        <g id="id50">
         <rect class="BoundingBox" stroke="none" fill="none" x="12801" y="4322" width="388" height="221"/>
         <path fill="rgb(0,0,0)" stroke="none" d="M 12840,4371 L 12840,4504 C 12840,4526 12835,4526 12802,4526 L 12802,4541 C 12818,4541 12844,4540 12858,4540 12870,4540 12896,4541 12913,4541 L 12913,4526 C 12880,4526 12875,4526 12875,4504 L 12875,4413 C 12875,4361 12909,4334 12941,4334 12972,4334 12978,4361 12978,4389 L 12978,4504 C 12978,4526 12972,4526 12938,4526 L 12938,4541 C 12956,4541 12981,4540 12994,4540 13008,4540 13034,4541 13050,4541 L 13050,4526 C 13017,4526 13011,4526 13011,4504 L 13011,4413 C 13011,4361 13047,4334 13078,4334 13110,4334 13114,4361 13114,4389 L 13114,4504 C 13114,4526 13110,4526 13076,4526 L 13076,4541 C 13093,4541 13119,4540 13132,4540 13145,4540 13170,4541 13187,4541 L 13187,4526 C 13161,4526 13149,4526 13149,4511 L 13149,4417 C 13149,4374 13149,4359 13133,4341 13127,4333 13110,4323 13082,4323 13040,4323 13018,4352 13010,4371 13003,4329 12966,4323 12944,4323 12908,4323 12885,4344 12871,4374 L 12871,4323 12802,4329 12802,4344 C 12836,4344 12840,4348 12840,4371 Z"/>
        </g>
       </g>
       <g class="com.sun.star.drawing.ClosedBezierShape">
        <g id="id51">
         <rect class="BoundingBox" stroke="none" fill="none" x="13208" y="4319" width="222" height="229"/>
         <path fill="rgb(0,0,0)" stroke="none" d="M 13428,4435 C 13428,4372 13378,4320 13318,4320 13257,4320 13208,4373 13208,4435 13208,4499 13260,4547 13318,4547 13378,4547 13428,4498 13428,4435 Z M 13318,4535 C 13297,4535 13276,4523 13262,4501 13250,4480 13250,4450 13250,4432 13250,4413 13250,4386 13261,4363 13275,4341 13298,4331 13318,4331 13339,4331 13361,4341 13373,4362 13387,4383 13387,4413 13387,4432 13387,4450 13387,4476 13375,4498 13365,4520 13343,4535 13318,4535 Z"/>
        </g>
       </g>
       <g class="com.sun.star.drawing.ClosedBezierShape">
        <g id="id52">
         <rect class="BoundingBox" stroke="none" fill="none" x="13435" y="4328" width="244" height="220"/>
         <path fill="rgb(0,0,0)" stroke="none" d="M 13632,4377 C 13636,4366 13645,4344 13678,4344 L 13678,4329 C 13667,4330 13652,4330 13641,4330 13629,4330 13606,4329 13597,4329 L 13597,4344 C 13616,4344 13622,4355 13622,4366 13622,4370 13621,4371 13618,4377 L 13568,4503 13512,4366 C 13510,4359 13510,4358 13510,4357 13510,4344 13529,4344 13538,4344 L 13538,4329 C 13523,4329 13495,4330 13484,4330 13471,4330 13450,4330 13436,4329 L 13436,4344 C 13467,4344 13469,4346 13475,4362 L 13547,4538 C 13550,4545 13550,4547 13557,4547 13564,4547 13566,4543 13567,4538 L 13632,4377 Z"/>
        </g>
       </g>
       <g class="com.sun.star.drawing.ClosedBezierShape">
        <g id="id53">
         <rect class="BoundingBox" stroke="none" fill="none" x="13684" y="4319" width="194" height="229"/>
         <path fill="rgb(0,0,0)" stroke="none" d="M 13726,4417 C 13729,4343 13771,4331 13788,4331 13838,4331 13844,4397 13844,4417 L 13726,4417 Z M 13726,4427 L 13864,4427 C 13875,4427 13876,4427 13876,4417 13876,4368 13849,4320 13788,4320 13731,4320 13685,4370 13685,4433 13685,4499 13736,4547 13793,4547 13854,4547 13876,4492 13876,4482 13876,4478 13872,4476 13869,4476 13865,4476 13864,4480 13864,4483 13846,4535 13801,4535 13797,4535 13772,4535 13752,4519 13741,4501 13726,4478 13726,4445 13726,4427 Z"/>
        </g>
       </g>
       <g class="com.sun.star.drawing.ClosedBezierShape">
        <g id="id54">
         <rect class="BoundingBox" stroke="none" fill="none" x="14070" y="4198" width="112" height="345"/>
         <path fill="rgb(0,0,0)" stroke="none" d="M 14142,4199 L 14070,4204 14070,4220 C 14105,4220 14109,4223 14109,4247 L 14109,4503 C 14109,4526 14104,4526 14070,4526 L 14070,4541 C 14087,4540 14113,4540 14125,4540 14137,4540 14162,4540 14181,4541 L 14181,4526 C 14147,4526 14142,4526 14142,4503 L 14142,4199 Z"/>
        </g>
       </g>
       <g class="com.sun.star.drawing.ClosedBezierShape">
        <g id="id55">
         <rect class="BoundingBox" stroke="none" fill="none" x="14203" y="4319" width="193" height="229"/>
         <path fill="rgb(0,0,0)" stroke="none" d="M 14245,4417 C 14248,4343 14290,4331 14306,4331 14357,4331 14362,4397 14362,4417 L 14245,4417 Z M 14245,4427 L 14383,4427 C 14394,4427 14395,4427 14395,4417 14395,4368 14368,4320 14306,4320 14249,4320 14203,4370 14203,4433 14203,4499 14255,4547 14312,4547 14373,4547 14395,4492 14395,4482 14395,4478 14390,4476 14388,4476 14384,4476 14383,4480 14383,4483 14365,4535 14320,4535 14315,4535 14291,4535 14271,4519 14259,4501 14245,4478 14245,4445 14245,4427 Z"/>
        </g>
       </g>
       <g class="com.sun.star.drawing.ClosedBezierShape">
        <g id="id56">
         <rect class="BoundingBox" stroke="none" fill="none" x="14424" y="4192" width="162" height="351"/>
         <path fill="rgb(0,0,0)" stroke="none" d="M 14495,4329 L 14495,4271 C 14495,4228 14518,4204 14541,4204 14542,4204 14548,4204 14556,4208 14551,4210 14542,4215 14542,4228 14542,4239 14550,4249 14563,4249 14578,4249 14584,4239 14584,4228 14584,4210 14566,4193 14541,4193 14506,4193 14463,4219 14463,4271 L 14463,4329 14424,4329 14424,4343 14463,4343 14463,4503 C 14463,4526 14458,4526 14424,4526 L 14424,4541 C 14444,4540 14467,4539 14481,4539 14501,4539 14524,4539 14544,4541 L 14544,4526 14534,4526 C 14497,4526 14496,4520 14496,4502 L 14496,4343 14553,4343 14553,4329 14495,4329 Z"/>
        </g>
       </g>
       <g class="com.sun.star.drawing.ClosedBezierShape">
        <g id="id57">
         <rect class="BoundingBox" stroke="none" fill="none" x="14566" y="4237" width="156" height="311"/>
         <path fill="rgb(0,0,0)" stroke="none" d="M 14643,4344 L 14713,4344 14713,4329 14643,4329 14643,4238 14630,4238 C 14630,4278 14615,4331 14566,4333 L 14566,4344 14609,4344 14609,4480 C 14609,4541 14655,4547 14673,4547 14708,4547 14721,4512 14721,4480 L 14721,4452 14709,4452 14709,4480 C 14709,4516 14694,4535 14676,4535 14643,4535 14643,4490 14643,4481 L 14643,4344 Z"/>
        </g>
       </g>
      </g>
      <g class="Group">
       <g class="com.sun.star.drawing.PolyPolygonShape">
        <g id="id58">
         <rect class="BoundingBox" stroke="none" fill="none" x="7324" y="9098" width="555" height="276"/>
         <path fill="rgb(255,255,255)" stroke="none" d="M 7602,9373 L 7325,9373 7325,9099 7878,9099 7878,9373 7602,9373 Z"/>
        </g>
       </g>
       <g class="com.sun.star.drawing.ClosedBezierShape">
        <g id="id59">
         <rect class="BoundingBox" stroke="none" fill="none" x="7339" y="9092" width="329" height="225"/>
         <path fill="rgb(0,0,0)" stroke="none" d="M 7553,9142 C 7556,9132 7560,9113 7560,9111 7560,9102 7553,9098 7547,9098 7540,9098 7531,9101 7528,9111 7526,9114 7503,9210 7500,9222 7496,9236 7495,9245 7495,9254 7495,9260 7495,9261 7496,9263 7485,9290 7469,9305 7450,9305 7411,9305 7411,9269 7411,9260 7411,9244 7413,9225 7437,9164 7443,9149 7445,9142 7445,9132 7445,9110 7429,9092 7404,9092 7357,9092 7340,9164 7340,9168 7340,9173 7344,9173 7345,9173 7351,9173 7351,9173 7353,9164 7366,9118 7385,9103 7403,9103 7408,9103 7416,9103 7416,9119 7416,9131 7410,9146 7407,9154 7385,9212 7379,9235 7379,9253 7379,9299 7412,9316 7449,9316 7457,9316 7481,9316 7501,9281 7513,9313 7548,9316 7562,9316 7599,9316 7621,9285 7634,9255 7651,9216 7666,9150 7666,9127 7666,9100 7653,9092 7644,9092 7632,9092 7619,9104 7619,9116 7619,9122 7623,9126 7627,9129 7633,9135 7645,9147 7645,9171 7645,9188 7631,9236 7618,9261 7605,9288 7588,9305 7563,9305 7540,9305 7528,9290 7528,9262 7528,9249 7531,9233 7532,9226 L 7553,9142 Z"/>
        </g>
       </g>
       <g class="com.sun.star.drawing.ClosedBezierShape">
        <g id="id60">
         <rect class="BoundingBox" stroke="none" fill="none" x="7706" y="9222" width="143" height="152"/>
         <path fill="rgb(0,0,0)" stroke="none" d="M 7788,9298 C 7816,9286 7829,9280 7838,9277 7844,9273 7848,9272 7848,9266 7848,9260 7843,9254 7837,9254 7834,9254 7833,9254 7830,9258 L 7783,9289 7787,9238 C 7788,9232 7787,9223 7777,9223 7773,9223 7766,9225 7766,9233 7766,9236 7768,9246 7768,9250 7768,9257 7772,9281 7772,9289 L 7725,9258 C 7721,9255 7720,9254 7718,9254 7711,9254 7707,9260 7707,9266 7707,9272 7711,9274 7715,9276 L 7766,9298 C 7738,9310 7725,9315 7717,9319 7710,9322 7707,9324 7707,9329 7707,9336 7711,9341 7718,9341 7720,9341 7720,9341 7725,9338 L 7772,9306 7766,9362 C 7766,9370 7773,9373 7777,9373 7782,9373 7788,9370 7788,9362 7788,9358 7786,9348 7786,9345 7785,9339 7783,9314 7783,9306 L 7824,9334 C 7833,9341 7833,9341 7837,9341 7843,9341 7848,9336 7848,9329 7848,9323 7843,9322 7840,9319 L 7788,9298 Z"/>
        </g>
       </g>
      </g>
      <g class="com.sun.star.drawing.LineShape">
       <g id="id61">
        <rect class="BoundingBox" stroke="none" fill="none" x="7577" y="6986" width="4" height="1400"/>
        <path fill="none" stroke="rgb(0,0,0)" d="M 7579,6987 L 7579,7040"/>
        <path fill="none" stroke="rgb(0,0,0)" d="M 7579,7072 L 7579,7126"/>
        <path fill="none" stroke="rgb(0,0,0)" d="M 7579,7158 L 7579,7211"/>
        <path fill="none" stroke="rgb(0,0,0)" d="M 7579,7243 L 7579,7296"/>
        <path fill="none" stroke="rgb(0,0,0)" d="M 7579,7329 L 7579,7382"/>
        <path fill="none" stroke="rgb(0,0,0)" d="M 7579,7414 L 7579,7467"/>
        <path fill="none" stroke="rgb(0,0,0)" d="M 7579,7500 L 7579,7553"/>
        <path fill="none" stroke="rgb(0,0,0)" d="M 7579,7585 L 7579,7638"/>
        <path fill="none" stroke="rgb(0,0,0)" d="M 7579,7670 L 7578,7724"/>
        <path fill="none" stroke="rgb(0,0,0)" d="M 7578,7756 L 7578,7809"/>
        <path fill="none" stroke="rgb(0,0,0)" d="M 7578,7841 L 7578,7894"/>
        <path fill="none" stroke="rgb(0,0,0)" d="M 7578,7927 L 7578,7980"/>
        <path fill="none" stroke="rgb(0,0,0)" d="M 7578,8012 L 7578,8065"/>
        <path fill="none" stroke="rgb(0,0,0)" d="M 7578,8098 L 7578,8151"/>
        <path fill="none" stroke="rgb(0,0,0)" d="M 7578,8183 L 7578,8236"/>
        <path fill="none" stroke="rgb(0,0,0)" d="M 7578,8268 L 7578,8322"/>
        <path fill="none" stroke="rgb(0,0,0)" d="M 7578,8354 L 7578,8384"/>
       </g>
      </g>
      <g class="com.sun.star.drawing.CustomShape">
       <g id="id62">
        <rect class="BoundingBox" stroke="none" fill="none" x="7197" y="8101" width="766" height="817"/>
        <path fill="rgb(227,210,0)" stroke="none" d="M 7198,8509 L 7352,8567 7352,8450 7198,8509 Z M 7198,8102 L 7198,8102 Z M 7961,8916 L 7961,8916 Z"/>
        <path fill="none" stroke="rgb(227,210,0)" d="M 7198,8509 L 7352,8567 7352,8450 7198,8509 Z"/>
        <path fill="none" stroke="rgb(227,210,0)" d="M 7198,8102 L 7198,8102 Z"/>
        <path fill="none" stroke="rgb(227,210,0)" d="M 7961,8916 L 7961,8916 Z"/>
        <path fill="rgb(227,210,0)" stroke="none" d="M 7309,8796 L 7458,8721 7380,8638 7309,8796 Z M 7198,8102 L 7198,8102 Z M 7961,8916 L 7961,8916 Z"/>
        <path fill="none" stroke="rgb(227,210,0)" d="M 7309,8796 L 7458,8721 7380,8638 7309,8796 Z"/>
        <path fill="none" stroke="rgb(227,210,0)" d="M 7198,8102 L 7198,8102 Z"/>
        <path fill="none" stroke="rgb(227,210,0)" d="M 7961,8916 L 7961,8916 Z"/>
        <path fill="rgb(227,210,0)" stroke="none" d="M 7579,8916 L 7634,8750 7524,8750 7579,8916 Z M 7198,8102 L 7198,8102 Z M 7961,8916 L 7961,8916 Z"/>
        <path fill="none" stroke="rgb(227,210,0)" d="M 7579,8916 L 7634,8750 7524,8750 7579,8916 Z"/>
        <path fill="none" stroke="rgb(227,210,0)" d="M 7198,8102 L 7198,8102 Z"/>
        <path fill="none" stroke="rgb(227,210,0)" d="M 7961,8916 L 7961,8916 Z"/>
        <path fill="rgb(227,210,0)" stroke="none" d="M 7849,8796 L 7778,8638 7700,8721 7849,8796 Z M 7198,8102 L 7198,8102 Z M 7961,8916 L 7961,8916 Z"/>
        <path fill="none" stroke="rgb(227,210,0)" d="M 7849,8796 L 7778,8638 7700,8721 7849,8796 Z"/>
        <path fill="none" stroke="rgb(227,210,0)" d="M 7198,8102 L 7198,8102 Z"/>
        <path fill="none" stroke="rgb(227,210,0)" d="M 7961,8916 L 7961,8916 Z"/>
        <path fill="rgb(227,210,0)" stroke="none" d="M 7961,8509 L 7806,8450 7806,8567 7961,8509 Z M 7198,8102 L 7198,8102 Z M 7961,8916 L 7961,8916 Z"/>
        <path fill="none" stroke="rgb(227,210,0)" d="M 7961,8509 L 7806,8450 7806,8567 7961,8509 Z"/>
        <path fill="none" stroke="rgb(227,210,0)" d="M 7198,8102 L 7198,8102 Z"/>
        <path fill="none" stroke="rgb(227,210,0)" d="M 7961,8916 L 7961,8916 Z"/>
        <path fill="rgb(227,210,0)" stroke="none" d="M 7849,8221 L 7700,8296 7778,8379 7849,8221 Z M 7198,8102 L 7198,8102 Z M 7961,8916 L 7961,8916 Z"/>
        <path fill="none" stroke="rgb(227,210,0)" d="M 7849,8221 L 7700,8296 7778,8379 7849,8221 Z"/>
        <path fill="none" stroke="rgb(227,210,0)" d="M 7198,8102 L 7198,8102 Z"/>
        <path fill="none" stroke="rgb(227,210,0)" d="M 7961,8916 L 7961,8916 Z"/>
        <path fill="rgb(227,210,0)" stroke="none" d="M 7579,8102 L 7524,8267 7634,8267 7579,8102 Z M 7198,8102 L 7198,8102 Z M 7961,8916 L 7961,8916 Z"/>
        <path fill="none" stroke="rgb(227,210,0)" d="M 7579,8102 L 7524,8267 7634,8267 7579,8102 Z"/>
        <path fill="none" stroke="rgb(227,210,0)" d="M 7198,8102 L 7198,8102 Z"/>
        <path fill="none" stroke="rgb(227,210,0)" d="M 7961,8916 L 7961,8916 Z"/>
        <path fill="rgb(227,210,0)" stroke="none" d="M 7309,8221 L 7380,8379 7458,8296 7309,8221 Z M 7198,8102 L 7198,8102 Z M 7961,8916 L 7961,8916 Z"/>
        <path fill="none" stroke="rgb(227,210,0)" d="M 7309,8221 L 7380,8379 7458,8296 7309,8221 Z"/>
        <path fill="none" stroke="rgb(227,210,0)" d="M 7198,8102 L 7198,8102 Z"/>
        <path fill="none" stroke="rgb(227,210,0)" d="M 7961,8916 L 7961,8916 Z"/>
        <path fill="rgb(227,210,0)" stroke="none" d="M 7578,8305 C 7686,8305 7768,8393 7768,8508 7768,8623 7686,8711 7578,8711 7470,8711 7388,8623 7388,8508 7388,8393 7470,8305 7578,8305 Z M 7198,8102 L 7198,8102 Z M 7961,8916 L 7961,8916 Z"/>
        <path fill="none" stroke="rgb(227,210,0)" d="M 7578,8305 C 7686,8305 7768,8393 7768,8508 7768,8623 7686,8711 7578,8711 7470,8711 7388,8623 7388,8508 7388,8393 7470,8305 7578,8305 Z"/>
        <path fill="none" stroke="rgb(227,210,0)" d="M 7198,8102 L 7198,8102 Z"/>
        <path fill="none" stroke="rgb(227,210,0)" d="M 7961,8916 L 7961,8916 Z"/>
       </g>
      </g>
      <g class="Group">
       <g class="com.sun.star.drawing.PolyPolygonShape">
        <g id="id63">
         <rect class="BoundingBox" stroke="none" fill="none" x="5882" y="9628" width="3476" height="439"/>
         <path fill="rgb(255,255,255)" stroke="none" d="M 7619,10065 L 5882,10065 5882,9628 9357,9628 9357,10065 7619,10065 Z"/>
        </g>
       </g>
       <g class="com.sun.star.drawing.ClosedBezierShape">
        <g id="id64">
         <rect class="BoundingBox" stroke="none" fill="none" x="5895" y="9745" width="228" height="328"/>
         <path fill="rgb(0,0,0)" stroke="none" d="M 5992,9885 C 5948,9885 5948,9835 5948,9824 5948,9811 5949,9795 5956,9783 5960,9776 5972,9763 5992,9763 6034,9763 6034,9812 6034,9823 6034,9837 6034,9852 6027,9865 6022,9871 6011,9885 5992,9885 Z M 5934,9904 C 5934,9902 5934,9890 5942,9880 5962,9895 5982,9896 5992,9896 6038,9896 6071,9862 6071,9824 6071,9805 6063,9787 6051,9776 6069,9759 6087,9757 6096,9757 6097,9757 6099,9757 6100,9757 6095,9759 6093,9765 6093,9770 6093,9779 6099,9785 6107,9785 6112,9785 6122,9782 6122,9770 6122,9762 6115,9746 6096,9746 6086,9746 6065,9749 6043,9769 6023,9753 6002,9751 5992,9751 5946,9751 5911,9785 5911,9823 5911,9846 5922,9864 5935,9875 5928,9881 5919,9898 5919,9915 5919,9931 5926,9950 5941,9959 5911,9968 5895,9989 5895,10009 5895,10044 5945,10072 6005,10072 6063,10072 6115,10046 6115,10008 6115,9990 6107,9966 6083,9951 6056,9937 6028,9937 5997,9937 5985,9937 5964,9937 5960,9937 5945,9935 5934,9920 5934,9904 Z M 6005,10060 C 5955,10060 5921,10035 5921,10009 5921,9986 5940,9968 5962,9967 L 5991,9967 C 6033,9967 6089,9967 6089,10009 6089,10035 6053,10060 6005,10060 Z"/>
        </g>
       </g>
       <g class="com.sun.star.drawing.ClosedBezierShape">
        <g id="id65">
         <rect class="BoundingBox" stroke="none" fill="none" x="6143" y="9627" width="112" height="344"/>
         <path fill="rgb(0,0,0)" stroke="none" d="M 6215,9627 L 6143,9633 6143,9648 C 6178,9648 6182,9652 6182,9675 L 6182,9932 C 6182,9954 6177,9954 6143,9954 L 6143,9970 C 6160,9969 6186,9969 6198,9969 6210,9969 6235,9969 6254,9970 L 6254,9954 C 6220,9954 6215,9954 6215,9932 L 6215,9627 Z"/>
        </g>
       </g>
       <g class="com.sun.star.drawing.ClosedBezierShape">
        <g id="id66">
         <rect class="BoundingBox" stroke="none" fill="none" x="6277" y="9748" width="222" height="229"/>
         <path fill="rgb(0,0,0)" stroke="none" d="M 6497,9864 C 6497,9801 6447,9748 6387,9748 6326,9748 6277,9802 6277,9864 6277,9927 6329,9976 6387,9976 6447,9976 6497,9926 6497,9864 Z M 6387,9963 C 6366,9963 6345,9952 6331,9930 6319,9908 6319,9878 6319,9860 6319,9841 6319,9814 6330,9792 6344,9769 6367,9759 6387,9759 6409,9759 6430,9769 6442,9791 6456,9812 6456,9841 6456,9860 6456,9878 6456,9905 6444,9926 6434,9949 6412,9963 6387,9963 Z"/>
        </g>
       </g>
       <g class="com.sun.star.drawing.ClosedBezierShape">
        <g id="id67">
         <rect class="BoundingBox" stroke="none" fill="none" x="6522" y="9627" width="246" height="350"/>
         <path fill="rgb(0,0,0)" stroke="none" d="M 6594,9784 L 6594,9627 6523,9633 6523,9648 C 6558,9648 6561,9652 6561,9675 L 6561,9970 6573,9970 C 6574,9969 6578,9962 6591,9940 6599,9951 6620,9976 6656,9976 6715,9976 6767,9927 6767,9864 6767,9801 6718,9751 6662,9751 6624,9751 6602,9775 6594,9784 Z M 6596,9914 L 6596,9812 C 6596,9802 6596,9802 6601,9794 6620,9766 6647,9763 6659,9763 6682,9763 6700,9775 6711,9794 6724,9814 6726,9842 6726,9862 6726,9881 6724,9911 6710,9933 6700,9948 6681,9964 6654,9964 6633,9964 6615,9952 6602,9934 6596,9924 6596,9923 6596,9914 Z"/>
        </g>
       </g>
       <g class="com.sun.star.drawing.ClosedBezierShape">
        <g id="id68">
         <rect class="BoundingBox" stroke="none" fill="none" x="6801" y="9748" width="225" height="229"/>
         <path fill="rgb(0,0,0)" stroke="none" d="M 6945,9932 C 6947,9952 6961,9972 6984,9972 6994,9972 7025,9966 7025,9925 L 7025,9898 7012,9898 7012,9925 C 7012,9954 7000,9958 6994,9958 6979,9958 6976,9935 6976,9933 L 6976,9833 C 6976,9813 6976,9794 6959,9775 6940,9756 6915,9748 6890,9748 6850,9748 6816,9772 6816,9804 6816,9819 6826,9828 6839,9828 6852,9828 6861,9818 6861,9804 6861,9798 6859,9782 6836,9782 6850,9765 6873,9759 6890,9759 6914,9759 6942,9778 6942,9822 L 6942,9841 C 6917,9842 6882,9843 6851,9858 6814,9875 6802,9901 6802,9923 6802,9963 6850,9976 6881,9976 6914,9976 6936,9955 6945,9932 Z M 6942,9851 L 6942,9901 C 6942,9948 6907,9964 6885,9964 6860,9964 6840,9946 6840,9922 6840,9895 6861,9853 6942,9851 Z"/>
        </g>
       </g>
       <g class="com.sun.star.drawing.ClosedBezierShape">
        <g id="id69">
         <rect class="BoundingBox" stroke="none" fill="none" x="7042" y="9627" width="113" height="344"/>
         <path fill="rgb(0,0,0)" stroke="none" d="M 7114,9627 L 7043,9633 7043,9648 C 7077,9648 7082,9652 7082,9675 L 7082,9932 C 7082,9954 7076,9954 7043,9954 L 7043,9970 C 7059,9969 7085,9969 7097,9969 7110,9969 7134,9969 7153,9970 L 7153,9954 C 7120,9954 7114,9954 7114,9932 L 7114,9627 Z"/>
        </g>
       </g>
       <g class="com.sun.star.drawing.ClosedBezierShape">
        <g id="id70">
         <rect class="BoundingBox" stroke="none" fill="none" x="7341" y="9751" width="388" height="220"/>
         <path fill="rgb(0,0,0)" stroke="none" d="M 7380,9800 L 7380,9933 C 7380,9954 7375,9954 7342,9954 L 7342,9970 C 7358,9970 7384,9969 7398,9969 7410,9969 7436,9970 7453,9970 L 7453,9954 C 7420,9954 7414,9954 7414,9933 L 7414,9841 C 7414,9790 7449,9763 7481,9763 7512,9763 7518,9790 7518,9818 L 7518,9933 C 7518,9954 7512,9954 7479,9954 L 7479,9970 C 7496,9970 7521,9969 7534,9969 7548,9969 7574,9970 7590,9970 L 7590,9954 C 7557,9954 7551,9954 7551,9933 L 7551,9841 C 7551,9790 7587,9763 7618,9763 7650,9763 7654,9790 7654,9818 L 7654,9933 C 7654,9954 7650,9954 7616,9954 L 7616,9970 C 7633,9970 7659,9969 7672,9969 7684,9969 7710,9970 7727,9970 L 7727,9954 C 7701,9954 7689,9954 7689,9940 L 7689,9846 C 7689,9803 7689,9787 7673,9769 7667,9762 7650,9751 7622,9751 7580,9751 7558,9781 7550,9800 7543,9757 7506,9751 7484,9751 7448,9751 7425,9773 7411,9803 L 7411,9751 7342,9757 7342,9773 C 7376,9773 7380,9776 7380,9800 Z"/>
        </g>
       </g>
       <g class="com.sun.star.drawing.ClosedBezierShape">
        <g id="id71">
         <rect class="BoundingBox" stroke="none" fill="none" x="7751" y="9639" width="109" height="332"/>
         <path fill="rgb(0,0,0)" stroke="none" d="M 7823,9751 L 7754,9757 7754,9773 C 7786,9773 7791,9775 7791,9800 L 7791,9932 C 7791,9954 7785,9954 7752,9954 L 7752,9970 C 7767,9969 7794,9969 7807,9969 7823,9969 7841,9969 7858,9970 L 7858,9954 C 7826,9954 7823,9952 7823,9933 L 7823,9751 Z M 7826,9665 C 7826,9649 7813,9639 7799,9639 7783,9639 7773,9653 7773,9665 7773,9679 7783,9692 7799,9692 7813,9692 7826,9681 7826,9665 Z"/>
        </g>
       </g>
       <g class="com.sun.star.drawing.ClosedBezierShape">
        <g id="id72">
         <rect class="BoundingBox" stroke="none" fill="none" x="7887" y="9751" width="250" height="220"/>
         <path fill="rgb(0,0,0)" stroke="none" d="M 7925,9800 L 7925,9933 C 7925,9954 7921,9954 7887,9954 L 7887,9970 C 7904,9970 7930,9969 7943,9969 7956,9969 7981,9970 7998,9970 L 7998,9954 C 7966,9954 7960,9954 7960,9933 L 7960,9841 C 7960,9790 7995,9763 8026,9763 8058,9763 8063,9790 8063,9818 L 8063,9933 C 8063,9954 8058,9954 8025,9954 L 8025,9970 C 8042,9970 8068,9969 8081,9969 8093,9969 8119,9970 8136,9970 L 8136,9954 C 8110,9954 8098,9954 8098,9940 L 8098,9846 C 8098,9803 8098,9787 8082,9769 8075,9762 8059,9751 8031,9751 7994,9751 7971,9773 7957,9803 L 7957,9751 7887,9757 7887,9773 C 7922,9773 7925,9776 7925,9800 Z"/>
        </g>
       </g>
       <g class="com.sun.star.drawing.ClosedBezierShape">
        <g id="id73">
         <rect class="BoundingBox" stroke="none" fill="none" x="8159" y="9639" width="108" height="332"/>
         <path fill="rgb(0,0,0)" stroke="none" d="M 8231,9751 L 8162,9757 8162,9773 C 8194,9773 8199,9775 8199,9800 L 8199,9932 C 8199,9954 8193,9954 8159,9954 L 8159,9970 C 8175,9969 8202,9969 8214,9969 8231,9969 8249,9969 8266,9970 L 8266,9954 C 8233,9954 8231,9952 8231,9933 L 8231,9751 Z M 8233,9665 C 8233,9649 8221,9639 8207,9639 8191,9639 8181,9653 8181,9665 8181,9679 8191,9692 8207,9692 8221,9692 8233,9681 8233,9665 Z"/>
        </g>
       </g>
       <g class="com.sun.star.drawing.ClosedBezierShape">
        <g id="id74">
         <rect class="BoundingBox" stroke="none" fill="none" x="8295" y="9751" width="387" height="220"/>
         <path fill="rgb(0,0,0)" stroke="none" d="M 8333,9800 L 8333,9933 C 8333,9954 8327,9954 8295,9954 L 8295,9970 C 8312,9970 8338,9969 8351,9969 8363,9969 8389,9970 8406,9970 L 8406,9954 C 8373,9954 8368,9954 8368,9933 L 8368,9841 C 8368,9790 8403,9763 8434,9763 8465,9763 8471,9790 8471,9818 L 8471,9933 C 8471,9954 8465,9954 8433,9954 L 8433,9970 C 8450,9970 8474,9969 8488,9969 8501,9969 8527,9970 8544,9970 L 8544,9954 C 8510,9954 8504,9954 8504,9933 L 8504,9841 C 8504,9790 8540,9763 8572,9763 8603,9763 8608,9790 8608,9818 L 8608,9933 C 8608,9954 8603,9954 8569,9954 L 8569,9970 C 8586,9970 8612,9969 8625,9969 8638,9969 8664,9970 8680,9970 L 8680,9954 C 8655,9954 8642,9954 8642,9940 L 8642,9846 C 8642,9803 8642,9787 8627,9769 8620,9762 8603,9751 8575,9751 8534,9751 8511,9781 8503,9800 8497,9757 8460,9751 8437,9751 8401,9751 8378,9773 8364,9803 L 8364,9751 8295,9757 8295,9773 C 8330,9773 8333,9776 8333,9800 Z"/>
        </g>
       </g>
       <g class="com.sun.star.drawing.ClosedBezierShape">
        <g id="id75">
         <rect class="BoundingBox" stroke="none" fill="none" x="8690" y="9751" width="251" height="226"/>
         <path fill="rgb(0,0,0)" stroke="none" d="M 8867,9931 L 8867,9976 8939,9970 8939,9954 C 8904,9954 8901,9951 8901,9927 L 8901,9751 8828,9757 8828,9773 C 8863,9773 8866,9776 8866,9800 L 8866,9888 C 8866,9931 8843,9964 8807,9964 8766,9964 8763,9942 8763,9916 L 8763,9751 8690,9757 8690,9773 C 8729,9773 8729,9774 8729,9818 L 8729,9892 C 8729,9931 8729,9976 8805,9976 8832,9976 8854,9962 8867,9931 Z"/>
        </g>
       </g>
       <g class="com.sun.star.drawing.ClosedBezierShape">
        <g id="id76">
         <rect class="BoundingBox" stroke="none" fill="none" x="8962" y="9751" width="388" height="220"/>
         <path fill="rgb(0,0,0)" stroke="none" d="M 9001,9800 L 9001,9933 C 9001,9954 8995,9954 8963,9954 L 8963,9970 C 8979,9970 9005,9969 9019,9969 9031,9969 9057,9970 9074,9970 L 9074,9954 C 9041,9954 9035,9954 9035,9933 L 9035,9841 C 9035,9790 9070,9763 9102,9763 9133,9763 9139,9790 9139,9818 L 9139,9933 C 9139,9954 9133,9954 9099,9954 L 9099,9970 C 9117,9970 9142,9969 9155,9969 9169,9969 9195,9970 9211,9970 L 9211,9954 C 9178,9954 9172,9954 9172,9933 L 9172,9841 C 9172,9790 9208,9763 9239,9763 9270,9763 9275,9790 9275,9818 L 9275,9933 C 9275,9954 9270,9954 9237,9954 L 9237,9970 C 9254,9970 9280,9969 9293,9969 9305,9969 9331,9970 9348,9970 L 9348,9954 C 9322,9954 9310,9954 9310,9940 L 9310,9846 C 9310,9803 9310,9787 9294,9769 9288,9762 9271,9751 9243,9751 9201,9751 9179,9781 9171,9800 9164,9757 9127,9751 9105,9751 9069,9751 9046,9773 9032,9803 L 9032,9751 8963,9757 8963,9773 C 8997,9773 9001,9776 9001,9800 Z"/>
        </g>
       </g>
      </g>
     </g>
    </g>
   </g>
  </g>
 </g>
</svg>