<?xml version="1.0" encoding="UTF-8"?>
<!DOCTYPE svg PUBLIC "-//W3C//DTD SVG 1.1//EN" "http://www.w3.org/Graphics/SVG/1.1/DTD/svg11.dtd">
<svg version="1.2" width="131.57mm" height="24.89mm" viewBox="0 0 13157 2489" preserveAspectRatio="xMidYMid" fill-rule="evenodd" stroke-width="28.222" stroke-linejoin="round" xmlns="http://www.w3.org/2000/svg" xmlns:ooo="http://xml.openoffice.org/svg/export" xmlns:xlink="http://www.w3.org/1999/xlink" xmlns:presentation="http://sun.com/xmlns/staroffice/presentation" xmlns:smil="http://www.w3.org/2001/SMIL20/" xmlns:anim="urn:oasis:names:tc:opendocument:xmlns:animation:1.0" xml:space="preserve">
 <defs class="ClipPathGroup">
  <clipPath id="presentation_clip_path" clipPathUnits="userSpaceOnUse">
   <rect x="0" y="0" width="13157" height="2489"/>
  </clipPath>
  <clipPath id="presentation_clip_path_shrink" clipPathUnits="userSpaceOnUse">
   <rect x="13" y="2" width="13131" height="2485"/>
  </clipPath>
 </defs>
 <defs class="TextShapeIndex">
  <g ooo:slide="id1" ooo:id-list="id3 id4 id5 id6 id7 id8 id9 id10 id11 id12 id13 id14 id15 id16 id17 id18 id19 id20 id21 id22 id23 id24 id25 id26 id27 id28 id29 id30 id31 id32 id33"/>
 </defs>
 <defs class="EmbeddedBulletChars">
  <g id="bullet-char-template-57356" transform="scale(0.00048828125,-0.00048828125)">
   <path d="M 580,1141 L 1163,571 580,0 -4,571 580,1141 Z"/>
  </g>
  <g id="bullet-char-template-57354" transform="scale(0.00048828125,-0.00048828125)">
   <path d="M 8,1128 L 1137,1128 1137,0 8,0 8,1128 Z"/>
  </g>
  <g id="bullet-char-template-10146" transform="scale(0.00048828125,-0.00048828125)">
   <path d="M 174,0 L 602,739 174,1481 1456,739 174,0 Z M 1358,739 L 309,1346 659,739 1358,739 Z"/>
  </g>
  <g id="bullet-char-template-10132" transform="scale(0.00048828125,-0.00048828125)">
   <path d="M 2015,739 L 1276,0 717,0 1260,543 174,543 174,936 1260,936 717,1481 1274,1481 2015,739 Z"/>
  </g>
  <g id="bullet-char-template-10007" transform="scale(0.00048828125,-0.00048828125)">
   <path d="M 0,-2 C -7,14 -16,27 -25,37 L 356,567 C 262,823 215,952 215,954 215,979 228,992 255,992 264,992 276,990 289,987 310,991 331,999 354,1012 L 381,999 492,748 772,1049 836,1024 860,1049 C 881,1039 901,1025 922,1006 886,937 835,863 770,784 769,783 710,716 594,584 L 774,223 C 774,196 753,168 711,139 L 727,119 C 717,90 699,76 672,76 641,76 570,178 457,381 L 164,-76 C 142,-110 111,-127 72,-127 30,-127 9,-110 8,-76 1,-67 -2,-52 -2,-32 -2,-23 -1,-13 0,-2 Z"/>
  </g>
  <g id="bullet-char-template-10004" transform="scale(0.00048828125,-0.00048828125)">
   <path d="M 285,-33 C 182,-33 111,30 74,156 52,228 41,333 41,471 41,549 55,616 82,672 116,743 169,778 240,778 293,778 328,747 346,684 L 369,508 C 377,444 397,411 428,410 L 1163,1116 C 1174,1127 1196,1133 1229,1133 1271,1133 1292,1118 1292,1087 L 1292,965 C 1292,929 1282,901 1262,881 L 442,47 C 390,-6 338,-33 285,-33 Z"/>
  </g>
  <g id="bullet-char-template-9679" transform="scale(0.00048828125,-0.00048828125)">
   <path d="M 813,0 C 632,0 489,54 383,161 276,268 223,411 223,592 223,773 276,916 383,1023 489,1130 632,1184 813,1184 992,1184 1136,1130 1245,1023 1353,916 1407,772 1407,592 1407,412 1353,268 1245,161 1136,54 992,0 813,0 Z"/>
  </g>
  <g id="bullet-char-template-8226" transform="scale(0.00048828125,-0.00048828125)">
   <path d="M 346,457 C 273,457 209,483 155,535 101,586 74,649 74,723 74,796 101,859 155,911 209,963 273,989 346,989 419,989 480,963 531,910 582,859 608,796 608,723 608,648 583,586 532,535 482,483 420,457 346,457 Z"/>
  </g>
  <g id="bullet-char-template-8211" transform="scale(0.00048828125,-0.00048828125)">
   <path d="M -4,459 L 1135,459 1135,606 -4,606 -4,459 Z"/>
  </g>
  <g id="bullet-char-template-61548" transform="scale(0.00048828125,-0.00048828125)">
   <path d="M 173,740 C 173,903 231,1043 346,1159 462,1274 601,1332 765,1332 928,1332 1067,1274 1183,1159 1299,1043 1357,903 1357,740 1357,577 1299,437 1183,322 1067,206 928,148 765,148 601,148 462,206 346,322 231,437 173,577 173,740 Z"/>
  </g>
 </defs>
 <defs class="TextEmbeddedBitmaps"/>
 <g>
  <g id="id2" class="Master_Slide">
   <g id="bg-id2" class="Background"/>
   <g id="bo-id2" class="BackgroundObjects"/>
  </g>
 </g>
 <g class="SlideGroup">
  <g>
   <g id="container-id1">
    <g id="id1" class="Slide" clip-path="url(#presentation_clip_path)">
     <g class="Page">
      <g class="com.sun.star.drawing.CustomShape">
       <g id="id3">
        <rect class="BoundingBox" stroke="none" fill="none" x="116" y="813" width="1020" height="1020"/>
        <path fill="rgb(114,159,207)" stroke="none" d="M 625,814 C 913,814 1133,1034 1133,1322 1133,1610 913,1830 625,1830 337,1830 117,1610 117,1322 117,1034 337,814 625,814 Z M 117,814 L 117,814 Z M 1134,1831 L 1134,1831 Z"/>
        <path fill="none" stroke="rgb(52,101,164)" d="M 625,814 C 913,814 1133,1034 1133,1322 1133,1610 913,1830 625,1830 337,1830 117,1610 117,1322 117,1034 337,814 625,814 Z"/>
        <path fill="none" stroke="rgb(52,101,164)" d="M 117,814 L 117,814 Z"/>
        <path fill="none" stroke="rgb(52,101,164)" d="M 1134,1831 L 1134,1831 Z"/>
       </g>
      </g>
      <g class="com.sun.star.drawing.CustomShape">
       <g id="id4">
        <rect class="BoundingBox" stroke="none" fill="none" x="4117" y="814" width="1020" height="1020"/>
        <path fill="rgb(114,159,207)" stroke="none" d="M 4626,815 C 4914,815 5134,1035 5134,1323 5134,1611 4914,1831 4626,1831 4338,1831 4118,1611 4118,1323 4118,1035 4338,815 4626,815 Z M 4118,815 L 4118,815 Z M 5135,1832 L 5135,1832 Z"/>
        <path fill="none" stroke="rgb(52,101,164)" d="M 4626,815 C 4914,815 5134,1035 5134,1323 5134,1611 4914,1831 4626,1831 4338,1831 4118,1611 4118,1323 4118,1035 4338,815 4626,815 Z"/>
        <path fill="none" stroke="rgb(52,101,164)" d="M 4118,815 L 4118,815 Z"/>
        <path fill="none" stroke="rgb(52,101,164)" d="M 5135,1832 L 5135,1832 Z"/>
       </g>
      </g>
      <g class="com.sun.star.drawing.CustomShape">
       <g id="id5">
        <rect class="BoundingBox" stroke="none" fill="none" x="8118" y="815" width="1020" height="1020"/>
        <path fill="rgb(114,159,207)" stroke="none" d="M 8627,816 C 8915,816 9135,1036 9135,1324 9135,1612 8915,1832 8627,1832 8339,1832 8119,1612 8119,1324 8119,1036 8339,816 8627,816 Z M 8119,816 L 8119,816 Z M 9136,1833 L 9136,1833 Z"/>
        <path fill="none" stroke="rgb(52,101,164)" d="M 8627,816 C 8915,816 9135,1036 9135,1324 9135,1612 8915,1832 8627,1832 8339,1832 8119,1612 8119,1324 8119,1036 8339,816 8627,816 Z"/>
        <path fill="none" stroke="rgb(52,101,164)" d="M 8119,816 L 8119,816 Z"/>
        <path fill="none" stroke="rgb(52,101,164)" d="M 9136,1833 L 9136,1833 Z"/>
       </g>
      </g>
      <g class="com.sun.star.drawing.CustomShape">
       <g id="id6">
        <rect class="BoundingBox" stroke="none" fill="none" x="12119" y="816" width="1020" height="1020"/>
        <path fill="rgb(114,159,207)" stroke="none" d="M 12628,817 C 12916,817 13136,1037 13136,1325 13136,1613 12916,1833 12628,1833 12340,1833 12120,1613 12120,1325 12120,1037 12340,817 12628,817 Z M 12120,817 L 12120,817 Z M 13137,1834 L 13137,1834 Z"/>
        <path fill="none" stroke="rgb(52,101,164)" d="M 12628,817 C 12916,817 13136,1037 13136,1325 13136,1613 12916,1833 12628,1833 12340,1833 12120,1613 12120,1325 12120,1037 12340,817 12628,817 Z"/>
        <path fill="none" stroke="rgb(52,101,164)" d="M 12120,817 L 12120,817 Z"/>
        <path fill="none" stroke="rgb(52,101,164)" d="M 13137,1834 L 13137,1834 Z"/>
       </g>
      </g>
      <g class="com.sun.star.drawing.LineShape">
       <g id="id7">
        <rect class="BoundingBox" stroke="none" fill="none" x="1132" y="1169" width="3009" height="302"/>
        <path fill="none" stroke="rgb(0,0,0)" d="M 1133,1308 L 3710,1320"/>
        <path fill="rgb(0,0,0)" stroke="none" d="M 4140,1322 L 3691,1170 3689,1470 4140,1322 Z"/>
       </g>
      </g>
      <g class="com.sun.star.drawing.LineShape">
       <g id="id8">
        <rect class="BoundingBox" stroke="none" fill="none" x="5132" y="1174" width="3009" height="302"/>
        <path fill="none" stroke="rgb(0,0,0)" d="M 5133,1313 L 7710,1325"/>
        <path fill="rgb(0,0,0)" stroke="none" d="M 8140,1327 L 7691,1175 7689,1475 8140,1327 Z"/>
       </g>
      </g>
      <g class="com.sun.star.drawing.LineShape">
       <g id="id9">
        <rect class="BoundingBox" stroke="none" fill="none" x="9132" y="1179" width="3009" height="302"/>
        <path fill="none" stroke="rgb(0,0,0)" d="M 9133,1318 L 11710,1330"/>
        <path fill="rgb(0,0,0)" stroke="none" d="M 12140,1332 L 11691,1180 11689,1480 12140,1332 Z"/>
       </g>
      </g>
      <g class="Group">
       <g class="com.sun.star.drawing.PolyPolygonShape">
        <g id="id10">
         <rect class="BoundingBox" stroke="none" fill="none" x="277" y="155" width="478" height="289"/>
         <path fill="rgb(255,255,255)" stroke="none" d="M 516,442 L 277,442 277,156 754,156 754,442 516,442 Z"/>
        </g>
       </g>
       <g class="com.sun.star.drawing.ClosedBezierShape">
        <g id="id11">
         <rect class="BoundingBox" stroke="none" fill="none" x="291" y="149" width="248" height="226"/>
         <path fill="rgb(0,0,0)" stroke="none" d="M 443,219 C 445,205 456,160 491,160 494,160 505,160 516,166 502,169 492,182 492,193 492,201 498,211 511,211 522,211 538,202 538,182 538,156 509,149 492,149 463,149 446,175 439,187 427,153 401,149 387,149 335,149 307,213 307,225 307,230 312,230 313,230 317,230 318,230 320,225 336,173 369,160 386,160 395,160 412,165 412,193 412,209 404,242 386,311 378,342 360,362 339,362 335,362 324,362 314,357 326,353 337,343 337,330 337,316 326,312 318,312 304,312 292,325 292,341 292,364 316,374 337,374 371,374 389,339 390,336 396,355 414,374 443,374 494,374 522,310 522,297 522,293 518,293 517,293 512,293 511,294 510,297 494,351 460,362 444,362 425,362 417,347 417,330 417,319 420,309 426,286 L 443,219 Z"/>
        </g>
       </g>
       <g class="com.sun.star.drawing.ClosedBezierShape">
        <g id="id12">
         <rect class="BoundingBox" stroke="none" fill="none" x="574" y="211" width="164" height="239"/>
         <path fill="rgb(0,0,0)" stroke="none" d="M 736,332 C 736,294 732,266 715,242 705,225 683,212 655,212 575,212 575,306 575,332 575,357 575,449 655,449 736,449 736,357 736,332 Z M 655,440 C 640,440 619,430 612,402 606,382 606,352 606,328 606,302 606,276 612,257 619,229 641,222 655,222 674,222 692,233 698,253 704,271 705,297 705,328 705,352 705,378 699,401 692,432 669,440 655,440 Z"/>
        </g>
       </g>
      </g>
      <g class="Group">
       <g class="com.sun.star.drawing.PolyPolygonShape">
        <g id="id13">
         <rect class="BoundingBox" stroke="none" fill="none" x="4267" y="146" width="479" height="288"/>
         <path fill="rgb(255,255,255)" stroke="none" d="M 4506,433 L 4267,433 4267,147 4744,147 4744,433 4506,433 Z"/>
        </g>
       </g>
       <g class="com.sun.star.drawing.ClosedBezierShape">
        <g id="id14">
         <rect class="BoundingBox" stroke="none" fill="none" x="4281" y="140" width="248" height="226"/>
         <path fill="rgb(0,0,0)" stroke="none" d="M 4433,210 C 4435,196 4446,151 4481,151 4484,151 4495,151 4506,157 4492,160 4482,173 4482,184 4482,192 4488,202 4501,202 4512,202 4528,193 4528,173 4528,147 4499,140 4482,140 4453,140 4436,166 4429,178 4417,144 4391,140 4377,140 4325,140 4297,204 4297,216 4297,221 4302,221 4303,221 4307,221 4308,221 4310,216 4326,164 4359,151 4376,151 4385,151 4402,156 4402,184 4402,199 4394,233 4376,302 4368,333 4350,353 4329,353 4325,353 4314,353 4304,348 4316,344 4327,334 4327,321 4327,307 4316,303 4308,303 4294,303 4282,316 4282,332 4282,354 4306,365 4327,365 4361,365 4379,330 4380,326 4386,345 4404,365 4433,365 4484,365 4512,301 4512,288 4512,284 4508,284 4507,284 4502,284 4501,285 4500,288 4484,342 4450,353 4434,353 4415,353 4407,338 4407,321 4407,310 4410,299 4416,277 L 4433,210 Z"/>
        </g>
       </g>
       <g class="com.sun.star.drawing.ClosedBezierShape">
        <g id="id15">
         <rect class="BoundingBox" stroke="none" fill="none" x="4585" y="202" width="128" height="232"/>
         <path fill="rgb(0,0,0)" stroke="none" d="M 4663,213 C 4663,203 4663,203 4653,203 4631,224 4600,225 4585,225 L 4585,238 C 4593,238 4616,238 4635,228 L 4635,405 C 4635,416 4635,421 4601,421 L 4587,421 4587,433 C 4594,433 4637,432 4649,432 4660,432 4704,433 4712,433 L 4712,421 4698,421 C 4663,421 4663,416 4663,405 L 4663,213 Z"/>
        </g>
       </g>
      </g>
      <g class="Group">
       <g class="com.sun.star.drawing.PolyPolygonShape">
        <g id="id16">
         <rect class="BoundingBox" stroke="none" fill="none" x="8204" y="185" width="478" height="288"/>
         <path fill="rgb(255,255,255)" stroke="none" d="M 8443,472 L 8204,472 8204,186 8681,186 8681,472 8443,472 Z"/>
        </g>
       </g>
       <g class="com.sun.star.drawing.ClosedBezierShape">
        <g id="id17">
         <rect class="BoundingBox" stroke="none" fill="none" x="8218" y="179" width="248" height="226"/>
         <path fill="rgb(0,0,0)" stroke="none" d="M 8370,249 C 8372,235 8383,190 8418,190 8421,190 8432,190 8442,196 8429,199 8419,212 8419,223 8419,231 8425,241 8438,241 8449,241 8465,232 8465,212 8465,186 8436,179 8419,179 8390,179 8373,205 8366,217 8354,183 8328,179 8314,179 8262,179 8234,243 8234,255 8234,260 8239,260 8240,260 8244,260 8245,260 8247,255 8263,203 8296,190 8313,190 8322,190 8339,195 8339,223 8339,238 8331,272 8313,341 8305,372 8287,392 8266,392 8262,392 8251,392 8241,387 8253,383 8264,373 8264,360 8264,346 8253,342 8245,342 8231,342 8219,355 8219,371 8219,393 8243,404 8264,404 8298,404 8316,369 8317,365 8323,384 8341,404 8370,404 8421,404 8449,340 8449,327 8449,323 8445,323 8444,323 8439,323 8438,324 8437,327 8421,381 8387,392 8371,392 8352,392 8344,377 8344,360 8344,349 8347,338 8353,316 L 8370,249 Z"/>
        </g>
       </g>
       <g class="com.sun.star.drawing.ClosedBezierShape">
        <g id="id18">
         <rect class="BoundingBox" stroke="none" fill="none" x="8506" y="241" width="155" height="232"/>
         <path fill="rgb(0,0,0)" stroke="none" d="M 8660,409 L 8647,409 C 8646,417 8643,437 8638,441 8636,443 8609,443 8605,443 L 8541,443 C 8577,410 8589,401 8610,384 8636,364 8660,343 8660,309 8660,268 8623,242 8578,242 8535,242 8506,272 8506,304 8506,322 8521,324 8524,324 8533,324 8543,317 8543,305 8543,299 8541,287 8523,287 8533,262 8557,254 8574,254 8608,254 8626,281 8626,309 8626,340 8605,363 8594,377 L 8510,459 C 8506,462 8506,463 8506,472 L 8650,472 8660,409 Z"/>
        </g>
       </g>
      </g>
      <g class="Group">
       <g class="com.sun.star.drawing.PolyPolygonShape">
        <g id="id19">
         <rect class="BoundingBox" stroke="none" fill="none" x="12368" y="285" width="478" height="289"/>
         <path fill="rgb(255,255,255)" stroke="none" d="M 12607,572 L 12368,572 12368,286 12845,286 12845,572 12607,572 Z"/>
        </g>
       </g>
       <g class="com.sun.star.drawing.ClosedBezierShape">
        <g id="id20">
         <rect class="BoundingBox" stroke="none" fill="none" x="12382" y="279" width="248" height="226"/>
         <path fill="rgb(0,0,0)" stroke="none" d="M 12534,349 C 12536,335 12547,290 12582,290 12585,290 12596,290 12607,296 12593,299 12583,312 12583,323 12583,331 12589,341 12602,341 12613,341 12629,332 12629,312 12629,286 12600,279 12583,279 12554,279 12537,305 12530,317 12518,283 12492,279 12478,279 12426,279 12398,343 12398,355 12398,360 12403,360 12404,360 12408,360 12409,360 12411,355 12427,303 12460,290 12477,290 12486,290 12503,295 12503,323 12503,339 12495,372 12477,441 12469,472 12451,492 12430,492 12426,492 12415,492 12405,487 12417,483 12428,473 12428,460 12428,446 12417,442 12409,442 12395,442 12383,455 12383,471 12383,494 12407,504 12428,504 12462,504 12480,469 12481,466 12487,485 12505,504 12534,504 12585,504 12613,440 12613,427 12613,423 12609,423 12608,423 12603,423 12602,424 12601,427 12585,481 12551,492 12535,492 12516,492 12508,477 12508,460 12508,449 12511,439 12517,416 L 12534,349 Z"/>
        </g>
       </g>
       <g class="com.sun.star.drawing.ClosedBezierShape">
        <g id="id21">
         <rect class="BoundingBox" stroke="none" fill="none" x="12666" y="341" width="161" height="239"/>
         <path fill="rgb(0,0,0)" stroke="none" d="M 12743,457 C 12770,457 12789,476 12789,513 12789,555 12764,568 12744,568 12731,568 12699,564 12685,544 12702,543 12705,532 12705,525 12705,514 12697,506 12686,506 12677,506 12667,512 12667,525 12667,559 12703,579 12745,579 12793,579 12826,548 12826,513 12826,486 12805,459 12767,450 12802,437 12816,410 12816,390 12816,362 12785,342 12745,342 12707,342 12678,361 12678,388 12678,400 12685,407 12696,407 12706,407 12714,399 12714,389 12714,379 12706,372 12696,371 12708,355 12732,352 12744,352 12760,352 12782,360 12782,390 12782,405 12777,421 12768,431 12757,444 12748,445 12730,446 12721,446 12721,446 12718,448 12718,448 12715,448 12715,452 12715,457 12718,457 12724,457 L 12743,457 Z"/>
        </g>
       </g>
      </g>
      <g class="Group">
       <g class="com.sun.star.drawing.PolyPolygonShape">
        <g id="id22">
         <rect class="BoundingBox" stroke="none" fill="none" x="2092" y="774" width="652" height="289"/>
         <path fill="rgb(255,255,255)" stroke="none" d="M 2418,1061 L 2092,1061 2092,775 2743,775 2743,1061 2418,1061 Z"/>
        </g>
       </g>
       <g class="com.sun.star.drawing.ClosedBezierShape">
        <g id="id23">
         <rect class="BoundingBox" stroke="none" fill="none" x="2112" y="768" width="228" height="226"/>
         <path fill="rgb(0,0,0)" stroke="none" d="M 2277,799 C 2268,781 2253,768 2231,768 2174,768 2112,841 2112,913 2112,960 2139,993 2178,993 2188,993 2213,990 2242,956 2247,976 2263,993 2287,993 2305,993 2316,981 2324,966 2332,948 2339,917 2339,916 2339,912 2334,912 2333,912 2327,912 2327,913 2326,921 2317,952 2308,981 2288,981 2275,981 2274,969 2274,959 2274,948 2275,944 2280,922 2286,902 2286,896 2290,878 L 2308,808 C 2312,794 2312,794 2312,792 2312,783 2306,778 2298,778 2286,778 2278,789 2277,799 Z M 2244,929 C 2242,938 2242,938 2234,947 2213,974 2193,981 2179,981 2155,981 2147,955 2147,935 2147,911 2163,849 2175,826 2189,797 2212,779 2232,779 2265,779 2271,820 2271,823 2271,825 2270,829 2269,831 L 2244,929 Z"/>
        </g>
       </g>
       <g class="com.sun.star.drawing.ClosedBezierShape">
        <g id="id24">
         <rect class="BoundingBox" stroke="none" fill="none" x="2368" y="830" width="164" height="239"/>
         <path fill="rgb(0,0,0)" stroke="none" d="M 2530,951 C 2530,913 2526,885 2509,861 2499,844 2477,831 2449,831 2369,831 2369,925 2369,951 2369,976 2369,1068 2449,1068 2530,1068 2530,976 2530,951 Z M 2449,1059 C 2434,1059 2412,1049 2406,1021 2400,1001 2400,971 2400,947 2400,921 2400,895 2406,876 2412,848 2435,841 2449,841 2468,841 2486,852 2492,872 2498,890 2499,916 2499,947 2499,971 2499,997 2493,1020 2486,1051 2463,1059 2449,1059 Z"/>
        </g>
       </g>
       <g class="com.sun.star.drawing.ClosedBezierShape">
        <g id="id25">
         <rect class="BoundingBox" stroke="none" fill="none" x="2583" y="830" width="129" height="233"/>
         <path fill="rgb(0,0,0)" stroke="none" d="M 2662,841 C 2662,831 2661,831 2652,831 2630,852 2598,853 2584,853 L 2584,866 C 2592,866 2615,866 2634,856 L 2634,1033 C 2634,1044 2634,1049 2600,1049 L 2586,1049 2586,1061 C 2593,1061 2635,1060 2648,1060 2659,1060 2703,1061 2711,1061 L 2711,1049 2697,1049 C 2662,1049 2662,1044 2662,1033 L 2662,841 Z"/>
        </g>
       </g>
      </g>
      <g class="Group">
       <g class="com.sun.star.drawing.PolyPolygonShape">
        <g id="id26">
         <rect class="BoundingBox" stroke="none" fill="none" x="6018" y="793" width="653" height="288"/>
         <path fill="rgb(255,255,255)" stroke="none" d="M 6344,1080 L 6018,1080 6018,794 6669,794 6669,1080 6344,1080 Z"/>
        </g>
       </g>
       <g class="com.sun.star.drawing.ClosedBezierShape">
        <g id="id27">
         <rect class="BoundingBox" stroke="none" fill="none" x="6038" y="787" width="228" height="226"/>
         <path fill="rgb(0,0,0)" stroke="none" d="M 6203,818 C 6194,800 6179,787 6157,787 6100,787 6038,860 6038,932 6038,979 6065,1012 6104,1012 6114,1012 6139,1009 6168,974 6173,995 6189,1012 6213,1012 6231,1012 6242,1000 6250,985 6258,967 6265,936 6265,935 6265,931 6260,931 6259,931 6253,931 6253,932 6252,940 6243,971 6234,1000 6214,1000 6201,1000 6200,988 6200,978 6200,967 6201,963 6206,941 6212,921 6212,915 6216,897 L 6234,827 C 6238,813 6238,813 6238,811 6238,802 6232,797 6224,797 6212,797 6204,808 6203,818 Z M 6170,948 C 6168,957 6168,957 6160,965 6139,992 6119,1000 6105,1000 6081,1000 6073,973 6073,954 6073,930 6089,868 6101,845 6115,816 6138,798 6158,798 6191,798 6197,839 6197,842 6197,844 6196,848 6195,850 L 6170,948 Z"/>
        </g>
       </g>
       <g class="com.sun.star.drawing.ClosedBezierShape">
        <g id="id28">
         <rect class="BoundingBox" stroke="none" fill="none" x="6314" y="849" width="129" height="232"/>
         <path fill="rgb(0,0,0)" stroke="none" d="M 6393,860 C 6393,850 6392,850 6383,850 6361,871 6329,872 6315,872 L 6315,885 C 6323,885 6346,885 6365,875 L 6365,1052 C 6365,1063 6365,1068 6331,1068 L 6317,1068 6317,1080 C 6324,1080 6366,1079 6379,1079 6390,1079 6434,1080 6442,1080 L 6442,1068 6428,1068 C 6393,1068 6393,1063 6393,1052 L 6393,860 Z"/>
        </g>
       </g>
       <g class="com.sun.star.drawing.ClosedBezierShape">
        <g id="id29">
         <rect class="BoundingBox" stroke="none" fill="none" x="6494" y="849" width="155" height="232"/>
         <path fill="rgb(0,0,0)" stroke="none" d="M 6648,1017 L 6635,1017 C 6634,1025 6631,1045 6626,1049 6624,1051 6597,1051 6593,1051 L 6529,1051 C 6565,1018 6577,1009 6598,992 6624,972 6648,951 6648,917 6648,876 6611,850 6566,850 6523,850 6494,880 6494,912 6494,930 6509,932 6512,932 6521,932 6531,925 6531,913 6531,907 6529,895 6511,895 6521,870 6545,862 6561,862 6596,862 6614,889 6614,917 6614,948 6593,971 6582,985 L 6498,1067 C 6494,1070 6494,1071 6494,1080 L 6638,1080 6648,1017 Z"/>
        </g>
       </g>
      </g>
      <g class="Group">
       <g class="com.sun.star.drawing.PolyPolygonShape">
        <g id="id30">
         <rect class="BoundingBox" stroke="none" fill="none" x="10093" y="774" width="652" height="289"/>
         <path fill="rgb(255,255,255)" stroke="none" d="M 10419,1061 L 10093,1061 10093,775 10744,775 10744,1061 10419,1061 Z"/>
        </g>
       </g>
       <g class="com.sun.star.drawing.ClosedBezierShape">
        <g id="id31">
         <rect class="BoundingBox" stroke="none" fill="none" x="10113" y="768" width="228" height="226"/>
         <path fill="rgb(0,0,0)" stroke="none" d="M 10278,799 C 10269,781 10254,768 10232,768 10175,768 10113,841 10113,913 10113,960 10140,993 10179,993 10189,993 10214,990 10243,956 10248,976 10264,993 10288,993 10306,993 10317,981 10325,966 10333,948 10340,917 10340,916 10340,912 10335,912 10334,912 10328,912 10328,913 10327,921 10318,952 10309,981 10289,981 10276,981 10275,969 10275,959 10275,948 10276,944 10281,922 10287,902 10287,896 10291,878 L 10309,808 C 10313,794 10313,794 10313,792 10313,783 10307,778 10299,778 10287,778 10279,789 10278,799 Z M 10245,929 C 10243,938 10243,938 10235,947 10214,974 10194,981 10180,981 10156,981 10148,955 10148,935 10148,911 10164,849 10176,826 10190,797 10213,779 10233,779 10266,779 10272,820 10272,823 10272,825 10271,829 10270,831 L 10245,929 Z"/>
        </g>
       </g>
       <g class="com.sun.star.drawing.ClosedBezierShape">
        <g id="id32">
         <rect class="BoundingBox" stroke="none" fill="none" x="10374" y="830" width="155" height="233"/>
         <path fill="rgb(0,0,0)" stroke="none" d="M 10528,998 L 10515,998 C 10514,1006 10511,1026 10506,1030 10504,1032 10477,1032 10473,1032 L 10409,1032 C 10445,999 10457,990 10478,974 10504,953 10528,932 10528,898 10528,857 10491,831 10446,831 10403,831 10374,861 10374,893 10374,911 10389,913 10392,913 10401,913 10411,906 10411,894 10411,888 10409,876 10391,876 10401,851 10425,843 10441,843 10476,843 10494,870 10494,898 10494,929 10473,952 10462,966 L 10378,1048 C 10374,1051 10374,1052 10374,1061 L 10518,1061 10528,998 Z"/>
        </g>
       </g>
       <g class="com.sun.star.drawing.ClosedBezierShape">
        <g id="id33">
         <rect class="BoundingBox" stroke="none" fill="none" x="10565" y="830" width="161" height="239"/>
         <path fill="rgb(0,0,0)" stroke="none" d="M 10642,946 C 10669,946 10688,965 10688,1002 10688,1044 10663,1057 10643,1057 10630,1057 10598,1053 10584,1033 10601,1032 10604,1021 10604,1014 10604,1003 10596,995 10585,995 10576,995 10566,1001 10566,1014 10566,1048 10602,1068 10644,1068 10692,1068 10725,1037 10725,1002 10725,975 10704,948 10666,939 10701,926 10715,899 10715,879 10715,851 10683,831 10644,831 10606,831 10577,850 10577,877 10577,889 10584,896 10595,896 10605,896 10613,888 10613,878 10613,868 10605,861 10595,860 10607,844 10631,841 10643,841 10659,841 10681,849 10681,879 10681,894 10676,910 10667,920 10655,933 10647,934 10629,935 10620,935 10620,935 10617,937 10617,937 10614,937 10614,941 10614,946 10617,946 10623,946 L 10642,946 Z"/>
        </g>
       </g>
      </g>
     </g>
    </g>
   </g>
  </g>
 </g>
</svg>