<?xml version="1.0" encoding="UTF-8"?>
<!DOCTYPE svg PUBLIC "-//W3C//DTD SVG 1.1//EN" "http://www.w3.org/Graphics/SVG/1.1/DTD/svg11.dtd">
<svg version="1.2" width="52.07mm" height="24.89mm" viewBox="0 0 5207 2489" preserveAspectRatio="xMidYMid" fill-rule="evenodd" stroke-width="28.222" stroke-linejoin="round" xmlns="http://www.w3.org/2000/svg" xmlns:ooo="http://xml.openoffice.org/svg/export" xmlns:xlink="http://www.w3.org/1999/xlink" xmlns:presentation="http://sun.com/xmlns/staroffice/presentation" xmlns:smil="http://www.w3.org/2001/SMIL20/" xmlns:anim="urn:oasis:names:tc:opendocument:xmlns:animation:1.0" xml:space="preserve">
 <defs class="ClipPathGroup">
  <clipPath id="presentation_clip_path" clipPathUnits="userSpaceOnUse">
   <rect x="0" y="0" width="5207" height="2489"/>
  </clipPath>
  <clipPath id="presentation_clip_path_shrink" clipPathUnits="userSpaceOnUse">
   <rect x="5" y="2" width="5197" height="2485"/>
  </clipPath>
 </defs>
 <defs class="TextShapeIndex">
  <g ooo:slide="id1" ooo:id-list="id3 id4 id5 id6 id7 id8 id9 id10 id11 id12 id13 id14 id15 id16 id17 id18 id19 id20 id21 id22 id23 id24 id25 id26"/>
 </defs>
 <defs class="EmbeddedBulletChars">
  <g id="bullet-char-template-57356" transform="scale(0.00048828125,-0.00048828125)">
   <path d="M 580,1141 L 1163,571 580,0 -4,571 580,1141 Z"/>
  </g>
  <g id="bullet-char-template-57354" transform="scale(0.00048828125,-0.00048828125)">
   <path d="M 8,1128 L 1137,1128 1137,0 8,0 8,1128 Z"/>
  </g>
  <g id="bullet-char-template-10146" transform="scale(0.00048828125,-0.00048828125)">
   <path d="M 174,0 L 602,739 174,1481 1456,739 174,0 Z M 1358,739 L 309,1346 659,739 1358,739 Z"/>
  </g>
  <g id="bullet-char-template-10132" transform="scale(0.00048828125,-0.00048828125)">
   <path d="M 2015,739 L 1276,0 717,0 1260,543 174,543 174,936 1260,936 717,1481 1274,1481 2015,739 Z"/>
  </g>
  <g id="bullet-char-template-10007" transform="scale(0.00048828125,-0.00048828125)">
   <path d="M 0,-2 C -7,14 -16,27 -25,37 L 356,567 C 262,823 215,952 215,954 215,979 228,992 255,992 264,992 276,990 289,987 310,991 331,999 354,1012 L 381,999 492,748 772,1049 836,1024 860,1049 C 881,1039 901,1025 922,1006 886,937 835,863 770,784 769,783 710,716 594,584 L 774,223 C 774,196 753,168 711,139 L 727,119 C 717,90 699,76 672,76 641,76 570,178 457,381 L 164,-76 C 142,-110 111,-127 72,-127 30,-127 9,-110 8,-76 1,-67 -2,-52 -2,-32 -2,-23 -1,-13 0,-2 Z"/>
  </g>
  <g id="bullet-char-template-10004" transform="scale(0.00048828125,-0.00048828125)">
   <path d="M 285,-33 C 182,-33 111,30 74,156 52,228 41,333 41,471 41,549 55,616 82,672 116,743 169,778 240,778 293,778 328,747 346,684 L 369,508 C 377,444 397,411 428,410 L 1163,1116 C 1174,1127 1196,1133 1229,1133 1271,1133 1292,1118 1292,1087 L 1292,965 C 1292,929 1282,901 1262,881 L 442,47 C 390,-6 338,-33 285,-33 Z"/>
  </g>
  <g id="bullet-char-template-9679" transform="scale(0.00048828125,-0.00048828125)">
   <path d="M 813,0 C 632,0 489,54 383,161 276,268 223,411 223,592 223,773 276,916 383,1023 489,1130 632,1184 813,1184 992,1184 1136,1130 1245,1023 1353,916 1407,772 1407,592 1407,412 1353,268 1245,161 1136,54 992,0 813,0 Z"/>
  </g>
  <g id="bullet-char-template-8226" transform="scale(0.00048828125,-0.00048828125)">
   <path d="M 346,457 C 273,457 209,483 155,535 101,586 74,649 74,723 74,796 101,859 155,911 209,963 273,989 346,989 419,989 480,963 531,910 582,859 608,796 608,723 608,648 583,586 532,535 482,483 420,457 346,457 Z"/>
  </g>
  <g id="bullet-char-template-8211" transform="scale(0.00048828125,-0.00048828125)">
   <path d="M -4,459 L 1135,459 1135,606 -4,606 -4,459 Z"/>
  </g>
  <g id="bullet-char-template-61548" transform="scale(0.00048828125,-0.00048828125)">
   <path d="M 173,740 C 173,903 231,1043 346,1159 462,1274 601,1332 765,1332 928,1332 1067,1274 1183,1159 1299,1043 1357,903 1357,740 1357,577 1299,437 1183,322 1067,206 928,148 765,148 601,148 462,206 346,322 231,437 173,577 173,740 Z"/>
  </g>
 </defs>
 <defs class="TextEmbeddedBitmaps"/>
 <g>
  <g id="id2" class="Master_Slide">
   <g id="bg-id2" class="Background"/>
   <g id="bo-id2" class="BackgroundObjects"/>
  </g>
 </g>
 <g class="SlideGroup">
  <g>
   <g id="container-id1">
    <g id="id1" class="Slide" clip-path="url(#presentation_clip_path)">
     <g class="Page">
      <g class="com.sun.star.drawing.CustomShape">
       <g id="id3">
        <rect class="BoundingBox" stroke="none" fill="none" x="6817" y="21301" width="1020" height="1020"/>
        <path fill="rgb(114,159,207)" stroke="none" d="M 7326,21302 C 7614,21302 7834,21522 7834,21810 7834,22098 7614,22318 7326,22318 7038,22318 6818,22098 6818,21810 6818,21522 7038,21302 7326,21302 Z M 6818,21302 L 6818,21302 Z M 7835,22319 L 7835,22319 Z"/>
        <path fill="none" stroke="rgb(52,101,164)" d="M 7326,21302 C 7614,21302 7834,21522 7834,21810 7834,22098 7614,22318 7326,22318 7038,22318 6818,22098 6818,21810 6818,21522 7038,21302 7326,21302 Z"/>
        <path fill="none" stroke="rgb(52,101,164)" d="M 6818,21302 L 6818,21302 Z"/>
        <path fill="none" stroke="rgb(52,101,164)" d="M 7835,22319 L 7835,22319 Z"/>
       </g>
      </g>
      <g class="com.sun.star.drawing.CustomShape">
       <g id="id4">
        <rect class="BoundingBox" stroke="none" fill="none" x="10818" y="21302" width="1020" height="1020"/>
        <path fill="rgb(114,159,207)" stroke="none" d="M 11327,21303 C 11615,21303 11835,21523 11835,21811 11835,22099 11615,22319 11327,22319 11039,22319 10819,22099 10819,21811 10819,21523 11039,21303 11327,21303 Z M 10819,21303 L 10819,21303 Z M 11836,22320 L 11836,22320 Z"/>
        <path fill="none" stroke="rgb(52,101,164)" d="M 11327,21303 C 11615,21303 11835,21523 11835,21811 11835,22099 11615,22319 11327,22319 11039,22319 10819,22099 10819,21811 10819,21523 11039,21303 11327,21303 Z"/>
        <path fill="none" stroke="rgb(52,101,164)" d="M 10819,21303 L 10819,21303 Z"/>
        <path fill="none" stroke="rgb(52,101,164)" d="M 11836,22320 L 11836,22320 Z"/>
       </g>
      </g>
      <g class="com.sun.star.drawing.LineShape">
       <g id="id5">
        <rect class="BoundingBox" stroke="none" fill="none" x="7833" y="21657" width="3009" height="302"/>
        <path fill="none" stroke="rgb(0,0,0)" d="M 7834,21796 L 10411,21808"/>
        <path fill="rgb(0,0,0)" stroke="none" d="M 10841,21810 L 10392,21658 10390,21958 10841,21810 Z"/>
       </g>
      </g>
      <g class="Group">
       <g class="com.sun.star.drawing.PolyPolygonShape">
        <g id="id6">
         <rect class="BoundingBox" stroke="none" fill="none" x="7097" y="21663" width="478" height="289"/>
        </g>
       </g>
       <g class="com.sun.star.drawing.ClosedBezierShape">
        <g id="id7">
         <rect class="BoundingBox" stroke="none" fill="none" x="7111" y="21657" width="248" height="226"/>
         <path fill="rgb(0,0,0)" stroke="none" d="M 7263,21727 C 7265,21713 7276,21668 7311,21668 7314,21668 7325,21668 7336,21674 7322,21677 7312,21690 7312,21701 7312,21709 7318,21719 7331,21719 7342,21719 7358,21710 7358,21690 7358,21664 7329,21657 7312,21657 7283,21657 7266,21683 7259,21695 7247,21661 7221,21657 7207,21657 7155,21657 7127,21721 7127,21733 7127,21738 7132,21738 7133,21738 7137,21738 7138,21738 7140,21733 7156,21681 7189,21668 7206,21668 7215,21668 7232,21673 7232,21701 7232,21717 7224,21750 7206,21819 7198,21850 7180,21870 7159,21870 7155,21870 7144,21870 7134,21865 7146,21861 7157,21851 7157,21838 7157,21824 7146,21820 7138,21820 7124,21820 7112,21833 7112,21849 7112,21872 7136,21882 7157,21882 7191,21882 7209,21847 7210,21844 7216,21863 7234,21882 7263,21882 7314,21882 7342,21818 7342,21805 7342,21801 7338,21801 7337,21801 7332,21801 7331,21802 7330,21805 7314,21859 7280,21870 7264,21870 7245,21870 7237,21855 7237,21838 7237,21827 7240,21817 7246,21794 L 7263,21727 Z"/>
        </g>
       </g>
       <g class="com.sun.star.drawing.ClosedBezierShape">
        <g id="id8">
         <rect class="BoundingBox" stroke="none" fill="none" x="7394" y="21719" width="164" height="239"/>
         <path fill="rgb(0,0,0)" stroke="none" d="M 7556,21840 C 7556,21802 7552,21774 7535,21750 7525,21733 7503,21720 7475,21720 7395,21720 7395,21814 7395,21840 7395,21865 7395,21957 7475,21957 7556,21957 7556,21865 7556,21840 Z M 7475,21948 C 7460,21948 7439,21938 7432,21910 7426,21890 7426,21860 7426,21836 7426,21810 7426,21784 7432,21765 7439,21737 7461,21730 7475,21730 7494,21730 7512,21741 7518,21761 7524,21779 7525,21805 7525,21836 7525,21860 7525,21886 7519,21909 7512,21940 7489,21948 7475,21948 Z"/>
        </g>
       </g>
      </g>
      <g class="Group">
       <g class="com.sun.star.drawing.PolyPolygonShape">
        <g id="id9">
         <rect class="BoundingBox" stroke="none" fill="none" x="11066" y="21709" width="478" height="289"/>
        </g>
       </g>
       <g class="com.sun.star.drawing.ClosedBezierShape">
        <g id="id10">
         <rect class="BoundingBox" stroke="none" fill="none" x="11080" y="21703" width="248" height="226"/>
         <path fill="rgb(0,0,0)" stroke="none" d="M 11232,21773 C 11234,21759 11245,21714 11280,21714 11283,21714 11294,21714 11304,21720 11291,21723 11281,21736 11281,21747 11281,21755 11287,21765 11300,21765 11311,21765 11327,21756 11327,21736 11327,21710 11298,21703 11281,21703 11252,21703 11235,21729 11228,21741 11216,21707 11190,21703 11176,21703 11124,21703 11096,21767 11096,21779 11096,21784 11101,21784 11102,21784 11106,21784 11107,21784 11109,21779 11125,21727 11158,21714 11175,21714 11184,21714 11201,21719 11201,21747 11201,21763 11193,21796 11175,21865 11167,21896 11149,21916 11128,21916 11124,21916 11113,21916 11103,21911 11115,21907 11126,21897 11126,21884 11126,21870 11115,21866 11107,21866 11093,21866 11081,21879 11081,21895 11081,21918 11105,21928 11126,21928 11160,21928 11178,21893 11179,21890 11185,21909 11203,21928 11232,21928 11283,21928 11311,21864 11311,21851 11311,21847 11307,21847 11306,21847 11301,21847 11300,21848 11299,21851 11283,21905 11249,21916 11233,21916 11214,21916 11206,21901 11206,21884 11206,21873 11209,21863 11215,21840 L 11232,21773 Z"/>
        </g>
       </g>
       <g class="com.sun.star.drawing.ClosedBezierShape">
        <g id="id11">
         <rect class="BoundingBox" stroke="none" fill="none" x="11364" y="21765" width="161" height="240"/>
         <path fill="rgb(0,0,0)" stroke="none" d="M 11441,21881 C 11468,21881 11487,21900 11487,21937 11487,21979 11462,21992 11442,21992 11429,21992 11397,21988 11383,21968 11400,21967 11403,21956 11403,21949 11403,21938 11395,21930 11384,21930 11375,21930 11365,21936 11365,21949 11365,21983 11401,22003 11443,22003 11491,22003 11524,21972 11524,21937 11524,21910 11503,21883 11465,21874 11500,21861 11514,21834 11514,21814 11514,21786 11483,21766 11443,21766 11405,21766 11376,21785 11376,21812 11376,21824 11383,21831 11394,21831 11404,21831 11412,21823 11412,21813 11412,21803 11404,21796 11394,21795 11406,21779 11430,21776 11442,21776 11458,21776 11480,21784 11480,21814 11480,21829 11475,21845 11466,21855 11455,21868 11446,21869 11428,21870 11419,21870 11419,21870 11416,21872 11416,21872 11413,21872 11413,21876 11413,21881 11416,21881 11422,21881 L 11441,21881 Z"/>
        </g>
       </g>
      </g>
      <g class="Group">
       <g class="com.sun.star.drawing.PolyPolygonShape">
        <g id="id12">
         <rect class="BoundingBox" stroke="none" fill="none" x="9002" y="21158" width="529" height="288"/>
         <path fill="rgb(255,255,255)" stroke="none" d="M 9265,21445 L 9002,21445 9002,21159 9530,21159 9530,21445 9265,21445 Z"/>
        </g>
       </g>
       <g class="com.sun.star.drawing.ClosedBezierShape">
        <g id="id13">
         <rect class="BoundingBox" stroke="none" fill="none" x="9016" y="21152" width="329" height="226"/>
         <path fill="rgb(0,0,0)" stroke="none" d="M 9231,21202 C 9233,21192 9237,21173 9237,21171 9237,21162 9231,21158 9224,21158 9217,21158 9208,21161 9205,21171 9204,21174 9180,21270 9177,21282 9174,21297 9172,21306 9172,21315 9172,21320 9172,21321 9174,21323 9162,21350 9147,21365 9128,21365 9088,21365 9088,21329 9088,21320 9088,21304 9091,21285 9114,21224 9120,21209 9122,21202 9122,21192 9122,21170 9106,21152 9082,21152 9035,21152 9017,21224 9017,21228 9017,21233 9021,21233 9022,21233 9028,21233 9028,21233 9030,21224 9043,21178 9063,21163 9080,21163 9085,21163 9093,21163 9093,21179 9093,21191 9087,21206 9084,21214 9063,21272 9056,21295 9056,21313 9056,21359 9089,21376 9126,21376 9134,21376 9158,21376 9178,21341 9190,21373 9225,21376 9240,21376 9277,21376 9298,21345 9311,21316 9328,21276 9344,21210 9344,21187 9344,21160 9330,21152 9321,21152 9309,21152 9297,21164 9297,21176 9297,21182 9300,21186 9305,21189 9310,21195 9323,21207 9323,21232 9323,21248 9308,21297 9296,21321 9282,21348 9265,21365 9241,21365 9217,21365 9205,21350 9205,21322 9205,21309 9208,21293 9209,21286 L 9231,21202 Z"/>
        </g>
       </g>
       <g class="com.sun.star.drawing.ClosedBezierShape">
        <g id="id14">
         <rect class="BoundingBox" stroke="none" fill="none" x="9374" y="21292" width="152" height="158"/>
         <path fill="rgb(0,0,0)" stroke="none" d="M 9505,21312 C 9492,21315 9487,21323 9487,21331 9487,21341 9494,21345 9501,21345 9509,21345 9520,21339 9520,21322 9520,21299 9493,21292 9475,21292 9422,21292 9374,21340 9374,21388 9374,21418 9395,21449 9438,21449 9497,21449 9524,21414 9524,21410 9524,21408 9521,21403 9519,21403 9517,21403 9515,21404 9513,21408 9486,21439 9446,21439 9439,21439 9415,21439 9403,21422 9403,21401 9403,21391 9408,21353 9426,21329 9439,21311 9457,21302 9475,21302 9480,21302 9496,21302 9505,21312 Z"/>
        </g>
       </g>
      </g>
      <g class="com.sun.star.drawing.CustomShape">
       <g id="id15">
        <rect class="BoundingBox" stroke="none" fill="none" x="110" y="768" width="1020" height="1020"/>
        <path fill="rgb(114,159,207)" stroke="none" d="M 619,769 C 907,769 1127,989 1127,1277 1127,1565 907,1785 619,1785 331,1785 111,1565 111,1277 111,989 331,769 619,769 Z M 111,769 L 111,769 Z M 1128,1786 L 1128,1786 Z"/>
        <path fill="none" stroke="rgb(52,101,164)" d="M 619,769 C 907,769 1127,989 1127,1277 1127,1565 907,1785 619,1785 331,1785 111,1565 111,1277 111,989 331,769 619,769 Z"/>
        <path fill="none" stroke="rgb(52,101,164)" d="M 111,769 L 111,769 Z"/>
        <path fill="none" stroke="rgb(52,101,164)" d="M 1128,1786 L 1128,1786 Z"/>
       </g>
      </g>
      <g class="com.sun.star.drawing.CustomShape">
       <g id="id16">
        <rect class="BoundingBox" stroke="none" fill="none" x="4111" y="769" width="1020" height="1020"/>
        <path fill="rgb(114,159,207)" stroke="none" d="M 4620,770 C 4908,770 5128,990 5128,1278 5128,1566 4908,1786 4620,1786 4332,1786 4112,1566 4112,1278 4112,990 4332,770 4620,770 Z M 4112,770 L 4112,770 Z M 5129,1787 L 5129,1787 Z"/>
        <path fill="none" stroke="rgb(52,101,164)" d="M 4620,770 C 4908,770 5128,990 5128,1278 5128,1566 4908,1786 4620,1786 4332,1786 4112,1566 4112,1278 4112,990 4332,770 4620,770 Z"/>
        <path fill="none" stroke="rgb(52,101,164)" d="M 4112,770 L 4112,770 Z"/>
        <path fill="none" stroke="rgb(52,101,164)" d="M 5129,1787 L 5129,1787 Z"/>
       </g>
      </g>
      <g class="com.sun.star.drawing.LineShape">
       <g id="id17">
        <rect class="BoundingBox" stroke="none" fill="none" x="1126" y="1124" width="3009" height="302"/>
        <path fill="none" stroke="rgb(0,0,0)" d="M 1127,1263 L 3704,1275"/>
        <path fill="rgb(0,0,0)" stroke="none" d="M 4134,1277 L 3685,1125 3683,1425 4134,1277 Z"/>
       </g>
      </g>
      <g class="Group">
       <g class="com.sun.star.drawing.PolyPolygonShape">
        <g id="id18">
         <rect class="BoundingBox" stroke="none" fill="none" x="390" y="1130" width="478" height="289"/>
        </g>
       </g>
       <g class="com.sun.star.drawing.ClosedBezierShape">
        <g id="id19">
         <rect class="BoundingBox" stroke="none" fill="none" x="404" y="1124" width="248" height="226"/>
         <path fill="rgb(0,0,0)" stroke="none" d="M 556,1194 C 558,1180 569,1135 604,1135 607,1135 618,1135 629,1141 615,1144 605,1157 605,1168 605,1176 611,1186 624,1186 635,1186 651,1177 651,1157 651,1131 622,1124 605,1124 576,1124 559,1150 552,1162 540,1128 514,1124 500,1124 448,1124 420,1188 420,1200 420,1205 425,1205 426,1205 430,1205 431,1205 433,1200 449,1148 482,1135 499,1135 508,1135 525,1140 525,1168 525,1184 517,1217 499,1286 491,1317 473,1337 452,1337 448,1337 437,1337 427,1332 439,1328 450,1318 450,1305 450,1291 439,1287 431,1287 417,1287 405,1300 405,1316 405,1339 429,1349 450,1349 484,1349 502,1314 503,1311 509,1330 527,1349 556,1349 607,1349 635,1285 635,1272 635,1268 631,1268 630,1268 625,1268 624,1269 623,1272 607,1326 573,1337 557,1337 538,1337 530,1322 530,1305 530,1294 533,1284 539,1261 L 556,1194 Z"/>
        </g>
       </g>
       <g class="com.sun.star.drawing.ClosedBezierShape">
        <g id="id20">
         <rect class="BoundingBox" stroke="none" fill="none" x="687" y="1186" width="164" height="240"/>
         <path fill="rgb(0,0,0)" stroke="none" d="M 849,1307 C 849,1269 845,1241 828,1217 818,1200 796,1187 768,1187 688,1187 688,1281 688,1307 688,1332 688,1424 768,1424 849,1424 849,1332 849,1307 Z M 768,1415 C 753,1415 732,1405 725,1377 719,1357 719,1327 719,1303 719,1277 719,1251 725,1232 732,1204 754,1197 768,1197 787,1197 805,1208 811,1228 817,1246 818,1272 818,1303 818,1327 818,1353 812,1376 805,1407 782,1415 768,1415 Z"/>
        </g>
       </g>
      </g>
      <g class="Group">
       <g class="com.sun.star.drawing.PolyPolygonShape">
        <g id="id21">
         <rect class="BoundingBox" stroke="none" fill="none" x="4359" y="1176" width="478" height="289"/>
        </g>
       </g>
       <g class="com.sun.star.drawing.ClosedBezierShape">
        <g id="id22">
         <rect class="BoundingBox" stroke="none" fill="none" x="4373" y="1170" width="248" height="226"/>
         <path fill="rgb(0,0,0)" stroke="none" d="M 4525,1240 C 4527,1226 4538,1181 4573,1181 4576,1181 4587,1181 4598,1187 4584,1190 4574,1203 4574,1214 4574,1222 4580,1232 4593,1232 4604,1232 4620,1223 4620,1203 4620,1177 4591,1170 4574,1170 4545,1170 4528,1196 4521,1208 4509,1174 4483,1170 4469,1170 4417,1170 4389,1234 4389,1246 4389,1251 4394,1251 4395,1251 4399,1251 4400,1251 4402,1246 4418,1194 4451,1181 4468,1181 4477,1181 4494,1186 4494,1214 4494,1230 4486,1263 4468,1332 4460,1363 4442,1383 4421,1383 4417,1383 4406,1383 4396,1378 4408,1374 4419,1364 4419,1351 4419,1337 4408,1333 4400,1333 4386,1333 4374,1346 4374,1362 4374,1385 4398,1395 4419,1395 4453,1395 4471,1360 4472,1357 4478,1376 4496,1395 4525,1395 4576,1395 4604,1331 4604,1318 4604,1314 4600,1314 4599,1314 4594,1314 4593,1315 4592,1318 4576,1372 4542,1383 4526,1383 4507,1383 4499,1368 4499,1351 4499,1340 4502,1330 4508,1307 L 4525,1240 Z"/>
        </g>
       </g>
       <g class="com.sun.star.drawing.ClosedBezierShape">
        <g id="id23">
         <rect class="BoundingBox" stroke="none" fill="none" x="4657" y="1232" width="161" height="240"/>
         <path fill="rgb(0,0,0)" stroke="none" d="M 4734,1348 C 4761,1348 4780,1367 4780,1404 4780,1446 4755,1459 4735,1459 4722,1459 4690,1455 4676,1435 4693,1434 4696,1423 4696,1416 4696,1405 4688,1397 4677,1397 4668,1397 4658,1403 4658,1416 4658,1450 4694,1470 4736,1470 4784,1470 4817,1439 4817,1404 4817,1377 4796,1350 4758,1341 4793,1328 4807,1301 4807,1281 4807,1253 4776,1233 4736,1233 4698,1233 4669,1252 4669,1279 4669,1291 4676,1298 4687,1298 4697,1298 4705,1290 4705,1280 4705,1270 4697,1263 4687,1262 4699,1246 4723,1243 4735,1243 4751,1243 4773,1251 4773,1281 4773,1296 4768,1312 4759,1322 4748,1335 4739,1336 4721,1337 4712,1337 4712,1337 4709,1339 4709,1339 4706,1339 4706,1343 4706,1348 4709,1348 4715,1348 L 4734,1348 Z"/>
        </g>
       </g>
      </g>
      <g class="Group">
       <g class="com.sun.star.drawing.PolyPolygonShape">
        <g id="id24">
         <rect class="BoundingBox" stroke="none" fill="none" x="2295" y="625" width="529" height="288"/>
         <path fill="rgb(255,255,255)" stroke="none" d="M 2558,912 L 2295,912 2295,626 2823,626 2823,912 2558,912 Z"/>
        </g>
       </g>
       <g class="com.sun.star.drawing.ClosedBezierShape">
        <g id="id25">
         <rect class="BoundingBox" stroke="none" fill="none" x="2309" y="619" width="329" height="226"/>
         <path fill="rgb(0,0,0)" stroke="none" d="M 2524,669 C 2526,659 2530,640 2530,638 2530,629 2524,625 2517,625 2510,625 2501,628 2498,638 2497,641 2473,737 2470,749 2467,764 2465,773 2465,782 2465,787 2465,788 2467,790 2455,817 2440,832 2421,832 2381,832 2381,796 2381,787 2381,771 2384,752 2407,691 2413,676 2415,669 2415,659 2415,637 2399,619 2375,619 2328,619 2310,691 2310,695 2310,700 2314,700 2315,700 2321,700 2321,700 2323,691 2336,645 2356,630 2373,630 2378,630 2386,630 2386,646 2386,658 2380,673 2377,681 2356,739 2349,762 2349,780 2349,826 2382,843 2419,843 2427,843 2451,843 2471,808 2483,840 2518,843 2533,843 2570,843 2591,812 2604,783 2621,743 2637,677 2637,654 2637,627 2623,619 2614,619 2602,619 2590,631 2590,643 2590,649 2593,653 2598,656 2603,662 2616,674 2616,699 2616,715 2601,764 2589,788 2575,815 2558,832 2534,832 2510,832 2498,817 2498,789 2498,776 2501,760 2502,753 L 2524,669 Z"/>
        </g>
       </g>
       <g class="com.sun.star.drawing.ClosedBezierShape">
        <g id="id26">
         <rect class="BoundingBox" stroke="none" fill="none" x="2667" y="759" width="152" height="158"/>
         <path fill="rgb(0,0,0)" stroke="none" d="M 2798,779 C 2785,782 2780,790 2780,798 2780,808 2787,812 2794,812 2802,812 2813,806 2813,789 2813,766 2786,759 2768,759 2715,759 2667,807 2667,855 2667,885 2688,916 2731,916 2790,916 2817,881 2817,877 2817,875 2814,870 2812,870 2810,870 2808,871 2806,875 2779,906 2739,906 2732,906 2708,906 2696,889 2696,868 2696,858 2701,820 2719,796 2732,778 2750,769 2768,769 2773,769 2789,769 2798,779 Z"/>
        </g>
       </g>
      </g>
     </g>
    </g>
   </g>
  </g>
 </g>
</svg>