<?xml version="1.0" encoding="UTF-8"?>
<!DOCTYPE svg PUBLIC "-//W3C//DTD SVG 1.1//EN" "http://www.w3.org/Graphics/SVG/1.1/DTD/svg11.dtd">
<svg version="1.2" width="131.57mm" height="24.89mm" viewBox="0 0 13157 2489" preserveAspectRatio="xMidYMid" fill-rule="evenodd" stroke-width="28.222" stroke-linejoin="round" xmlns="http://www.w3.org/2000/svg" xmlns:ooo="http://xml.openoffice.org/svg/export" xmlns:xlink="http://www.w3.org/1999/xlink" xmlns:presentation="http://sun.com/xmlns/staroffice/presentation" xmlns:smil="http://www.w3.org/2001/SMIL20/" xmlns:anim="urn:oasis:names:tc:opendocument:xmlns:animation:1.0" xml:space="preserve">
 <defs class="ClipPathGroup">
  <clipPath id="presentation_clip_path" clipPathUnits="userSpaceOnUse">
   <rect x="0" y="0" width="13157" height="2489"/>
  </clipPath>
  <clipPath id="presentation_clip_path_shrink" clipPathUnits="userSpaceOnUse">
   <rect x="13" y="2" width="13131" height="2485"/>
  </clipPath>
 </defs>
 <defs class="TextShapeIndex">
  <g ooo:slide="id1" ooo:id-list="id3 id4 id5 id6 id7 id8 id9 id10 id11 id12 id13 id14 id15 id16 id17 id18 id19 id20 id21 id22 id23 id24 id25 id26 id27 id28 id29 id30 id31 id32 id33"/>
 </defs>
 <defs class="EmbeddedBulletChars">
  <g id="bullet-char-template-57356" transform="scale(0.00048828125,-0.00048828125)">
   <path d="M 580,1141 L 1163,571 580,0 -4,571 580,1141 Z"/>
  </g>
  <g id="bullet-char-template-57354" transform="scale(0.00048828125,-0.00048828125)">
   <path d="M 8,1128 L 1137,1128 1137,0 8,0 8,1128 Z"/>
  </g>
  <g id="bullet-char-template-10146" transform="scale(0.00048828125,-0.00048828125)">
   <path d="M 174,0 L 602,739 174,1481 1456,739 174,0 Z M 1358,739 L 309,1346 659,739 1358,739 Z"/>
  </g>
  <g id="bullet-char-template-10132" transform="scale(0.00048828125,-0.00048828125)">
   <path d="M 2015,739 L 1276,0 717,0 1260,543 174,543 174,936 1260,936 717,1481 1274,1481 2015,739 Z"/>
  </g>
  <g id="bullet-char-template-10007" transform="scale(0.00048828125,-0.00048828125)">
   <path d="M 0,-2 C -7,14 -16,27 -25,37 L 356,567 C 262,823 215,952 215,954 215,979 228,992 255,992 264,992 276,990 289,987 310,991 331,999 354,1012 L 381,999 492,748 772,1049 836,1024 860,1049 C 881,1039 901,1025 922,1006 886,937 835,863 770,784 769,783 710,716 594,584 L 774,223 C 774,196 753,168 711,139 L 727,119 C 717,90 699,76 672,76 641,76 570,178 457,381 L 164,-76 C 142,-110 111,-127 72,-127 30,-127 9,-110 8,-76 1,-67 -2,-52 -2,-32 -2,-23 -1,-13 0,-2 Z"/>
  </g>
  <g id="bullet-char-template-10004" transform="scale(0.00048828125,-0.00048828125)">
   <path d="M 285,-33 C 182,-33 111,30 74,156 52,228 41,333 41,471 41,549 55,616 82,672 116,743 169,778 240,778 293,778 328,747 346,684 L 369,508 C 377,444 397,411 428,410 L 1163,1116 C 1174,1127 1196,1133 1229,1133 1271,1133 1292,1118 1292,1087 L 1292,965 C 1292,929 1282,901 1262,881 L 442,47 C 390,-6 338,-33 285,-33 Z"/>
  </g>
  <g id="bullet-char-template-9679" transform="scale(0.00048828125,-0.00048828125)">
   <path d="M 813,0 C 632,0 489,54 383,161 276,268 223,411 223,592 223,773 276,916 383,1023 489,1130 632,1184 813,1184 992,1184 1136,1130 1245,1023 1353,916 1407,772 1407,592 1407,412 1353,268 1245,161 1136,54 992,0 813,0 Z"/>
  </g>
  <g id="bullet-char-template-8226" transform="scale(0.00048828125,-0.00048828125)">
   <path d="M 346,457 C 273,457 209,483 155,535 101,586 74,649 74,723 74,796 101,859 155,911 209,963 273,989 346,989 419,989 480,963 531,910 582,859 608,796 608,723 608,648 583,586 532,535 482,483 420,457 346,457 Z"/>
  </g>
  <g id="bullet-char-template-8211" transform="scale(0.00048828125,-0.00048828125)">
   <path d="M -4,459 L 1135,459 1135,606 -4,606 -4,459 Z"/>
  </g>
  <g id="bullet-char-template-61548" transform="scale(0.00048828125,-0.00048828125)">
   <path d="M 173,740 C 173,903 231,1043 346,1159 462,1274 601,1332 765,1332 928,1332 1067,1274 1183,1159 1299,1043 1357,903 1357,740 1357,577 1299,437 1183,322 1067,206 928,148 765,148 601,148 462,206 346,322 231,437 173,577 173,740 Z"/>
  </g>
 </defs>
 <defs class="TextEmbeddedBitmaps"/>
 <g>
  <g id="id2" class="Master_Slide">
   <g id="bg-id2" class="Background"/>
   <g id="bo-id2" class="BackgroundObjects"/>
  </g>
 </g>
 <g class="SlideGroup">
  <g>
   <g id="container-id1">
    <g id="id1" class="Slide" clip-path="url(#presentation_clip_path)">
     <g class="Page">
      <g class="com.sun.star.drawing.CustomShape">
       <g id="id3">
        <rect class="BoundingBox" stroke="none" fill="none" x="116" y="813" width="1020" height="1020"/>
        <path fill="rgb(114,159,207)" stroke="none" d="M 625,814 C 913,814 1133,1034 1133,1322 1133,1610 913,1830 625,1830 337,1830 117,1610 117,1322 117,1034 337,814 625,814 Z M 117,814 L 117,814 Z M 1134,1831 L 1134,1831 Z"/>
        <path fill="none" stroke="rgb(52,101,164)" d="M 625,814 C 913,814 1133,1034 1133,1322 1133,1610 913,1830 625,1830 337,1830 117,1610 117,1322 117,1034 337,814 625,814 Z"/>
        <path fill="none" stroke="rgb(52,101,164)" d="M 117,814 L 117,814 Z"/>
        <path fill="none" stroke="rgb(52,101,164)" d="M 1134,1831 L 1134,1831 Z"/>
       </g>
      </g>
      <g class="com.sun.star.drawing.CustomShape">
       <g id="id4">
        <rect class="BoundingBox" stroke="none" fill="none" x="4117" y="814" width="1020" height="1020"/>
        <path fill="rgb(114,159,207)" stroke="none" d="M 4626,815 C 4914,815 5134,1035 5134,1323 5134,1611 4914,1831 4626,1831 4338,1831 4118,1611 4118,1323 4118,1035 4338,815 4626,815 Z M 4118,815 L 4118,815 Z M 5135,1832 L 5135,1832 Z"/>
        <path fill="none" stroke="rgb(52,101,164)" d="M 4626,815 C 4914,815 5134,1035 5134,1323 5134,1611 4914,1831 4626,1831 4338,1831 4118,1611 4118,1323 4118,1035 4338,815 4626,815 Z"/>
        <path fill="none" stroke="rgb(52,101,164)" d="M 4118,815 L 4118,815 Z"/>
        <path fill="none" stroke="rgb(52,101,164)" d="M 5135,1832 L 5135,1832 Z"/>
       </g>
      </g>
      <g class="com.sun.star.drawing.CustomShape">
       <g id="id5">
        <rect class="BoundingBox" stroke="none" fill="none" x="8118" y="815" width="1020" height="1020"/>
        <path fill="rgb(114,159,207)" stroke="none" d="M 8627,816 C 8915,816 9135,1036 9135,1324 9135,1612 8915,1832 8627,1832 8339,1832 8119,1612 8119,1324 8119,1036 8339,816 8627,816 Z M 8119,816 L 8119,816 Z M 9136,1833 L 9136,1833 Z"/>
        <path fill="none" stroke="rgb(52,101,164)" d="M 8627,816 C 8915,816 9135,1036 9135,1324 9135,1612 8915,1832 8627,1832 8339,1832 8119,1612 8119,1324 8119,1036 8339,816 8627,816 Z"/>
        <path fill="none" stroke="rgb(52,101,164)" d="M 8119,816 L 8119,816 Z"/>
        <path fill="none" stroke="rgb(52,101,164)" d="M 9136,1833 L 9136,1833 Z"/>
       </g>
      </g>
      <g class="com.sun.star.drawing.CustomShape">
       <g id="id6">
        <rect class="BoundingBox" stroke="none" fill="none" x="12119" y="816" width="1020" height="1020"/>
        <path fill="rgb(114,159,207)" stroke="none" d="M 12628,817 C 12916,817 13136,1037 13136,1325 13136,1613 12916,1833 12628,1833 12340,1833 12120,1613 12120,1325 12120,1037 12340,817 12628,817 Z M 12120,817 L 12120,817 Z M 13137,1834 L 13137,1834 Z"/>
        <path fill="none" stroke="rgb(52,101,164)" d="M 12628,817 C 12916,817 13136,1037 13136,1325 13136,1613 12916,1833 12628,1833 12340,1833 12120,1613 12120,1325 12120,1037 12340,817 12628,817 Z"/>
        <path fill="none" stroke="rgb(52,101,164)" d="M 12120,817 L 12120,817 Z"/>
        <path fill="none" stroke="rgb(52,101,164)" d="M 13137,1834 L 13137,1834 Z"/>
       </g>
      </g>
      <g class="com.sun.star.drawing.LineShape">
       <g id="id7">
        <rect class="BoundingBox" stroke="none" fill="none" x="1132" y="1169" width="3009" height="302"/>
        <path fill="none" stroke="rgb(0,0,0)" d="M 1133,1308 L 3710,1320"/>
        <path fill="rgb(0,0,0)" stroke="none" d="M 4140,1322 L 3691,1170 3689,1470 4140,1322 Z"/>
       </g>
      </g>
      <g class="com.sun.star.drawing.LineShape">
       <g id="id8">
        <rect class="BoundingBox" stroke="none" fill="none" x="5132" y="1174" width="3009" height="302"/>
        <path fill="none" stroke="rgb(0,0,0)" d="M 5133,1313 L 7710,1325"/>
        <path fill="rgb(0,0,0)" stroke="none" d="M 8140,1327 L 7691,1175 7689,1475 8140,1327 Z"/>
       </g>
      </g>
      <g class="com.sun.star.drawing.LineShape">
       <g id="id9">
        <rect class="BoundingBox" stroke="none" fill="none" x="9132" y="1179" width="3009" height="302"/>
        <path fill="none" stroke="rgb(0,0,0)" d="M 9133,1318 L 11710,1330"/>
        <path fill="rgb(0,0,0)" stroke="none" d="M 12140,1332 L 11691,1180 11689,1480 12140,1332 Z"/>
       </g>
      </g>
      <g class="Group">
       <g class="com.sun.star.drawing.PolyPolygonShape">
        <g id="id10">
         <rect class="BoundingBox" stroke="none" fill="none" x="396" y="1195" width="479" height="289"/>
        </g>
       </g>
       <g class="com.sun.star.drawing.ClosedBezierShape">
        <g id="id11">
         <rect class="BoundingBox" stroke="none" fill="none" x="410" y="1189" width="248" height="226"/>
         <path fill="rgb(0,0,0)" stroke="none" d="M 562,1259 C 564,1245 575,1200 610,1200 613,1200 624,1200 634,1206 621,1209 611,1222 611,1233 611,1241 617,1251 630,1251 641,1251 657,1242 657,1222 657,1196 628,1189 611,1189 582,1189 565,1215 558,1227 546,1193 520,1189 506,1189 454,1189 426,1253 426,1265 426,1270 431,1270 432,1270 436,1270 437,1270 439,1265 455,1213 488,1200 505,1200 514,1200 531,1205 531,1233 531,1249 523,1282 505,1351 497,1382 479,1402 458,1402 454,1402 443,1402 433,1397 445,1393 456,1383 456,1370 456,1356 445,1352 437,1352 423,1352 411,1365 411,1381 411,1404 435,1414 456,1414 490,1414 508,1379 509,1376 515,1395 533,1414 562,1414 613,1414 641,1350 641,1337 641,1333 637,1333 636,1333 631,1333 630,1334 629,1337 613,1391 579,1402 563,1402 544,1402 536,1387 536,1370 536,1359 539,1349 545,1326 L 562,1259 Z"/>
        </g>
       </g>
       <g class="com.sun.star.drawing.ClosedBezierShape">
        <g id="id12">
         <rect class="BoundingBox" stroke="none" fill="none" x="693" y="1251" width="164" height="239"/>
         <path fill="rgb(0,0,0)" stroke="none" d="M 855,1372 C 855,1334 851,1306 834,1282 824,1265 802,1252 774,1252 694,1252 694,1346 694,1372 694,1397 694,1489 774,1489 855,1489 855,1397 855,1372 Z M 774,1480 C 759,1480 738,1470 731,1442 725,1422 725,1392 725,1368 725,1342 725,1316 731,1297 738,1269 760,1262 774,1262 793,1262 811,1273 817,1293 823,1311 824,1337 824,1368 824,1392 824,1418 818,1441 811,1472 788,1480 774,1480 Z"/>
        </g>
       </g>
      </g>
      <g class="Group">
       <g class="com.sun.star.drawing.PolyPolygonShape">
        <g id="id13">
         <rect class="BoundingBox" stroke="none" fill="none" x="4429" y="1202" width="478" height="288"/>
        </g>
       </g>
       <g class="com.sun.star.drawing.ClosedBezierShape">
        <g id="id14">
         <rect class="BoundingBox" stroke="none" fill="none" x="4443" y="1196" width="248" height="226"/>
         <path fill="rgb(0,0,0)" stroke="none" d="M 4595,1266 C 4597,1252 4608,1207 4643,1207 4646,1207 4657,1207 4668,1213 4654,1216 4644,1229 4644,1240 4644,1248 4650,1258 4663,1258 4674,1258 4690,1249 4690,1229 4690,1203 4661,1196 4644,1196 4615,1196 4598,1222 4591,1234 4579,1200 4553,1196 4539,1196 4487,1196 4459,1260 4459,1272 4459,1277 4464,1277 4465,1277 4469,1277 4470,1277 4472,1272 4488,1220 4521,1207 4538,1207 4547,1207 4564,1212 4564,1240 4564,1255 4556,1289 4538,1358 4530,1389 4512,1409 4491,1409 4487,1409 4476,1409 4466,1404 4478,1400 4489,1390 4489,1377 4489,1363 4478,1359 4470,1359 4456,1359 4444,1372 4444,1388 4444,1410 4468,1421 4489,1421 4523,1421 4541,1386 4542,1382 4548,1401 4566,1421 4595,1421 4646,1421 4674,1357 4674,1344 4674,1340 4670,1340 4669,1340 4664,1340 4663,1341 4662,1344 4646,1398 4612,1409 4596,1409 4577,1409 4569,1394 4569,1377 4569,1366 4572,1355 4578,1333 L 4595,1266 Z"/>
        </g>
       </g>
       <g class="com.sun.star.drawing.ClosedBezierShape">
        <g id="id15">
         <rect class="BoundingBox" stroke="none" fill="none" x="4747" y="1258" width="128" height="232"/>
         <path fill="rgb(0,0,0)" stroke="none" d="M 4825,1269 C 4825,1259 4825,1259 4815,1259 4793,1280 4762,1281 4747,1281 L 4747,1294 C 4755,1294 4778,1294 4797,1284 L 4797,1461 C 4797,1472 4797,1477 4763,1477 L 4749,1477 4749,1489 C 4756,1489 4799,1488 4811,1488 4822,1488 4866,1489 4874,1489 L 4874,1477 4860,1477 C 4825,1477 4825,1472 4825,1461 L 4825,1269 Z"/>
        </g>
       </g>
      </g>
      <g class="Group">
       <g class="com.sun.star.drawing.PolyPolygonShape">
        <g id="id16">
         <rect class="BoundingBox" stroke="none" fill="none" x="8405" y="1186" width="478" height="288"/>
        </g>
       </g>
       <g class="com.sun.star.drawing.ClosedBezierShape">
        <g id="id17">
         <rect class="BoundingBox" stroke="none" fill="none" x="8419" y="1180" width="248" height="226"/>
         <path fill="rgb(0,0,0)" stroke="none" d="M 8571,1250 C 8573,1236 8584,1191 8619,1191 8622,1191 8633,1191 8643,1197 8630,1200 8620,1213 8620,1224 8620,1232 8626,1242 8639,1242 8650,1242 8666,1233 8666,1213 8666,1187 8637,1180 8620,1180 8591,1180 8574,1206 8567,1218 8555,1184 8529,1180 8515,1180 8463,1180 8435,1244 8435,1256 8435,1261 8440,1261 8441,1261 8445,1261 8446,1261 8448,1256 8464,1204 8497,1191 8514,1191 8523,1191 8540,1196 8540,1224 8540,1239 8532,1273 8514,1342 8506,1373 8488,1393 8467,1393 8463,1393 8452,1393 8442,1388 8454,1384 8465,1374 8465,1361 8465,1347 8454,1343 8446,1343 8432,1343 8420,1356 8420,1372 8420,1394 8444,1405 8465,1405 8499,1405 8517,1370 8518,1366 8524,1385 8542,1405 8571,1405 8622,1405 8650,1341 8650,1328 8650,1324 8646,1324 8645,1324 8640,1324 8639,1325 8638,1328 8622,1382 8588,1393 8572,1393 8553,1393 8545,1378 8545,1361 8545,1350 8548,1339 8554,1317 L 8571,1250 Z"/>
        </g>
       </g>
       <g class="com.sun.star.drawing.ClosedBezierShape">
        <g id="id18">
         <rect class="BoundingBox" stroke="none" fill="none" x="8707" y="1242" width="155" height="232"/>
         <path fill="rgb(0,0,0)" stroke="none" d="M 8861,1410 L 8848,1410 C 8847,1418 8844,1438 8839,1442 8837,1444 8810,1444 8806,1444 L 8742,1444 C 8778,1411 8790,1402 8811,1385 8837,1365 8861,1344 8861,1310 8861,1269 8824,1243 8779,1243 8736,1243 8707,1273 8707,1305 8707,1323 8722,1325 8725,1325 8734,1325 8744,1318 8744,1306 8744,1300 8742,1288 8724,1288 8734,1263 8758,1255 8775,1255 8809,1255 8827,1282 8827,1310 8827,1341 8806,1364 8795,1378 L 8711,1460 C 8707,1463 8707,1464 8707,1473 L 8851,1473 8861,1410 Z"/>
        </g>
       </g>
      </g>
      <g class="Group">
       <g class="com.sun.star.drawing.PolyPolygonShape">
        <g id="id19">
         <rect class="BoundingBox" stroke="none" fill="none" x="12430" y="1195" width="479" height="289"/>
        </g>
       </g>
       <g class="com.sun.star.drawing.ClosedBezierShape">
        <g id="id20">
         <rect class="BoundingBox" stroke="none" fill="none" x="12444" y="1189" width="248" height="226"/>
         <path fill="rgb(0,0,0)" stroke="none" d="M 12596,1259 C 12598,1245 12609,1200 12644,1200 12647,1200 12658,1200 12669,1206 12655,1209 12645,1222 12645,1233 12645,1241 12651,1251 12664,1251 12675,1251 12691,1242 12691,1222 12691,1196 12662,1189 12645,1189 12616,1189 12599,1215 12592,1227 12580,1193 12554,1189 12540,1189 12488,1189 12460,1253 12460,1265 12460,1270 12465,1270 12466,1270 12470,1270 12471,1270 12473,1265 12489,1213 12522,1200 12539,1200 12548,1200 12565,1205 12565,1233 12565,1249 12557,1282 12539,1351 12531,1382 12513,1402 12492,1402 12488,1402 12477,1402 12467,1397 12479,1393 12490,1383 12490,1370 12490,1356 12479,1352 12471,1352 12457,1352 12445,1365 12445,1381 12445,1404 12469,1414 12490,1414 12524,1414 12542,1379 12543,1376 12549,1395 12567,1414 12596,1414 12647,1414 12675,1350 12675,1337 12675,1333 12671,1333 12670,1333 12665,1333 12664,1334 12663,1337 12647,1391 12613,1402 12597,1402 12578,1402 12570,1387 12570,1370 12570,1359 12573,1349 12579,1326 L 12596,1259 Z"/>
        </g>
       </g>
       <g class="com.sun.star.drawing.ClosedBezierShape">
        <g id="id21">
         <rect class="BoundingBox" stroke="none" fill="none" x="12728" y="1251" width="161" height="239"/>
         <path fill="rgb(0,0,0)" stroke="none" d="M 12805,1367 C 12832,1367 12851,1386 12851,1423 12851,1465 12826,1478 12806,1478 12793,1478 12761,1474 12747,1454 12764,1453 12767,1442 12767,1435 12767,1424 12759,1416 12748,1416 12739,1416 12729,1422 12729,1435 12729,1469 12765,1489 12807,1489 12855,1489 12888,1458 12888,1423 12888,1396 12867,1369 12829,1360 12864,1347 12878,1320 12878,1300 12878,1272 12847,1252 12807,1252 12769,1252 12740,1271 12740,1298 12740,1310 12747,1317 12758,1317 12768,1317 12776,1309 12776,1299 12776,1289 12768,1282 12758,1281 12770,1265 12794,1262 12806,1262 12822,1262 12844,1270 12844,1300 12844,1315 12839,1331 12830,1341 12819,1354 12810,1355 12792,1356 12783,1356 12783,1356 12780,1358 12780,1358 12777,1358 12777,1362 12777,1367 12780,1367 12786,1367 L 12805,1367 Z"/>
        </g>
       </g>
      </g>
      <g class="Group">
       <g class="com.sun.star.drawing.PolyPolygonShape">
        <g id="id22">
         <rect class="BoundingBox" stroke="none" fill="none" x="2092" y="775" width="743" height="289"/>
         <path fill="rgb(255,255,255)" stroke="none" d="M 2464,1062 L 2092,1062 2092,776 2834,776 2834,1062 2464,1062 Z"/>
        </g>
       </g>
       <g class="com.sun.star.drawing.ClosedBezierShape">
        <g id="id23">
         <rect class="BoundingBox" stroke="none" fill="none" x="2106" y="769" width="329" height="226"/>
         <path fill="rgb(0,0,0)" stroke="none" d="M 2320,820 C 2323,809 2327,790 2327,788 2327,779 2320,775 2314,775 2307,775 2298,778 2295,788 2293,791 2270,887 2267,899 2263,914 2262,923 2262,932 2262,938 2262,939 2263,941 2252,968 2236,982 2217,982 2178,982 2178,947 2178,938 2178,922 2180,903 2204,841 2210,826 2212,820 2212,809 2212,787 2196,769 2171,769 2124,769 2107,841 2107,845 2107,850 2111,850 2112,850 2118,850 2118,850 2120,841 2133,795 2152,780 2170,780 2175,780 2183,780 2183,796 2183,808 2177,823 2174,831 2152,889 2146,913 2146,931 2146,977 2179,994 2216,994 2224,994 2248,994 2268,959 2280,990 2315,994 2329,994 2366,994 2387,962 2401,933 2418,894 2433,827 2433,804 2433,777 2420,769 2411,769 2399,769 2386,781 2386,793 2386,799 2390,803 2394,806 2400,812 2412,824 2412,849 2412,866 2398,914 2385,939 2372,966 2355,982 2330,982 2307,982 2295,968 2295,940 2295,926 2298,911 2299,904 L 2320,820 Z"/>
        </g>
       </g>
       <g class="com.sun.star.drawing.ClosedBezierShape">
        <g id="id24">
         <rect class="BoundingBox" stroke="none" fill="none" x="2460" y="831" width="163" height="239"/>
         <path fill="rgb(0,0,0)" stroke="none" d="M 2621,952 C 2621,914 2617,886 2600,862 2590,845 2569,832 2541,832 2460,832 2460,926 2460,952 2460,977 2460,1069 2541,1069 2621,1069 2621,977 2621,952 Z M 2541,1060 C 2525,1060 2504,1050 2497,1022 2492,1002 2492,972 2492,948 2492,922 2492,896 2497,877 2504,849 2526,842 2541,842 2560,842 2578,853 2583,873 2589,891 2590,917 2590,948 2590,972 2590,998 2584,1021 2578,1052 2554,1060 2541,1060 Z"/>
        </g>
       </g>
       <g class="com.sun.star.drawing.ClosedBezierShape">
        <g id="id25">
         <rect class="BoundingBox" stroke="none" fill="none" x="2675" y="831" width="128" height="233"/>
         <path fill="rgb(0,0,0)" stroke="none" d="M 2753,842 C 2753,832 2752,832 2743,832 2721,853 2690,854 2675,854 L 2675,867 C 2683,867 2706,867 2725,857 L 2725,1034 C 2725,1045 2725,1050 2691,1050 L 2677,1050 2677,1062 C 2684,1062 2727,1061 2739,1061 2750,1061 2794,1062 2802,1062 L 2802,1050 2788,1050 C 2753,1050 2753,1045 2753,1034 L 2753,842 Z"/>
        </g>
       </g>
      </g>
      <g class="Group">
       <g class="com.sun.star.drawing.PolyPolygonShape">
        <g id="id26">
         <rect class="BoundingBox" stroke="none" fill="none" x="6019" y="794" width="743" height="288"/>
         <path fill="rgb(255,255,255)" stroke="none" d="M 6391,1081 L 6019,1081 6019,795 6761,795 6761,1081 6391,1081 Z"/>
        </g>
       </g>
       <g class="com.sun.star.drawing.ClosedBezierShape">
        <g id="id27">
         <rect class="BoundingBox" stroke="none" fill="none" x="6033" y="788" width="329" height="226"/>
         <path fill="rgb(0,0,0)" stroke="none" d="M 6247,839 C 6250,828 6254,809 6254,807 6254,798 6247,794 6241,794 6234,794 6225,797 6222,807 6220,810 6197,906 6194,918 6190,933 6189,942 6189,951 6189,956 6189,958 6190,960 6179,987 6163,1001 6144,1001 6105,1001 6105,965 6105,956 6105,941 6107,922 6131,860 6137,845 6139,839 6139,828 6139,806 6123,788 6098,788 6051,788 6034,860 6034,864 6034,869 6038,869 6039,869 6045,869 6045,869 6047,860 6060,814 6079,799 6097,799 6102,799 6110,799 6110,815 6110,827 6104,842 6101,850 6079,908 6073,932 6073,950 6073,996 6106,1013 6143,1013 6151,1013 6175,1013 6195,978 6207,1009 6242,1013 6256,1013 6293,1013 6314,981 6328,952 6345,913 6360,846 6360,823 6360,796 6347,788 6338,788 6326,788 6313,800 6313,812 6313,818 6317,822 6321,825 6327,831 6339,843 6339,868 6339,885 6325,933 6312,958 6299,984 6282,1001 6257,1001 6234,1001 6222,987 6222,959 6222,945 6225,929 6226,923 L 6247,839 Z"/>
        </g>
       </g>
       <g class="com.sun.star.drawing.ClosedBezierShape">
        <g id="id28">
         <rect class="BoundingBox" stroke="none" fill="none" x="6407" y="850" width="128" height="232"/>
         <path fill="rgb(0,0,0)" stroke="none" d="M 6486,861 C 6486,851 6485,851 6476,851 6453,872 6422,873 6407,873 L 6407,886 C 6415,886 6439,886 6458,876 L 6458,1053 C 6458,1064 6458,1069 6423,1069 L 6410,1069 6410,1081 C 6416,1081 6459,1080 6471,1080 6482,1080 6526,1081 6534,1081 L 6534,1069 6520,1069 C 6486,1069 6486,1064 6486,1053 L 6486,861 Z"/>
        </g>
       </g>
       <g class="com.sun.star.drawing.ClosedBezierShape">
        <g id="id29">
         <rect class="BoundingBox" stroke="none" fill="none" x="6586" y="850" width="155" height="232"/>
         <path fill="rgb(0,0,0)" stroke="none" d="M 6740,1018 L 6727,1018 C 6726,1026 6723,1046 6718,1050 6716,1052 6689,1052 6685,1052 L 6621,1052 C 6657,1019 6669,1010 6690,993 6716,973 6740,952 6740,918 6740,877 6703,851 6658,851 6616,851 6586,881 6586,913 6586,931 6601,933 6604,933 6613,933 6623,926 6623,914 6623,908 6621,896 6603,896 6613,871 6637,863 6654,863 6688,863 6706,890 6706,918 6706,949 6685,972 6674,986 L 6590,1068 C 6586,1071 6586,1072 6586,1081 L 6730,1081 6740,1018 Z"/>
        </g>
       </g>
      </g>
      <g class="Group">
       <g class="com.sun.star.drawing.PolyPolygonShape">
        <g id="id30">
         <rect class="BoundingBox" stroke="none" fill="none" x="10093" y="775" width="743" height="289"/>
         <path fill="rgb(255,255,255)" stroke="none" d="M 10465,1062 L 10093,1062 10093,776 10835,776 10835,1062 10465,1062 Z"/>
        </g>
       </g>
       <g class="com.sun.star.drawing.ClosedBezierShape">
        <g id="id31">
         <rect class="BoundingBox" stroke="none" fill="none" x="10107" y="769" width="329" height="226"/>
         <path fill="rgb(0,0,0)" stroke="none" d="M 10321,820 C 10324,809 10328,790 10328,788 10328,779 10321,775 10315,775 10308,775 10299,778 10296,788 10294,791 10271,887 10268,899 10264,914 10263,923 10263,932 10263,938 10263,939 10264,941 10253,968 10237,982 10218,982 10179,982 10179,947 10179,938 10179,922 10181,903 10205,841 10211,826 10213,820 10213,809 10213,787 10197,769 10172,769 10125,769 10108,841 10108,845 10108,850 10112,850 10113,850 10119,850 10119,850 10121,841 10134,795 10153,780 10171,780 10176,780 10184,780 10184,796 10184,808 10178,823 10175,831 10153,889 10147,913 10147,931 10147,977 10180,994 10217,994 10225,994 10249,994 10269,959 10281,990 10316,994 10330,994 10367,994 10388,962 10402,933 10419,894 10434,827 10434,804 10434,777 10421,769 10412,769 10400,769 10387,781 10387,793 10387,799 10391,803 10395,806 10401,812 10413,824 10413,849 10413,866 10399,914 10386,939 10373,966 10356,982 10331,982 10308,982 10296,968 10296,940 10296,926 10299,911 10300,904 L 10321,820 Z"/>
        </g>
       </g>
       <g class="com.sun.star.drawing.ClosedBezierShape">
        <g id="id32">
         <rect class="BoundingBox" stroke="none" fill="none" x="10465" y="831" width="156" height="233"/>
         <path fill="rgb(0,0,0)" stroke="none" d="M 10619,999 L 10607,999 C 10606,1007 10602,1027 10598,1031 10596,1033 10569,1033 10564,1033 L 10500,1033 C 10536,1000 10548,991 10570,975 10596,954 10619,933 10619,899 10619,858 10582,832 10537,832 10495,832 10466,862 10466,894 10466,912 10480,914 10484,914 10493,914 10503,907 10503,895 10503,889 10500,877 10482,877 10493,852 10516,844 10533,844 10568,844 10585,871 10585,899 10585,930 10564,953 10553,967 L 10469,1049 C 10466,1052 10466,1053 10466,1062 L 10609,1062 10619,999 Z"/>
        </g>
       </g>
       <g class="com.sun.star.drawing.ClosedBezierShape">
        <g id="id33">
         <rect class="BoundingBox" stroke="none" fill="none" x="10657" y="831" width="160" height="239"/>
         <path fill="rgb(0,0,0)" stroke="none" d="M 10733,947 C 10760,947 10779,966 10779,1003 10779,1045 10754,1058 10734,1058 10721,1058 10690,1054 10675,1034 10692,1033 10695,1022 10695,1015 10695,1004 10687,996 10676,996 10667,996 10657,1002 10657,1015 10657,1049 10693,1069 10735,1069 10784,1069 10816,1038 10816,1003 10816,976 10795,949 10757,940 10792,927 10806,900 10806,880 10806,852 10775,832 10735,832 10697,832 10668,851 10668,878 10668,890 10675,897 10686,897 10696,897 10704,889 10704,879 10704,869 10696,862 10686,861 10698,845 10722,842 10734,842 10750,842 10772,850 10772,880 10772,895 10767,911 10758,921 10747,934 10738,935 10720,936 10711,936 10711,936 10709,938 10709,938 10705,938 10705,942 10705,947 10709,947 10714,947 L 10733,947 Z"/>
        </g>
       </g>
      </g>
     </g>
    </g>
   </g>
  </g>
 </g>
</svg>