<?xml version="1.0" encoding="UTF-8"?>
<!DOCTYPE svg PUBLIC "-//W3C//DTD SVG 1.1//EN" "http://www.w3.org/Graphics/SVG/1.1/DTD/svg11.dtd">
<svg version="1.2" width="184.15mm" height="24.89mm" viewBox="0 0 18415 2489" preserveAspectRatio="xMidYMid" fill-rule="evenodd" stroke-width="28.222" stroke-linejoin="round" xmlns="http://www.w3.org/2000/svg" xmlns:ooo="http://xml.openoffice.org/svg/export" xmlns:xlink="http://www.w3.org/1999/xlink" xmlns:presentation="http://sun.com/xmlns/staroffice/presentation" xmlns:smil="http://www.w3.org/2001/SMIL20/" xmlns:anim="urn:oasis:names:tc:opendocument:xmlns:animation:1.0" xml:space="preserve">
 <defs class="ClipPathGroup">
  <clipPath id="presentation_clip_path" clipPathUnits="userSpaceOnUse">
   <rect x="0" y="0" width="18415" height="2489"/>
  </clipPath>
  <clipPath id="presentation_clip_path_shrink" clipPathUnits="userSpaceOnUse">
   <rect x="18" y="2" width="18379" height="2485"/>
  </clipPath>
 </defs>
 <defs class="TextShapeIndex">
  <g ooo:slide="id1" ooo:id-list="id3 id4 id5 id6 id7 id8 id9 id10 id11 id12 id13 id14 id15 id16 id17 id18 id19 id20 id21 id22 id23 id24 id25 id26 id27 id28 id29 id30 id31 id32 id33 id34 id35 id36 id37 id38 id39 id40 id41 id42 id43 id44 id45 id46 id47 id48 id49 id50 id51 id52 id53 id54 id55 id56 id57 id58 id59 id60 id61 id62 id63 id64 id65 id66 id67 id68 id69"/>
 </defs>
 <defs class="EmbeddedBulletChars">
  <g id="bullet-char-template-57356" transform="scale(0.00048828125,-0.00048828125)">
   <path d="M 580,1141 L 1163,571 580,0 -4,571 580,1141 Z"/>
  </g>
  <g id="bullet-char-template-57354" transform="scale(0.00048828125,-0.00048828125)">
   <path d="M 8,1128 L 1137,1128 1137,0 8,0 8,1128 Z"/>
  </g>
  <g id="bullet-char-template-10146" transform="scale(0.00048828125,-0.00048828125)">
   <path d="M 174,0 L 602,739 174,1481 1456,739 174,0 Z M 1358,739 L 309,1346 659,739 1358,739 Z"/>
  </g>
  <g id="bullet-char-template-10132" transform="scale(0.00048828125,-0.00048828125)">
   <path d="M 2015,739 L 1276,0 717,0 1260,543 174,543 174,936 1260,936 717,1481 1274,1481 2015,739 Z"/>
  </g>
  <g id="bullet-char-template-10007" transform="scale(0.00048828125,-0.00048828125)">
   <path d="M 0,-2 C -7,14 -16,27 -25,37 L 356,567 C 262,823 215,952 215,954 215,979 228,992 255,992 264,992 276,990 289,987 310,991 331,999 354,1012 L 381,999 492,748 772,1049 836,1024 860,1049 C 881,1039 901,1025 922,1006 886,937 835,863 770,784 769,783 710,716 594,584 L 774,223 C 774,196 753,168 711,139 L 727,119 C 717,90 699,76 672,76 641,76 570,178 457,381 L 164,-76 C 142,-110 111,-127 72,-127 30,-127 9,-110 8,-76 1,-67 -2,-52 -2,-32 -2,-23 -1,-13 0,-2 Z"/>
  </g>
  <g id="bullet-char-template-10004" transform="scale(0.00048828125,-0.00048828125)">
   <path d="M 285,-33 C 182,-33 111,30 74,156 52,228 41,333 41,471 41,549 55,616 82,672 116,743 169,778 240,778 293,778 328,747 346,684 L 369,508 C 377,444 397,411 428,410 L 1163,1116 C 1174,1127 1196,1133 1229,1133 1271,1133 1292,1118 1292,1087 L 1292,965 C 1292,929 1282,901 1262,881 L 442,47 C 390,-6 338,-33 285,-33 Z"/>
  </g>
  <g id="bullet-char-template-9679" transform="scale(0.00048828125,-0.00048828125)">
   <path d="M 813,0 C 632,0 489,54 383,161 276,268 223,411 223,592 223,773 276,916 383,1023 489,1130 632,1184 813,1184 992,1184 1136,1130 1245,1023 1353,916 1407,772 1407,592 1407,412 1353,268 1245,161 1136,54 992,0 813,0 Z"/>
  </g>
  <g id="bullet-char-template-8226" transform="scale(0.00048828125,-0.00048828125)">
   <path d="M 346,457 C 273,457 209,483 155,535 101,586 74,649 74,723 74,796 101,859 155,911 209,963 273,989 346,989 419,989 480,963 531,910 582,859 608,796 608,723 608,648 583,586 532,535 482,483 420,457 346,457 Z"/>
  </g>
  <g id="bullet-char-template-8211" transform="scale(0.00048828125,-0.00048828125)">
   <path d="M -4,459 L 1135,459 1135,606 -4,606 -4,459 Z"/>
  </g>
  <g id="bullet-char-template-61548" transform="scale(0.00048828125,-0.00048828125)">
   <path d="M 173,740 C 173,903 231,1043 346,1159 462,1274 601,1332 765,1332 928,1332 1067,1274 1183,1159 1299,1043 1357,903 1357,740 1357,577 1299,437 1183,322 1067,206 928,148 765,148 601,148 462,206 346,322 231,437 173,577 173,740 Z"/>
  </g>
 </defs>
 <defs class="TextEmbeddedBitmaps"/>
 <g>
  <g id="id2" class="Master_Slide">
   <g id="bg-id2" class="Background"/>
   <g id="bo-id2" class="BackgroundObjects"/>
  </g>
 </g>
 <g class="SlideGroup">
  <g>
   <g id="container-id1">
    <g id="id1" class="Slide" clip-path="url(#presentation_clip_path)">
     <g class="Page">
      <g class="com.sun.star.drawing.CustomShape">
       <g id="id3">
        <rect class="BoundingBox" stroke="none" fill="none" x="539" y="681" width="1020" height="1020"/>
        <path fill="rgb(114,159,207)" stroke="none" d="M 1048,682 C 1336,682 1556,902 1556,1190 1556,1478 1336,1698 1048,1698 760,1698 540,1478 540,1190 540,902 760,682 1048,682 Z M 540,682 L 540,682 Z M 1557,1699 L 1557,1699 Z"/>
        <path fill="none" stroke="rgb(52,101,164)" d="M 1048,682 C 1336,682 1556,902 1556,1190 1556,1478 1336,1698 1048,1698 760,1698 540,1478 540,1190 540,902 760,682 1048,682 Z"/>
        <path fill="none" stroke="rgb(52,101,164)" d="M 540,682 L 540,682 Z"/>
        <path fill="none" stroke="rgb(52,101,164)" d="M 1557,1699 L 1557,1699 Z"/>
       </g>
      </g>
      <g class="com.sun.star.drawing.CustomShape">
       <g id="id4">
        <rect class="BoundingBox" stroke="none" fill="none" x="3079" y="681" width="1020" height="1020"/>
        <path fill="rgb(114,159,207)" stroke="none" d="M 3588,682 C 3876,682 4096,902 4096,1190 4096,1478 3876,1698 3588,1698 3300,1698 3080,1478 3080,1190 3080,902 3300,682 3588,682 Z M 3080,682 L 3080,682 Z M 4097,1699 L 4097,1699 Z"/>
        <path fill="none" stroke="rgb(52,101,164)" d="M 3588,682 C 3876,682 4096,902 4096,1190 4096,1478 3876,1698 3588,1698 3300,1698 3080,1478 3080,1190 3080,902 3300,682 3588,682 Z"/>
        <path fill="none" stroke="rgb(52,101,164)" d="M 3080,682 L 3080,682 Z"/>
        <path fill="none" stroke="rgb(52,101,164)" d="M 4097,1699 L 4097,1699 Z"/>
       </g>
      </g>
      <g class="com.sun.star.drawing.LineShape">
       <g id="id5">
        <rect class="BoundingBox" stroke="none" fill="none" x="1532" y="1048" width="1549" height="302"/>
        <path fill="none" stroke="rgb(0,0,0)" d="M 1533,1219 L 2650,1198"/>
        <path fill="rgb(0,0,0)" stroke="none" d="M 3080,1190 L 2627,1048 2633,1348 3080,1190 Z"/>
       </g>
      </g>
      <g class="com.sun.star.drawing.CustomShape">
       <g id="id6">
        <rect class="BoundingBox" stroke="none" fill="none" x="157" y="172" width="4448" height="2162"/>
        <path fill="rgb(114,159,207)" fill-opacity="0.188" stroke="rgb(255,255,255)" stroke-opacity="0.188" d="M 2381,2332 L 158,2332 158,173 4603,173 4603,2332 2381,2332 Z"/>
        <path fill="none" stroke="rgb(52,101,164)" d="M 2381,2332 L 158,2332 158,173 4603,173 4603,2332 2381,2332 Z"/>
       </g>
      </g>
      <g class="com.sun.star.drawing.CustomShape">
       <g id="id7">
        <rect class="BoundingBox" stroke="none" fill="none" x="5139" y="681" width="1020" height="1020"/>
        <path fill="rgb(114,159,207)" stroke="none" d="M 5648,682 C 5936,682 6156,902 6156,1190 6156,1478 5936,1698 5648,1698 5360,1698 5140,1478 5140,1190 5140,902 5360,682 5648,682 Z M 5140,682 L 5140,682 Z M 6157,1699 L 6157,1699 Z"/>
        <path fill="none" stroke="rgb(52,101,164)" d="M 5648,682 C 5936,682 6156,902 6156,1190 6156,1478 5936,1698 5648,1698 5360,1698 5140,1478 5140,1190 5140,902 5360,682 5648,682 Z"/>
        <path fill="none" stroke="rgb(52,101,164)" d="M 5140,682 L 5140,682 Z"/>
        <path fill="none" stroke="rgb(52,101,164)" d="M 6157,1699 L 6157,1699 Z"/>
       </g>
      </g>
      <g class="com.sun.star.drawing.CustomShape">
       <g id="id8">
        <rect class="BoundingBox" stroke="none" fill="none" x="7679" y="681" width="1020" height="1020"/>
        <path fill="rgb(114,159,207)" stroke="none" d="M 8188,682 C 8476,682 8696,902 8696,1190 8696,1478 8476,1698 8188,1698 7900,1698 7680,1478 7680,1190 7680,902 7900,682 8188,682 Z M 7680,682 L 7680,682 Z M 8697,1699 L 8697,1699 Z"/>
        <path fill="none" stroke="rgb(52,101,164)" d="M 8188,682 C 8476,682 8696,902 8696,1190 8696,1478 8476,1698 8188,1698 7900,1698 7680,1478 7680,1190 7680,902 7900,682 8188,682 Z"/>
        <path fill="none" stroke="rgb(52,101,164)" d="M 7680,682 L 7680,682 Z"/>
        <path fill="none" stroke="rgb(52,101,164)" d="M 8697,1699 L 8697,1699 Z"/>
       </g>
      </g>
      <g class="com.sun.star.drawing.LineShape">
       <g id="id9">
        <rect class="BoundingBox" stroke="none" fill="none" x="6132" y="1048" width="1549" height="302"/>
        <path fill="none" stroke="rgb(0,0,0)" d="M 6133,1219 L 7250,1198"/>
        <path fill="rgb(0,0,0)" stroke="none" d="M 7680,1190 L 7227,1048 7233,1348 7680,1190 Z"/>
       </g>
      </g>
      <g class="com.sun.star.drawing.CustomShape">
       <g id="id10">
        <rect class="BoundingBox" stroke="none" fill="none" x="4757" y="172" width="4448" height="2162"/>
        <path fill="rgb(114,159,207)" fill-opacity="0.188" stroke="rgb(255,255,255)" stroke-opacity="0.188" d="M 6981,2332 L 4758,2332 4758,173 9203,173 9203,2332 6981,2332 Z"/>
        <path fill="none" stroke="rgb(52,101,164)" d="M 6981,2332 L 4758,2332 4758,173 9203,173 9203,2332 6981,2332 Z"/>
       </g>
      </g>
      <g class="com.sun.star.drawing.CustomShape">
       <g id="id11">
        <rect class="BoundingBox" stroke="none" fill="none" x="9739" y="681" width="1020" height="1020"/>
        <path fill="rgb(114,159,207)" stroke="none" d="M 10248,682 C 10536,682 10756,902 10756,1190 10756,1478 10536,1698 10248,1698 9960,1698 9740,1478 9740,1190 9740,902 9960,682 10248,682 Z M 9740,682 L 9740,682 Z M 10757,1699 L 10757,1699 Z"/>
        <path fill="none" stroke="rgb(52,101,164)" d="M 10248,682 C 10536,682 10756,902 10756,1190 10756,1478 10536,1698 10248,1698 9960,1698 9740,1478 9740,1190 9740,902 9960,682 10248,682 Z"/>
        <path fill="none" stroke="rgb(52,101,164)" d="M 9740,682 L 9740,682 Z"/>
        <path fill="none" stroke="rgb(52,101,164)" d="M 10757,1699 L 10757,1699 Z"/>
       </g>
      </g>
      <g class="com.sun.star.drawing.CustomShape">
       <g id="id12">
        <rect class="BoundingBox" stroke="none" fill="none" x="12279" y="681" width="1020" height="1020"/>
        <path fill="rgb(114,159,207)" stroke="none" d="M 12788,682 C 13076,682 13296,902 13296,1190 13296,1478 13076,1698 12788,1698 12500,1698 12280,1478 12280,1190 12280,902 12500,682 12788,682 Z M 12280,682 L 12280,682 Z M 13297,1699 L 13297,1699 Z"/>
        <path fill="none" stroke="rgb(52,101,164)" d="M 12788,682 C 13076,682 13296,902 13296,1190 13296,1478 13076,1698 12788,1698 12500,1698 12280,1478 12280,1190 12280,902 12500,682 12788,682 Z"/>
        <path fill="none" stroke="rgb(52,101,164)" d="M 12280,682 L 12280,682 Z"/>
        <path fill="none" stroke="rgb(52,101,164)" d="M 13297,1699 L 13297,1699 Z"/>
       </g>
      </g>
      <g class="com.sun.star.drawing.LineShape">
       <g id="id13">
        <rect class="BoundingBox" stroke="none" fill="none" x="10732" y="1048" width="1549" height="302"/>
        <path fill="none" stroke="rgb(0,0,0)" d="M 10733,1219 L 11850,1198"/>
        <path fill="rgb(0,0,0)" stroke="none" d="M 12280,1190 L 11827,1048 11833,1348 12280,1190 Z"/>
       </g>
      </g>
      <g class="com.sun.star.drawing.CustomShape">
       <g id="id14">
        <rect class="BoundingBox" stroke="none" fill="none" x="9357" y="172" width="4448" height="2162"/>
        <path fill="rgb(114,159,207)" fill-opacity="0.188" stroke="rgb(255,255,255)" stroke-opacity="0.188" d="M 11581,2332 L 9358,2332 9358,173 13803,173 13803,2332 11581,2332 Z"/>
        <path fill="none" stroke="rgb(52,101,164)" d="M 11581,2332 L 9358,2332 9358,173 13803,173 13803,2332 11581,2332 Z"/>
       </g>
      </g>
      <g class="com.sun.star.drawing.CustomShape">
       <g id="id15">
        <rect class="BoundingBox" stroke="none" fill="none" x="14339" y="681" width="1020" height="1020"/>
        <path fill="rgb(114,159,207)" stroke="none" d="M 14848,682 C 15136,682 15356,902 15356,1190 15356,1478 15136,1698 14848,1698 14560,1698 14340,1478 14340,1190 14340,902 14560,682 14848,682 Z M 14340,682 L 14340,682 Z M 15357,1699 L 15357,1699 Z"/>
        <path fill="none" stroke="rgb(52,101,164)" d="M 14848,682 C 15136,682 15356,902 15356,1190 15356,1478 15136,1698 14848,1698 14560,1698 14340,1478 14340,1190 14340,902 14560,682 14848,682 Z"/>
        <path fill="none" stroke="rgb(52,101,164)" d="M 14340,682 L 14340,682 Z"/>
        <path fill="none" stroke="rgb(52,101,164)" d="M 15357,1699 L 15357,1699 Z"/>
       </g>
      </g>
      <g class="com.sun.star.drawing.CustomShape">
       <g id="id16">
        <rect class="BoundingBox" stroke="none" fill="none" x="16879" y="681" width="1020" height="1020"/>
        <path fill="rgb(114,159,207)" stroke="none" d="M 17388,682 C 17676,682 17896,902 17896,1190 17896,1478 17676,1698 17388,1698 17100,1698 16880,1478 16880,1190 16880,902 17100,682 17388,682 Z M 16880,682 L 16880,682 Z M 17897,1699 L 17897,1699 Z"/>
        <path fill="none" stroke="rgb(52,101,164)" d="M 17388,682 C 17676,682 17896,902 17896,1190 17896,1478 17676,1698 17388,1698 17100,1698 16880,1478 16880,1190 16880,902 17100,682 17388,682 Z"/>
        <path fill="none" stroke="rgb(52,101,164)" d="M 16880,682 L 16880,682 Z"/>
        <path fill="none" stroke="rgb(52,101,164)" d="M 17897,1699 L 17897,1699 Z"/>
       </g>
      </g>
      <g class="com.sun.star.drawing.LineShape">
       <g id="id17">
        <rect class="BoundingBox" stroke="none" fill="none" x="15332" y="1048" width="1549" height="302"/>
        <path fill="none" stroke="rgb(0,0,0)" d="M 15333,1219 L 16450,1198"/>
        <path fill="rgb(0,0,0)" stroke="none" d="M 16880,1190 L 16427,1048 16433,1348 16880,1190 Z"/>
       </g>
      </g>
      <g class="com.sun.star.drawing.CustomShape">
       <g id="id18">
        <rect class="BoundingBox" stroke="none" fill="none" x="13957" y="172" width="4448" height="2162"/>
        <path fill="rgb(114,159,207)" fill-opacity="0.188" stroke="rgb(255,255,255)" stroke-opacity="0.188" d="M 16181,2332 L 13958,2332 13958,173 18403,173 18403,2332 16181,2332 Z"/>
        <path fill="none" stroke="rgb(52,101,164)" d="M 16181,2332 L 13958,2332 13958,173 18403,173 18403,2332 16181,2332 Z"/>
       </g>
      </g>
      <g class="Group">
       <g class="com.sun.star.drawing.PolyPolygonShape">
        <g id="id19">
         <rect class="BoundingBox" stroke="none" fill="none" x="858" y="1008" width="445" height="310"/>
        </g>
       </g>
       <g class="com.sun.star.drawing.ClosedBezierShape">
        <g id="id20">
         <rect class="BoundingBox" stroke="none" fill="none" x="843" y="1002" width="259" height="315"/>
         <path fill="rgb(0,0,0)" stroke="none" d="M 881,1281 C 877,1298 877,1301 854,1301 849,1301 843,1301 843,1310 843,1315 845,1316 850,1316 863,1316 877,1315 891,1315 907,1315 924,1316 939,1316 943,1316 948,1316 948,1307 948,1301 944,1301 937,1301 912,1301 912,1298 912,1293 912,1287 933,1207 936,1195 943,1208 956,1226 982,1226 1039,1226 1100,1153 1100,1082 1100,1035 1073,1002 1036,1002 1011,1002 986,1020 971,1039 965,1012 944,1002 926,1002 903,1002 893,1021 889,1030 881,1047 874,1077 874,1078 874,1083 879,1083 880,1083 886,1083 886,1083 889,1072 897,1037 907,1013 925,1013 933,1013 939,1017 939,1036 939,1047 938,1052 936,1060 L 881,1281 Z M 968,1066 C 972,1052 985,1039 994,1031 1011,1017 1025,1013 1033,1013 1053,1013 1066,1030 1066,1059 1066,1088 1049,1145 1040,1165 1023,1198 1000,1215 982,1215 948,1215 943,1174 943,1171 943,1170 943,1169 944,1163 L 968,1066 Z"/>
        </g>
       </g>
       <g class="com.sun.star.drawing.ClosedBezierShape">
        <g id="id21">
         <rect class="BoundingBox" stroke="none" fill="none" x="1122" y="1064" width="164" height="239"/>
         <path fill="rgb(0,0,0)" stroke="none" d="M 1284,1185 C 1284,1147 1280,1119 1263,1095 1253,1078 1231,1065 1203,1065 1123,1065 1123,1159 1123,1185 1123,1209 1123,1301 1203,1301 1284,1301 1284,1209 1284,1185 Z M 1203,1292 C 1188,1292 1167,1282 1160,1254 1154,1234 1154,1205 1154,1180 1154,1154 1154,1129 1160,1110 1167,1082 1189,1075 1203,1075 1223,1075 1240,1086 1246,1106 1252,1124 1253,1150 1253,1180 1253,1205 1253,1231 1247,1253 1240,1284 1217,1292 1203,1292 Z"/>
        </g>
       </g>
      </g>
      <g class="Group">
       <g class="com.sun.star.drawing.PolyPolygonShape">
        <g id="id22">
         <rect class="BoundingBox" stroke="none" fill="none" x="5442" y="993" width="445" height="310"/>
        </g>
       </g>
       <g class="com.sun.star.drawing.ClosedBezierShape">
        <g id="id23">
         <rect class="BoundingBox" stroke="none" fill="none" x="5427" y="987" width="259" height="315"/>
         <path fill="rgb(0,0,0)" stroke="none" d="M 5465,1266 C 5461,1283 5461,1286 5438,1286 5433,1286 5427,1286 5427,1295 5427,1300 5429,1301 5434,1301 5447,1301 5461,1300 5475,1300 5491,1300 5508,1301 5523,1301 5527,1301 5532,1301 5532,1292 5532,1286 5528,1286 5521,1286 5496,1286 5496,1283 5496,1278 5496,1272 5517,1192 5520,1180 5527,1193 5540,1211 5566,1211 5623,1211 5684,1138 5684,1067 5684,1020 5657,987 5620,987 5595,987 5570,1005 5555,1024 5549,997 5528,987 5510,987 5487,987 5477,1006 5473,1015 5465,1032 5458,1062 5458,1063 5458,1068 5463,1068 5464,1068 5470,1068 5470,1068 5473,1057 5481,1022 5491,998 5509,998 5517,998 5523,1002 5523,1021 5523,1032 5522,1037 5520,1045 L 5465,1266 Z M 5552,1051 C 5556,1037 5569,1024 5578,1016 5595,1002 5609,998 5617,998 5637,998 5650,1015 5650,1044 5650,1073 5633,1130 5624,1150 5607,1183 5584,1200 5566,1200 5532,1200 5527,1159 5527,1156 5527,1155 5527,1154 5528,1148 L 5552,1051 Z"/>
        </g>
       </g>
       <g class="com.sun.star.drawing.ClosedBezierShape">
        <g id="id24">
         <rect class="BoundingBox" stroke="none" fill="none" x="5727" y="1049" width="128" height="232"/>
         <path fill="rgb(0,0,0)" stroke="none" d="M 5805,1060 C 5805,1050 5805,1050 5795,1050 5773,1071 5742,1072 5727,1072 L 5727,1085 C 5735,1085 5758,1085 5777,1074 L 5777,1252 C 5777,1263 5777,1267 5743,1267 L 5729,1267 5729,1280 C 5736,1280 5779,1278 5791,1278 5802,1278 5846,1280 5854,1280 L 5854,1267 5840,1267 C 5805,1267 5805,1263 5805,1252 L 5805,1060 Z"/>
        </g>
       </g>
      </g>
      <g class="Group">
       <g class="com.sun.star.drawing.PolyPolygonShape">
        <g id="id25">
         <rect class="BoundingBox" stroke="none" fill="none" x="10042" y="993" width="445" height="310"/>
        </g>
       </g>
       <g class="com.sun.star.drawing.ClosedBezierShape">
        <g id="id26">
         <rect class="BoundingBox" stroke="none" fill="none" x="10027" y="987" width="259" height="315"/>
         <path fill="rgb(0,0,0)" stroke="none" d="M 10065,1266 C 10061,1283 10061,1286 10038,1286 10033,1286 10027,1286 10027,1295 10027,1300 10029,1301 10034,1301 10047,1301 10061,1300 10075,1300 10091,1300 10108,1301 10123,1301 10127,1301 10132,1301 10132,1292 10132,1286 10128,1286 10121,1286 10096,1286 10096,1283 10096,1278 10096,1272 10117,1192 10120,1180 10127,1193 10140,1211 10166,1211 10223,1211 10284,1138 10284,1067 10284,1020 10257,987 10220,987 10195,987 10170,1005 10155,1024 10149,997 10128,987 10110,987 10087,987 10077,1006 10073,1015 10065,1032 10058,1062 10058,1063 10058,1068 10063,1068 10064,1068 10070,1068 10070,1068 10073,1057 10081,1022 10091,998 10109,998 10117,998 10123,1002 10123,1021 10123,1032 10122,1037 10120,1045 L 10065,1266 Z M 10152,1051 C 10156,1037 10169,1024 10178,1016 10195,1002 10209,998 10217,998 10237,998 10250,1015 10250,1044 10250,1073 10233,1130 10224,1150 10207,1183 10184,1200 10166,1200 10132,1200 10127,1159 10127,1156 10127,1155 10127,1154 10128,1148 L 10152,1051 Z"/>
        </g>
       </g>
       <g class="com.sun.star.drawing.ClosedBezierShape">
        <g id="id27">
         <rect class="BoundingBox" stroke="none" fill="none" x="10311" y="1049" width="155" height="232"/>
         <path fill="rgb(0,0,0)" stroke="none" d="M 10465,1217 L 10452,1217 C 10451,1225 10448,1245 10443,1248 10441,1250 10414,1250 10410,1250 L 10346,1250 C 10382,1218 10394,1209 10415,1192 10441,1172 10465,1151 10465,1117 10465,1076 10428,1050 10383,1050 10340,1050 10311,1080 10311,1111 10311,1129 10326,1132 10329,1132 10338,1132 10348,1125 10348,1113 10348,1107 10346,1095 10328,1095 10338,1070 10362,1062 10379,1062 10413,1062 10431,1089 10431,1117 10431,1147 10410,1171 10399,1184 L 10315,1266 C 10311,1269 10311,1271 10311,1280 L 10455,1280 10465,1217 Z"/>
        </g>
       </g>
      </g>
      <g class="Group">
       <g class="com.sun.star.drawing.PolyPolygonShape">
        <g id="id28">
         <rect class="BoundingBox" stroke="none" fill="none" x="14601" y="1069" width="445" height="310"/>
        </g>
       </g>
       <g class="com.sun.star.drawing.ClosedBezierShape">
        <g id="id29">
         <rect class="BoundingBox" stroke="none" fill="none" x="14586" y="1063" width="259" height="315"/>
         <path fill="rgb(0,0,0)" stroke="none" d="M 14624,1342 C 14620,1359 14620,1362 14597,1362 14592,1362 14586,1362 14586,1371 14586,1376 14588,1377 14593,1377 14606,1377 14620,1376 14634,1376 14650,1376 14667,1377 14682,1377 14686,1377 14691,1377 14691,1368 14691,1362 14687,1362 14680,1362 14655,1362 14655,1359 14655,1354 14655,1348 14676,1268 14679,1256 14686,1269 14699,1287 14725,1287 14782,1287 14843,1214 14843,1143 14843,1096 14815,1063 14779,1063 14754,1063 14729,1081 14714,1100 14708,1073 14687,1063 14669,1063 14646,1063 14636,1082 14632,1091 14624,1108 14617,1138 14617,1139 14617,1144 14622,1144 14623,1144 14629,1144 14629,1144 14632,1133 14640,1098 14650,1074 14668,1074 14676,1074 14682,1078 14682,1097 14682,1108 14681,1113 14679,1121 L 14624,1342 Z M 14711,1127 C 14715,1113 14728,1100 14737,1092 14754,1078 14768,1074 14776,1074 14796,1074 14809,1091 14809,1120 14809,1149 14792,1206 14783,1226 14766,1259 14743,1276 14725,1276 14691,1276 14686,1235 14686,1232 14686,1231 14686,1230 14687,1224 L 14711,1127 Z"/>
        </g>
       </g>
       <g class="com.sun.star.drawing.ClosedBezierShape">
        <g id="id30">
         <rect class="BoundingBox" stroke="none" fill="none" x="14866" y="1125" width="161" height="239"/>
         <path fill="rgb(0,0,0)" stroke="none" d="M 14943,1240 C 14970,1240 14989,1259 14989,1296 14989,1339 14964,1351 14944,1351 14931,1351 14899,1348 14885,1328 14902,1326 14905,1315 14905,1308 14905,1297 14897,1289 14886,1289 14877,1289 14867,1295 14867,1308 14867,1342 14903,1362 14945,1362 14994,1362 15026,1331 15026,1296 15026,1269 15005,1242 14967,1233 15002,1221 15016,1194 15016,1174 15016,1146 14985,1126 14945,1126 14907,1126 14878,1145 14878,1172 14878,1184 14885,1191 14896,1191 14906,1191 14914,1183 14914,1173 14914,1163 14906,1156 14896,1155 14908,1139 14932,1136 14944,1136 14960,1136 14982,1144 14982,1174 14982,1189 14977,1204 14968,1214 14957,1228 14948,1229 14930,1230 14921,1230 14921,1230 14918,1231 14918,1231 14915,1231 14915,1236 14915,1240 14918,1240 14924,1240 L 14943,1240 Z"/>
        </g>
       </g>
      </g>
      <g class="Group">
       <g class="com.sun.star.drawing.PolyPolygonShape">
        <g id="id31">
         <rect class="BoundingBox" stroke="none" fill="none" x="3361" y="1008" width="417" height="310"/>
        </g>
       </g>
       <g class="com.sun.star.drawing.ClosedBezierShape">
        <g id="id32">
         <rect class="BoundingBox" stroke="none" fill="none" x="3381" y="1002" width="206" height="315"/>
         <path fill="rgb(0,0,0)" stroke="none" d="M 3585,1008 C 3585,1005 3584,1002 3581,1002 3575,1002 3555,1022 3547,1037 3536,1010 3517,1002 3500,1002 3442,1002 3381,1075 3381,1147 3381,1195 3410,1226 3446,1226 3468,1226 3488,1214 3505,1196 3500,1214 3484,1280 3483,1284 3479,1299 3474,1300 3447,1301 3441,1301 3436,1301 3436,1311 3436,1311 3436,1316 3442,1316 3457,1316 3475,1315 3492,1315 3509,1315 3526,1316 3543,1316 3545,1316 3552,1316 3552,1307 3552,1301 3547,1301 3538,1301 3515,1301 3515,1298 3515,1293 3515,1290 3516,1287 3517,1282 L 3585,1008 Z M 3448,1215 C 3418,1215 3416,1177 3416,1169 3416,1144 3431,1091 3439,1070 3454,1033 3480,1013 3500,1013 3533,1013 3539,1052 3539,1056 3539,1059 3512,1168 3511,1169 3503,1184 3475,1215 3448,1215 Z"/>
        </g>
       </g>
       <g class="com.sun.star.drawing.ClosedBezierShape">
        <g id="id33">
         <rect class="BoundingBox" stroke="none" fill="none" x="3597" y="1064" width="164" height="239"/>
         <path fill="rgb(0,0,0)" stroke="none" d="M 3759,1185 C 3759,1147 3755,1119 3738,1095 3728,1078 3706,1065 3678,1065 3598,1065 3598,1159 3598,1185 3598,1209 3598,1301 3678,1301 3759,1301 3759,1209 3759,1185 Z M 3678,1292 C 3663,1292 3641,1282 3635,1254 3629,1234 3629,1205 3629,1180 3629,1154 3629,1129 3635,1110 3641,1082 3664,1075 3678,1075 3697,1075 3715,1086 3721,1106 3727,1124 3728,1150 3728,1180 3728,1205 3728,1231 3722,1253 3715,1284 3692,1292 3678,1292 Z"/>
        </g>
       </g>
      </g>
      <g class="Group">
       <g class="com.sun.star.drawing.PolyPolygonShape">
        <g id="id34">
         <rect class="BoundingBox" stroke="none" fill="none" x="7933" y="1008" width="417" height="310"/>
        </g>
       </g>
       <g class="com.sun.star.drawing.ClosedBezierShape">
        <g id="id35">
         <rect class="BoundingBox" stroke="none" fill="none" x="7953" y="1002" width="206" height="315"/>
         <path fill="rgb(0,0,0)" stroke="none" d="M 8157,1008 C 8157,1005 8156,1002 8153,1002 8147,1002 8127,1022 8119,1037 8108,1010 8089,1002 8072,1002 8014,1002 7953,1075 7953,1147 7953,1195 7982,1226 8018,1226 8040,1226 8060,1214 8077,1196 8072,1214 8056,1280 8055,1284 8051,1299 8046,1300 8019,1301 8013,1301 8008,1301 8008,1311 8008,1311 8008,1316 8014,1316 8029,1316 8047,1315 8064,1315 8081,1315 8098,1316 8115,1316 8117,1316 8124,1316 8124,1307 8124,1301 8119,1301 8110,1301 8087,1301 8087,1298 8087,1293 8087,1290 8088,1287 8089,1282 L 8157,1008 Z M 8020,1215 C 7990,1215 7988,1177 7988,1169 7988,1144 8003,1091 8011,1070 8026,1033 8052,1013 8072,1013 8105,1013 8111,1052 8111,1056 8111,1059 8084,1168 8083,1169 8075,1184 8047,1215 8020,1215 Z"/>
        </g>
       </g>
       <g class="com.sun.star.drawing.ClosedBezierShape">
        <g id="id36">
         <rect class="BoundingBox" stroke="none" fill="none" x="8189" y="1064" width="129" height="232"/>
         <path fill="rgb(0,0,0)" stroke="none" d="M 8268,1075 C 8268,1065 8268,1065 8258,1065 8236,1086 8204,1087 8190,1087 L 8190,1100 C 8198,1100 8221,1100 8240,1089 L 8240,1267 C 8240,1278 8240,1282 8205,1282 L 8192,1282 8192,1295 C 8199,1295 8241,1293 8254,1293 8265,1293 8309,1295 8316,1295 L 8316,1282 8303,1282 C 8268,1282 8268,1278 8268,1267 L 8268,1075 Z"/>
        </g>
       </g>
      </g>
      <g class="Group">
       <g class="com.sun.star.drawing.PolyPolygonShape">
        <g id="id37">
         <rect class="BoundingBox" stroke="none" fill="none" x="12597" y="1008" width="417" height="310"/>
        </g>
       </g>
       <g class="com.sun.star.drawing.ClosedBezierShape">
        <g id="id38">
         <rect class="BoundingBox" stroke="none" fill="none" x="12617" y="1002" width="206" height="315"/>
         <path fill="rgb(0,0,0)" stroke="none" d="M 12821,1008 C 12821,1005 12820,1002 12817,1002 12811,1002 12791,1022 12783,1037 12772,1010 12753,1002 12736,1002 12678,1002 12617,1075 12617,1147 12617,1195 12646,1226 12682,1226 12704,1226 12724,1214 12741,1196 12736,1214 12720,1280 12719,1284 12715,1299 12710,1300 12683,1301 12677,1301 12672,1301 12672,1311 12672,1311 12672,1316 12678,1316 12693,1316 12711,1315 12728,1315 12745,1315 12762,1316 12779,1316 12781,1316 12788,1316 12788,1307 12788,1301 12783,1301 12774,1301 12751,1301 12751,1298 12751,1293 12751,1290 12752,1287 12753,1282 L 12821,1008 Z M 12684,1215 C 12654,1215 12652,1177 12652,1169 12652,1144 12667,1091 12675,1070 12690,1033 12716,1013 12736,1013 12769,1013 12775,1052 12775,1056 12775,1059 12748,1168 12747,1169 12739,1184 12711,1215 12684,1215 Z"/>
        </g>
       </g>
       <g class="com.sun.star.drawing.ClosedBezierShape">
        <g id="id39">
         <rect class="BoundingBox" stroke="none" fill="none" x="12838" y="1064" width="155" height="232"/>
         <path fill="rgb(0,0,0)" stroke="none" d="M 12992,1232 L 12979,1232 C 12978,1240 12975,1260 12970,1263 12968,1265 12941,1265 12937,1265 L 12873,1265 C 12909,1233 12921,1224 12942,1207 12968,1187 12992,1166 12992,1132 12992,1091 12955,1065 12910,1065 12867,1065 12838,1095 12838,1126 12838,1144 12853,1147 12856,1147 12865,1147 12875,1140 12875,1128 12875,1122 12873,1110 12855,1110 12865,1085 12889,1077 12905,1077 12940,1077 12958,1104 12958,1132 12958,1162 12937,1186 12926,1199 L 12841,1281 C 12838,1284 12838,1286 12838,1295 L 12982,1295 12992,1232 Z"/>
        </g>
       </g>
      </g>
      <g class="Group">
       <g class="com.sun.star.drawing.PolyPolygonShape">
        <g id="id40">
         <rect class="BoundingBox" stroke="none" fill="none" x="17169" y="1069" width="417" height="310"/>
        </g>
       </g>
       <g class="com.sun.star.drawing.ClosedBezierShape">
        <g id="id41">
         <rect class="BoundingBox" stroke="none" fill="none" x="17189" y="1063" width="206" height="315"/>
         <path fill="rgb(0,0,0)" stroke="none" d="M 17393,1069 C 17393,1066 17392,1063 17389,1063 17383,1063 17363,1083 17355,1098 17344,1071 17325,1063 17308,1063 17250,1063 17189,1136 17189,1208 17189,1256 17218,1287 17254,1287 17276,1287 17296,1275 17313,1257 17308,1275 17292,1341 17291,1345 17287,1360 17282,1361 17255,1362 17249,1362 17244,1362 17244,1372 17244,1372 17244,1377 17250,1377 17265,1377 17283,1376 17300,1376 17317,1376 17334,1377 17351,1377 17353,1377 17360,1377 17360,1368 17360,1362 17355,1362 17346,1362 17323,1362 17323,1359 17323,1354 17323,1351 17324,1348 17325,1343 L 17393,1069 Z M 17256,1276 C 17226,1276 17224,1238 17224,1230 17224,1205 17239,1152 17247,1131 17262,1094 17288,1074 17308,1074 17341,1074 17347,1113 17347,1117 17347,1120 17320,1229 17319,1230 17311,1245 17283,1276 17256,1276 Z"/>
        </g>
       </g>
       <g class="com.sun.star.drawing.ClosedBezierShape">
        <g id="id42">
         <rect class="BoundingBox" stroke="none" fill="none" x="17406" y="1125" width="161" height="239"/>
         <path fill="rgb(0,0,0)" stroke="none" d="M 17483,1240 C 17510,1240 17529,1259 17529,1296 17529,1339 17504,1351 17484,1351 17471,1351 17439,1348 17425,1328 17441,1326 17445,1315 17445,1308 17445,1297 17437,1289 17426,1289 17417,1289 17407,1295 17407,1308 17407,1342 17443,1362 17485,1362 17533,1362 17566,1331 17566,1296 17566,1269 17545,1242 17507,1233 17542,1221 17556,1194 17556,1174 17556,1146 17524,1126 17485,1126 17447,1126 17418,1145 17418,1172 17418,1184 17425,1191 17436,1191 17446,1191 17454,1183 17454,1173 17454,1163 17446,1156 17436,1155 17448,1139 17472,1136 17484,1136 17500,1136 17522,1144 17522,1174 17522,1189 17517,1204 17508,1214 17496,1228 17487,1229 17470,1230 17461,1230 17461,1230 17458,1231 17458,1231 17455,1231 17455,1236 17455,1240 17458,1240 17464,1240 L 17483,1240 Z"/>
        </g>
       </g>
      </g>
      <g class="Group">
       <g class="com.sun.star.drawing.PolyPolygonShape">
        <g id="id43">
         <rect class="BoundingBox" stroke="none" fill="none" x="1996" y="643" width="478" height="288"/>
        </g>
       </g>
       <g class="com.sun.star.drawing.ClosedBezierShape">
        <g id="id44">
         <rect class="BoundingBox" stroke="none" fill="none" x="2015" y="642" width="262" height="220"/>
         <path fill="rgb(0,0,0)" stroke="none" d="M 2252,671 C 2259,671 2276,671 2276,654 2276,642 2266,642 2257,642 L 2145,642 C 2070,642 2015,724 2015,782 2015,826 2044,861 2089,861 2147,861 2213,801 2213,725 2213,716 2213,692 2198,671 L 2252,671 Z M 2090,850 C 2065,850 2045,833 2045,797 2045,782 2052,741 2069,712 2090,678 2119,671 2136,671 2177,671 2182,704 2182,718 2182,742 2172,782 2155,808 2136,837 2109,850 2090,850 Z"/>
        </g>
       </g>
       <g class="com.sun.star.drawing.ClosedBezierShape">
        <g id="id45">
         <rect class="BoundingBox" stroke="none" fill="none" x="2293" y="699" width="164" height="238"/>
         <path fill="rgb(0,0,0)" stroke="none" d="M 2455,819 C 2455,781 2451,753 2434,730 2424,713 2402,699 2374,699 2294,699 2294,793 2294,819 2294,844 2294,936 2374,936 2455,936 2455,844 2455,819 Z M 2374,927 C 2359,927 2338,917 2331,889 2325,869 2325,839 2325,815 2325,789 2325,763 2331,744 2338,716 2360,709 2374,709 2394,709 2411,721 2417,741 2423,759 2424,785 2424,815 2424,839 2424,865 2418,888 2411,919 2388,927 2374,927 Z"/>
        </g>
       </g>
      </g>
      <g class="Group">
       <g class="com.sun.star.drawing.PolyPolygonShape">
        <g id="id46">
         <rect class="BoundingBox" stroke="none" fill="none" x="6440" y="683" width="478" height="287"/>
        </g>
       </g>
       <g class="com.sun.star.drawing.ClosedBezierShape">
        <g id="id47">
         <rect class="BoundingBox" stroke="none" fill="none" x="6459" y="682" width="262" height="220"/>
         <path fill="rgb(0,0,0)" stroke="none" d="M 6696,711 C 6703,711 6720,711 6720,694 6720,682 6710,682 6701,682 L 6589,682 C 6514,682 6459,764 6459,822 6459,866 6488,901 6533,901 6591,901 6657,841 6657,765 6657,756 6657,732 6642,711 L 6696,711 Z M 6534,889 C 6509,889 6489,873 6489,837 6489,822 6496,781 6513,752 6534,718 6563,711 6580,711 6621,711 6626,744 6626,758 6626,782 6616,822 6599,848 6580,877 6553,889 6534,889 Z"/>
        </g>
       </g>
       <g class="com.sun.star.drawing.ClosedBezierShape">
        <g id="id48">
         <rect class="BoundingBox" stroke="none" fill="none" x="6758" y="739" width="128" height="231"/>
         <path fill="rgb(0,0,0)" stroke="none" d="M 6836,749 C 6836,739 6835,739 6826,739 6804,760 6773,762 6758,762 L 6758,774 C 6766,774 6789,774 6808,764 L 6808,941 C 6808,952 6808,957 6774,957 L 6760,957 6760,969 C 6767,969 6810,968 6822,968 6833,968 6877,969 6885,969 L 6885,957 6871,957 C 6836,957 6836,952 6836,941 L 6836,749 Z"/>
        </g>
       </g>
      </g>
      <g class="Group">
       <g class="com.sun.star.drawing.PolyPolygonShape">
        <g id="id49">
         <rect class="BoundingBox" stroke="none" fill="none" x="11108" y="683" width="478" height="287"/>
        </g>
       </g>
       <g class="com.sun.star.drawing.ClosedBezierShape">
        <g id="id50">
         <rect class="BoundingBox" stroke="none" fill="none" x="11127" y="682" width="262" height="220"/>
         <path fill="rgb(0,0,0)" stroke="none" d="M 11364,711 C 11371,711 11388,711 11388,694 11388,682 11378,682 11369,682 L 11257,682 C 11182,682 11127,764 11127,822 11127,866 11156,901 11201,901 11259,901 11325,841 11325,765 11325,756 11325,732 11310,711 L 11364,711 Z M 11202,889 C 11177,889 11157,873 11157,837 11157,822 11164,781 11181,752 11202,718 11231,711 11248,711 11289,711 11294,744 11294,758 11294,782 11284,822 11267,848 11248,877 11221,889 11202,889 Z"/>
        </g>
       </g>
       <g class="com.sun.star.drawing.ClosedBezierShape">
        <g id="id51">
         <rect class="BoundingBox" stroke="none" fill="none" x="11409" y="739" width="155" height="231"/>
         <path fill="rgb(0,0,0)" stroke="none" d="M 11563,906 L 11550,906 C 11549,914 11546,934 11541,938 11539,940 11512,940 11508,940 L 11444,940 C 11480,907 11492,898 11513,882 11539,861 11563,840 11563,806 11563,765 11526,739 11481,739 11438,739 11409,769 11409,801 11409,819 11424,821 11427,821 11436,821 11446,814 11446,802 11446,796 11444,784 11426,784 11436,759 11460,752 11476,752 11511,752 11529,778 11529,806 11529,837 11508,860 11497,874 L 11413,956 C 11409,959 11409,960 11409,969 L 11553,969 11563,906 Z"/>
        </g>
       </g>
      </g>
      <g class="Group">
       <g class="com.sun.star.drawing.PolyPolygonShape">
        <g id="id52">
         <rect class="BoundingBox" stroke="none" fill="none" x="15838" y="643" width="478" height="288"/>
        </g>
       </g>
       <g class="com.sun.star.drawing.ClosedBezierShape">
        <g id="id53">
         <rect class="BoundingBox" stroke="none" fill="none" x="15857" y="642" width="262" height="220"/>
         <path fill="rgb(0,0,0)" stroke="none" d="M 16094,671 C 16101,671 16118,671 16118,654 16118,642 16108,642 16099,642 L 15987,642 C 15912,642 15857,724 15857,782 15857,826 15886,861 15931,861 15989,861 16055,801 16055,725 16055,716 16055,692 16040,671 L 16094,671 Z M 15932,850 C 15907,850 15887,833 15887,797 15887,782 15894,741 15911,712 15932,678 15961,671 15978,671 16019,671 16024,704 16024,718 16024,742 16014,782 15997,808 15978,837 15951,850 15932,850 Z"/>
        </g>
       </g>
       <g class="com.sun.star.drawing.ClosedBezierShape">
        <g id="id54">
         <rect class="BoundingBox" stroke="none" fill="none" x="16136" y="699" width="161" height="238"/>
         <path fill="rgb(0,0,0)" stroke="none" d="M 16213,814 C 16240,814 16259,833 16259,870 16259,912 16234,925 16214,925 16201,925 16169,921 16155,901 16172,900 16175,889 16175,882 16175,871 16167,863 16156,863 16147,863 16137,869 16137,882 16137,916 16173,936 16215,936 16263,936 16296,905 16296,870 16296,843 16275,816 16237,807 16272,795 16286,768 16286,747 16286,719 16255,699 16215,699 16177,699 16148,718 16148,745 16148,758 16155,764 16166,764 16176,764 16184,756 16184,746 16184,736 16176,730 16166,728 16178,713 16202,709 16214,709 16230,709 16252,717 16252,747 16252,762 16247,778 16238,788 16227,801 16218,802 16200,804 16191,804 16191,804 16188,805 16188,805 16185,805 16185,809 16185,814 16188,814 16194,814 L 16213,814 Z"/>
        </g>
       </g>
      </g>
      <g class="com.sun.star.drawing.LineShape">
       <g id="id55">
        <rect class="BoundingBox" stroke="none" fill="none" x="4122" y="1040" width="1018" height="301"/>
        <path fill="none" stroke="rgb(0,0,0)" d="M 4123,1190 L 4709,1190"/>
        <path fill="rgb(0,0,0)" stroke="none" d="M 5139,1190 L 4689,1040 4689,1340 5139,1190 Z"/>
       </g>
      </g>
      <g class="com.sun.star.drawing.LineShape">
       <g id="id56">
        <rect class="BoundingBox" stroke="none" fill="none" x="8722" y="1040" width="1018" height="301"/>
        <path fill="none" stroke="rgb(0,0,0)" d="M 8723,1190 L 9309,1190"/>
        <path fill="rgb(0,0,0)" stroke="none" d="M 9739,1190 L 9289,1040 9289,1340 9739,1190 Z"/>
       </g>
      </g>
      <g class="com.sun.star.drawing.LineShape">
       <g id="id57">
        <rect class="BoundingBox" stroke="none" fill="none" x="13322" y="1040" width="1018" height="301"/>
        <path fill="none" stroke="rgb(0,0,0)" d="M 13323,1190 L 13909,1190"/>
        <path fill="rgb(0,0,0)" stroke="none" d="M 14339,1190 L 13889,1040 13889,1340 14339,1190 Z"/>
       </g>
      </g>
      <g class="Group">
       <g class="com.sun.star.drawing.PolyPolygonShape">
        <g id="id58">
         <rect class="BoundingBox" stroke="none" fill="none" x="4350" y="1599" width="743" height="289"/>
        </g>
       </g>
       <g class="com.sun.star.drawing.ClosedBezierShape">
        <g id="id59">
         <rect class="BoundingBox" stroke="none" fill="none" x="4364" y="1593" width="329" height="226"/>
         <path fill="rgb(0,0,0)" stroke="none" d="M 4578,1644 C 4581,1633 4585,1614 4585,1612 4585,1603 4578,1599 4572,1599 4565,1599 4556,1602 4553,1612 4551,1615 4528,1711 4525,1723 4521,1738 4520,1747 4520,1756 4520,1762 4520,1763 4521,1765 4510,1792 4494,1806 4475,1806 4436,1806 4436,1771 4436,1762 4436,1746 4438,1727 4462,1665 4468,1650 4470,1644 4470,1633 4470,1611 4454,1593 4429,1593 4382,1593 4365,1665 4365,1669 4365,1674 4369,1674 4370,1674 4376,1674 4376,1674 4378,1665 4391,1619 4410,1604 4428,1604 4433,1604 4441,1604 4441,1620 4441,1632 4435,1647 4432,1655 4410,1713 4404,1737 4404,1755 4404,1801 4437,1818 4474,1818 4482,1818 4506,1818 4526,1783 4538,1814 4573,1818 4587,1818 4624,1818 4645,1786 4659,1757 4676,1718 4691,1651 4691,1628 4691,1601 4678,1593 4669,1593 4657,1593 4644,1605 4644,1617 4644,1623 4648,1627 4652,1630 4658,1636 4670,1648 4670,1673 4670,1690 4656,1738 4643,1763 4630,1790 4613,1806 4588,1806 4565,1806 4553,1792 4553,1764 4553,1750 4556,1735 4557,1728 L 4578,1644 Z"/>
        </g>
       </g>
       <g class="com.sun.star.drawing.ClosedBezierShape">
        <g id="id60">
         <rect class="BoundingBox" stroke="none" fill="none" x="4718" y="1655" width="163" height="239"/>
         <path fill="rgb(0,0,0)" stroke="none" d="M 4879,1776 C 4879,1738 4875,1710 4858,1686 4848,1669 4827,1656 4799,1656 4718,1656 4718,1750 4718,1776 4718,1801 4718,1893 4799,1893 4879,1893 4879,1801 4879,1776 Z M 4799,1884 C 4783,1884 4762,1874 4755,1846 4750,1826 4750,1796 4750,1772 4750,1746 4750,1720 4755,1701 4762,1673 4784,1666 4799,1666 4818,1666 4836,1677 4841,1697 4847,1715 4848,1741 4848,1772 4848,1796 4848,1822 4842,1845 4836,1876 4812,1884 4799,1884 Z"/>
        </g>
       </g>
       <g class="com.sun.star.drawing.ClosedBezierShape">
        <g id="id61">
         <rect class="BoundingBox" stroke="none" fill="none" x="4933" y="1655" width="128" height="233"/>
         <path fill="rgb(0,0,0)" stroke="none" d="M 5011,1666 C 5011,1656 5010,1656 5001,1656 4979,1677 4948,1678 4933,1678 L 4933,1691 C 4941,1691 4964,1691 4983,1681 L 4983,1858 C 4983,1869 4983,1874 4949,1874 L 4935,1874 4935,1886 C 4942,1886 4985,1885 4997,1885 5008,1885 5052,1886 5060,1886 L 5060,1874 5046,1874 C 5011,1874 5011,1869 5011,1858 L 5011,1666 Z"/>
        </g>
       </g>
      </g>
      <g class="Group">
       <g class="com.sun.star.drawing.PolyPolygonShape">
        <g id="id62">
         <rect class="BoundingBox" stroke="none" fill="none" x="8949" y="1560" width="743" height="288"/>
        </g>
       </g>
       <g class="com.sun.star.drawing.ClosedBezierShape">
        <g id="id63">
         <rect class="BoundingBox" stroke="none" fill="none" x="8963" y="1554" width="329" height="226"/>
         <path fill="rgb(0,0,0)" stroke="none" d="M 9177,1605 C 9180,1594 9184,1575 9184,1573 9184,1564 9177,1560 9171,1560 9164,1560 9155,1563 9152,1573 9150,1576 9127,1672 9124,1684 9120,1699 9119,1708 9119,1717 9119,1722 9119,1724 9120,1726 9109,1753 9093,1767 9074,1767 9035,1767 9035,1731 9035,1722 9035,1707 9037,1688 9061,1626 9067,1611 9069,1605 9069,1594 9069,1572 9053,1554 9028,1554 8981,1554 8964,1626 8964,1630 8964,1635 8968,1635 8969,1635 8975,1635 8975,1635 8977,1626 8990,1580 9009,1565 9027,1565 9032,1565 9040,1565 9040,1581 9040,1593 9034,1608 9031,1616 9009,1674 9003,1698 9003,1716 9003,1762 9036,1779 9073,1779 9081,1779 9105,1779 9125,1744 9137,1775 9172,1779 9186,1779 9223,1779 9244,1747 9258,1718 9275,1679 9290,1612 9290,1589 9290,1562 9277,1554 9268,1554 9256,1554 9243,1566 9243,1578 9243,1584 9247,1588 9251,1591 9257,1597 9269,1609 9269,1634 9269,1651 9255,1699 9242,1724 9229,1750 9212,1767 9187,1767 9164,1767 9152,1753 9152,1725 9152,1711 9155,1695 9156,1689 L 9177,1605 Z"/>
        </g>
       </g>
       <g class="com.sun.star.drawing.ClosedBezierShape">
        <g id="id64">
         <rect class="BoundingBox" stroke="none" fill="none" x="9337" y="1616" width="128" height="232"/>
         <path fill="rgb(0,0,0)" stroke="none" d="M 9416,1627 C 9416,1617 9415,1617 9406,1617 9383,1638 9352,1639 9337,1639 L 9337,1652 C 9345,1652 9369,1652 9388,1642 L 9388,1819 C 9388,1830 9388,1835 9353,1835 L 9340,1835 9340,1847 C 9346,1847 9389,1846 9401,1846 9412,1846 9456,1847 9464,1847 L 9464,1835 9450,1835 C 9416,1835 9416,1830 9416,1819 L 9416,1627 Z"/>
        </g>
       </g>
       <g class="com.sun.star.drawing.ClosedBezierShape">
        <g id="id65">
         <rect class="BoundingBox" stroke="none" fill="none" x="9516" y="1616" width="155" height="232"/>
         <path fill="rgb(0,0,0)" stroke="none" d="M 9670,1784 L 9657,1784 C 9656,1792 9653,1812 9648,1816 9646,1818 9619,1818 9615,1818 L 9551,1818 C 9587,1785 9599,1776 9620,1759 9646,1739 9670,1718 9670,1684 9670,1643 9633,1617 9588,1617 9546,1617 9516,1647 9516,1679 9516,1697 9531,1699 9534,1699 9543,1699 9553,1692 9553,1680 9553,1674 9551,1662 9533,1662 9543,1637 9567,1629 9584,1629 9618,1629 9636,1656 9636,1684 9636,1715 9615,1738 9604,1752 L 9520,1834 C 9516,1837 9516,1838 9516,1847 L 9660,1847 9670,1784 Z"/>
        </g>
       </g>
      </g>
      <g class="Group">
       <g class="com.sun.star.drawing.PolyPolygonShape">
        <g id="id66">
         <rect class="BoundingBox" stroke="none" fill="none" x="13521" y="1553" width="743" height="289"/>
        </g>
       </g>
       <g class="com.sun.star.drawing.ClosedBezierShape">
        <g id="id67">
         <rect class="BoundingBox" stroke="none" fill="none" x="13535" y="1547" width="329" height="226"/>
         <path fill="rgb(0,0,0)" stroke="none" d="M 13749,1598 C 13752,1587 13756,1568 13756,1566 13756,1557 13749,1553 13743,1553 13736,1553 13727,1556 13724,1566 13722,1569 13699,1665 13696,1677 13692,1692 13691,1701 13691,1710 13691,1716 13691,1717 13692,1719 13681,1746 13665,1760 13646,1760 13607,1760 13607,1725 13607,1716 13607,1700 13609,1681 13633,1619 13639,1604 13641,1598 13641,1587 13641,1565 13625,1547 13600,1547 13553,1547 13536,1619 13536,1623 13536,1628 13540,1628 13541,1628 13547,1628 13547,1628 13549,1619 13562,1573 13581,1558 13599,1558 13604,1558 13612,1558 13612,1574 13612,1586 13606,1601 13603,1609 13581,1667 13575,1691 13575,1709 13575,1755 13608,1772 13645,1772 13653,1772 13677,1772 13697,1737 13709,1768 13744,1772 13758,1772 13795,1772 13816,1740 13830,1711 13847,1672 13862,1605 13862,1582 13862,1555 13849,1547 13840,1547 13828,1547 13815,1559 13815,1571 13815,1577 13819,1581 13823,1584 13829,1590 13841,1602 13841,1627 13841,1644 13827,1692 13814,1717 13801,1744 13784,1760 13759,1760 13736,1760 13724,1746 13724,1718 13724,1704 13727,1689 13728,1682 L 13749,1598 Z"/>
        </g>
       </g>
       <g class="com.sun.star.drawing.ClosedBezierShape">
        <g id="id68">
         <rect class="BoundingBox" stroke="none" fill="none" x="13893" y="1609" width="156" height="233"/>
         <path fill="rgb(0,0,0)" stroke="none" d="M 14047,1777 L 14035,1777 C 14034,1785 14030,1805 14026,1809 14024,1811 13997,1811 13992,1811 L 13928,1811 C 13964,1778 13976,1769 13998,1753 14024,1732 14047,1711 14047,1677 14047,1636 14010,1610 13965,1610 13923,1610 13894,1640 13894,1672 13894,1690 13908,1692 13912,1692 13921,1692 13931,1685 13931,1673 13931,1667 13928,1655 13910,1655 13921,1630 13944,1622 13961,1622 13996,1622 14013,1649 14013,1677 14013,1708 13992,1731 13981,1745 L 13897,1827 C 13894,1830 13894,1831 13894,1840 L 14037,1840 14047,1777 Z"/>
        </g>
       </g>
       <g class="com.sun.star.drawing.ClosedBezierShape">
        <g id="id69">
         <rect class="BoundingBox" stroke="none" fill="none" x="14085" y="1609" width="160" height="239"/>
         <path fill="rgb(0,0,0)" stroke="none" d="M 14161,1725 C 14188,1725 14207,1744 14207,1781 14207,1823 14182,1836 14162,1836 14149,1836 14118,1832 14103,1812 14120,1811 14123,1800 14123,1793 14123,1782 14115,1774 14104,1774 14095,1774 14085,1780 14085,1793 14085,1827 14121,1847 14163,1847 14212,1847 14244,1816 14244,1781 14244,1754 14223,1727 14185,1718 14220,1705 14234,1678 14234,1658 14234,1630 14203,1610 14163,1610 14125,1610 14096,1629 14096,1656 14096,1668 14103,1675 14114,1675 14124,1675 14132,1667 14132,1657 14132,1647 14124,1640 14114,1639 14126,1623 14150,1620 14162,1620 14178,1620 14200,1628 14200,1658 14200,1673 14195,1689 14186,1699 14175,1712 14166,1713 14148,1714 14139,1714 14139,1714 14137,1716 14137,1716 14133,1716 14133,1720 14133,1725 14137,1725 14142,1725 L 14161,1725 Z"/>
        </g>
       </g>
      </g>
     </g>
    </g>
   </g>
  </g>
 </g>
</svg>